<?xml version="1.0" encoding="UTF-8" standalone="no"?>
<!-- Created with Inkscape (http://www.inkscape.org/) -->

<svg
   xmlns:dc="http://purl.org/dc/elements/1.1/"
   xmlns:cc="http://creativecommons.org/ns#"
   xmlns:rdf="http://www.w3.org/1999/02/22-rdf-syntax-ns#"
   xmlns:svg="http://www.w3.org/2000/svg"
   xmlns="http://www.w3.org/2000/svg"
   xmlns:sodipodi="http://sodipodi.sourceforge.net/DTD/sodipodi-0.dtd"
   xmlns:inkscape="http://www.inkscape.org/namespaces/inkscape"
   width="210mm"
   height="297mm"
   viewBox="0 0 744.09448819 1052.3622047"
   id="svg2"
   version="1.1"
   inkscape:version="0.92.4 (5da689c313, 2019-01-14)"
   sodipodi:docname="end.svg"
   inkscape:export-filename="F:\obrázky\postava\kluk\end.png"
   inkscape:export-xdpi="90"
   inkscape:export-ydpi="90">
  <defs
     id="defs4">
    <pattern
       y="0"
       x="0"
       height="6"
       width="6"
       patternUnits="userSpaceOnUse"
       id="EMFhbasepattern" />
    <filter
       inkscape:collect="always"
       style="color-interpolation-filters:sRGB"
       id="filter4261-7"
       x="-0.108"
       width="1.216"
       y="-0.108"
       height="1.216">
      <feGaussianBlur
         inkscape:collect="always"
         stdDeviation="1.5068982"
         id="feGaussianBlur4263-0" />
    </filter>
    <filter
       inkscape:collect="always"
       style="color-interpolation-filters:sRGB"
       id="filter4362-2"
       x="-0.23379847"
       width="1.4675969"
       y="-0.37491706"
       height="1.7498341">
      <feGaussianBlur
         inkscape:collect="always"
         stdDeviation="1.4785542"
         id="feGaussianBlur4364-5" />
    </filter>
    <filter
       inkscape:collect="always"
       style="color-interpolation-filters:sRGB"
       id="filter4261-0-5"
       x="-0.108"
       width="1.216"
       y="-0.108"
       height="1.216">
      <feGaussianBlur
         inkscape:collect="always"
         stdDeviation="1.5068982"
         id="feGaussianBlur4263-9-0" />
    </filter>
    <filter
       inkscape:collect="always"
       style="color-interpolation-filters:sRGB"
       id="filter4362-4-4"
       x="-0.23379847"
       width="1.4675969"
       y="-0.37491706"
       height="1.7498341">
      <feGaussianBlur
         inkscape:collect="always"
         stdDeviation="1.4785542"
         id="feGaussianBlur4364-7-3" />
    </filter>
  </defs>
  <sodipodi:namedview
     id="base"
     pagecolor="#ffffff"
     bordercolor="#666666"
     borderopacity="1.0"
     inkscape:pageopacity="0.0"
     inkscape:pageshadow="2"
     inkscape:zoom="0.24748738"
     inkscape:cx="-1302.9418"
     inkscape:cy="266.22709"
     inkscape:document-units="px"
     inkscape:current-layer="layer1"
     showgrid="false"
     inkscape:window-width="1920"
     inkscape:window-height="986"
     inkscape:window-x="-11"
     inkscape:window-y="-11"
     inkscape:window-maximized="1" />
  <metadata
     id="metadata7">
    <rdf:RDF>
      <cc:Work
         rdf:about="">
        <dc:format>image/svg+xml</dc:format>
        <dc:type
           rdf:resource="http://purl.org/dc/dcmitype/StillImage" />
        <dc:title></dc:title>
      </cc:Work>
    </rdf:RDF>
  </metadata>
  <g
     inkscape:label="Vrstva 1"
     inkscape:groupmode="layer"
     id="layer1">
    <g
       id="g4207"
       transform="translate(-0.0062706,-1.0551505e-6)">
      <path
         sodipodi:nodetypes="cc"
         style="fill:none;stroke:#000000;stroke-width:5;stroke-linecap:butt;stroke-linejoin:miter;stroke-miterlimit:4;stroke-dasharray:none;stroke-opacity:1"
         d="m 346.19886,723.79974 c -4.42897,92.54375 12.79013,117.85547 20.42586,168.84458"
         id="path3343"
         inkscape:connector-curvature="0" />
      <path
         sodipodi:nodetypes="cc"
         style="fill:none;stroke:#000000;stroke-width:5;stroke-linecap:butt;stroke-linejoin:miter;stroke-miterlimit:4;stroke-dasharray:none;stroke-opacity:1"
         d="m 396.25237,719.11073 c 19.21769,92.04078 -12.87245,128.65516 -15.60704,172.13574"
         id="path3345"
         inkscape:connector-curvature="0" />
      <path
         style="fill:#241c1c;stroke:#000000;stroke-width:2.43561602px;stroke-linecap:butt;stroke-linejoin:miter;stroke-miterlimit:4;stroke-dasharray:none;stroke-opacity:1"
         d="m 389.18883,873.98804 c -18.30114,-0.14523 -12.68848,20.67207 6.70967,53.6605 6.24596,9.30982 14.17759,12.90595 26.51633,2.07032 8.18058,-11.64364 -8.08795,-43.81842 -33.226,-55.73082 z"
         id="path3347"
         inkscape:connector-curvature="0" />
      <path
         style="fill:#241c1c;stroke:#000000;stroke-width:2.43561602px;stroke-linecap:butt;stroke-linejoin:miter;stroke-miterlimit:4;stroke-dasharray:none;stroke-opacity:1"
         d="m 360.50064,885.50509 c 22.29191,10.02056 -2.09351,37.96935 -3.02046,38.21485 -10.59897,12.98166 -20.28077,27.66932 -28.02289,19.9491 -19.74005,-14.93649 24.04932,-65.37994 31.04335,-58.16395 z"
         id="path3349"
         inkscape:connector-curvature="0" />
      <path
         style="fill:#e9c6af;stroke:#000000;stroke-width:2.43561602px;stroke-linecap:butt;stroke-linejoin:miter;stroke-miterlimit:4;stroke-dasharray:none;stroke-opacity:1"
         d="m 200.40424,633.77685 c 3.61265,8.06859 -5.12938,19.88982 -19.5375,26.34094 -14.40813,6.45109 -28.96602,5.06221 -32.57866,-3.00638 -3.64951,-8.15094 5.01019,-19.93528 19.4183,-26.3864 14.40813,-6.45109 29.04835,-5.09911 32.69786,3.05184 z"
         id="path3351-9"
         inkscape:connector-curvature="0" />
      <path
         style="fill:#e9c6af;stroke:#000000;stroke-width:2.43561602px;stroke-linecap:butt;stroke-linejoin:miter;stroke-miterlimit:4;stroke-dasharray:none;stroke-opacity:1"
         d="m 596.09225,653.86269 c -3.0837,8.8604 -18.04267,11.77312 -33.37802,6.43598 -15.42058,-5.36682 -25.33894,-16.93755 -22.25523,-25.79797 3.08366,-8.86041 18.01301,-11.68789 33.43358,-6.32111 15.33535,5.33715 25.28336,16.82268 22.19967,25.6831 z"
         id="path3353-6"
         inkscape:connector-curvature="0" />
      <path
         sodipodi:nodetypes="cc"
         style="fill:none;stroke:#000000;stroke-width:4.5;stroke-linecap:butt;stroke-linejoin:miter;stroke-miterlimit:4;stroke-dasharray:none;stroke-opacity:1"
         d="M 413.29312,428.37342 C 525.98705,599.31725 523.46477,598.4799 541.73635,632.78204"
         id="path3367-9"
         inkscape:connector-curvature="0" />
      <path
         sodipodi:nodetypes="cccccccc"
         inkscape:connector-curvature="0"
         id="path4193"
         d="m 327.42207,536.21552 -46.64005,192.48552 78.44297,7.40665 19.42012,-44.20956 11.31847,44.20956 75.08716,1.08817 c -21.35895,-81.7371 -31.11915,-131.77632 -42.86723,-198.1567 -36.16039,9.81676 -67.21448,8.89318 -94.76144,-2.82364 z"
         style="opacity:1;fill:#ff0000;fill-opacity:1;fill-rule:evenodd;stroke:#000000;stroke-width:2.76298904;stroke-linecap:butt;stroke-linejoin:miter;stroke-miterlimit:4;stroke-dasharray:none;stroke-opacity:1" />
      <path
         sodipodi:nodetypes="cc"
         style="fill:none;stroke:#000000;stroke-width:4.5;stroke-linecap:butt;stroke-linejoin:miter;stroke-miterlimit:4;stroke-dasharray:none;stroke-opacity:1"
         d="M 331.08961,442.10797 C 273.18307,524.78393 235.85297,576.11356 200.45905,635.22773"
         id="path3365-2"
         inkscape:connector-curvature="0" />
      <path
         sodipodi:nodetypes="ccccccccccccc"
         inkscape:connector-curvature="0"
         id="path4195"
         d="m 268.0692,495.41658 c 14.56396,3.20218 26.13116,12.37709 33.10306,18.75191 3.13855,-5.68609 6.04049,-12.65406 17.67584,-19.81276 0.21794,50.60658 -8.89196,66.99706 -16.66087,87.25359 42.26276,14.56083 88.59687,28.75163 150.2282,0.87853 -17.44901,-40.81536 -21.54704,-66.97918 -24.15955,-97.07726 7.42838,1.97767 11.36454,7.90455 15.93578,15.35044 5.5881,-10.04906 19.56106,-16.31231 30.15964,-19.52097 -8.31064,-6.43768 -43.68955,-35.99384 -51.43826,-42.56895 l -1.08408,-10.94199 c -32.24405,5.678 -56.41074,9.4932 -101.23263,5.00844 l -1.11308,8.75869 c -10.56196,9.3939 -36.60784,36.07824 -51.41405,53.92033 z"
         style="opacity:1;fill:#00a5ff;fill-opacity:1;fill-rule:evenodd;stroke:#000000;stroke-width:2.99612927;stroke-linecap:butt;stroke-linejoin:miter;stroke-miterlimit:4;stroke-dasharray:none;stroke-opacity:1" />
      <g
         transform="translate(-484.28571,4.398805)"
         id="g4260">
        <path
           inkscape:connector-curvature="0"
           id="path3341-0"
           d="m 842.85161,103.09342 c -152.00948,3.44133 -164.69573,168.70882 -159.46575,205.11118 10.0604,56.21708 42.70093,84.76099 43.87972,83.5822 l 254.55198,-5.21154 c 0,0 38.20324,0.88518 47.15214,-88.90937 -0.2042,-97.85219 -27.6474,-206.693167 -186.11809,-194.57247 z"
           style="fill:#784421;stroke:#000000;stroke-width:2.43561602px;stroke-linecap:butt;stroke-linejoin:miter;stroke-miterlimit:4;stroke-dasharray:none;stroke-opacity:1"
           sodipodi:nodetypes="cccccc" />
        <path
           style="fill:#e9c6af;fill-rule:evenodd;stroke:#000000;stroke-width:2.5;stroke-linecap:butt;stroke-linejoin:miter;stroke-miterlimit:4;stroke-dasharray:none;stroke-opacity:1"
           d="m 700.41721,288.31298 c 0.006,7.41974 0.24455,14.46233 0.70374,21.14747 7.52459,109.54743 74.27482,123.1085 146.77853,127.34496 100.9886,-10.38909 193.43292,-51.83292 154.55332,-207.08128 -25.21357,-40.38806 -120.29755,11.34776 -170.71576,-69.70052 -15.23835,51.27125 -129.51677,91.60816 -131.31983,128.28937 z"
           id="path4167-9"
           inkscape:connector-curvature="0"
           sodipodi:nodetypes="cscccc" />
        <circle
           style="fill:#1a1a1a;fill-opacity:1;stroke:#000000;stroke-width:1.10000002;stroke-miterlimit:4;stroke-dasharray:none;stroke-opacity:1"
           id="path4182-7"
           cx="786.50818"
           cy="274.0253"
           r="22.5" />
        <circle
           style="fill:#333333;fill-opacity:1;stroke:none;stroke-width:1.00623226;stroke-miterlimit:4;stroke-dasharray:none;stroke-opacity:1;filter:url(#filter4261-7)"
           id="path4184-3"
           cx="784.45465"
           cy="276.97171"
           r="16.743313" />
        <path
           style="fill:#ffffff;fill-opacity:1;stroke:none;stroke-width:1.10000002;stroke-miterlimit:4;stroke-dasharray:none;stroke-opacity:1;filter:url(#filter4362-2)"
           d="m 272.32227,279.86133 a 3.9285715,3.9285715 0 0 0 -2.13672,0.63281 3.9285715,3.9285715 0 0 0 -1.43555,-0.27539 3.9285715,3.9285715 0 0 0 -3.92773,3.92969 3.9285715,3.9285715 0 0 0 3.92773,3.92773 3.9285715,3.9285715 0 0 0 2.13477,-0.63281 3.9285715,3.9285715 0 0 0 1.4375,0.27539 3.9285715,3.9285715 0 0 0 0.55468,-0.043 3.9285715,3.9285715 0 0 0 3.19532,1.65039 3.9285715,3.9285715 0 0 0 3.92773,-3.92773 3.9285715,3.9285715 0 0 0 -3.92773,-3.92969 3.9285715,3.9285715 0 0 0 -0.55665,0.0449 3.9285715,3.9285715 0 0 0 -3.19335,-1.65234 z"
           id="path4186-6"
           inkscape:connector-curvature="0"
           transform="matrix(1.1697312,0.22920797,-0.2297222,1.1723554,538.50615,-134.82702)" />
        <circle
           style="fill:#1a1a1a;fill-opacity:1;stroke:#000000;stroke-width:1.10000002;stroke-miterlimit:4;stroke-dasharray:none;stroke-opacity:1"
           id="path4182-5-0"
           cx="921.79877"
           cy="272.65216"
           r="22.5" />
        <circle
           style="fill:#333333;fill-opacity:1;stroke:none;stroke-width:1.00623226;stroke-miterlimit:4;stroke-dasharray:none;stroke-opacity:1;filter:url(#filter4261-0-5)"
           id="path4184-9-0"
           cx="919.74524"
           cy="275.59857"
           r="16.743313" />
        <path
           style="fill:#ffffff;fill-opacity:1;stroke:none;stroke-width:1.10000002;stroke-miterlimit:4;stroke-dasharray:none;stroke-opacity:1;filter:url(#filter4362-4-4)"
           d="m 272.32227,279.86133 a 3.9285715,3.9285715 0 0 0 -2.13672,0.63281 3.9285715,3.9285715 0 0 0 -1.43555,-0.27539 3.9285715,3.9285715 0 0 0 -3.92773,3.92969 3.9285715,3.9285715 0 0 0 3.92773,3.92773 3.9285715,3.9285715 0 0 0 2.13477,-0.63281 3.9285715,3.9285715 0 0 0 1.4375,0.27539 3.9285715,3.9285715 0 0 0 0.55468,-0.043 3.9285715,3.9285715 0 0 0 3.19532,1.65039 3.9285715,3.9285715 0 0 0 3.92773,-3.92773 3.9285715,3.9285715 0 0 0 -3.92773,-3.92969 3.9285715,3.9285715 0 0 0 -0.55665,0.0449 3.9285715,3.9285715 0 0 0 -3.19335,-1.65234 z"
           id="path4186-5-4"
           inkscape:connector-curvature="0"
           transform="matrix(1.1697312,0.22920797,-0.2297222,1.1723554,673.79677,-136.20016)" />
        <path
           style="fill:none;fill-rule:evenodd;stroke:#000000;stroke-width:2;stroke-linecap:butt;stroke-linejoin:miter;stroke-miterlimit:4;stroke-dasharray:none;stroke-opacity:1"
           d="m 837.82471,332.3052 c 11.90477,-8.57143 22.85715,-8.57143 32.85715,0"
           id="path4399-7"
           inkscape:connector-curvature="0"
           sodipodi:nodetypes="cc" />
        <path
           style="fill:#e9c6af;fill-opacity:1;fill-rule:evenodd;stroke:none;stroke-width:1px;stroke-linecap:butt;stroke-linejoin:miter;stroke-opacity:1"
           d="m 702.8998,288.18468 c -16.96361,-3.73589 -15.07179,27.21334 0.45643,28.87255 z"
           id="path4205"
           inkscape:connector-curvature="0"
           sodipodi:nodetypes="ccc" />
        <path
           style="fill:#e9c6af;fill-opacity:1;fill-rule:evenodd;stroke:none;stroke-width:1px;stroke-linecap:butt;stroke-linejoin:miter;stroke-opacity:1"
           d="m 1009.0788,276.6601 c 17.8105,-0.4699 20.0954,21.23296 -0.571,29.59916 z"
           id="path4207"
           inkscape:connector-curvature="0"
           sodipodi:nodetypes="ccc" />
        <ellipse
           style="fill:#2b0000;fill-opacity:1;stroke:none;stroke-width:2;stroke-miterlimit:4;stroke-dasharray:none;stroke-opacity:1"
           id="path4412-8"
           cx="855.71429"
           cy="386.64792"
           rx="53.57143"
           ry="21.428572" />
      </g>
    </g>
  </g>
</svg>
