<?xml version="1.0" encoding="UTF-8" standalone="no"?>
<!-- Created with Inkscape (http://www.inkscape.org/) -->

<svg
   xmlns:dc="http://purl.org/dc/elements/1.1/"
   xmlns:cc="http://creativecommons.org/ns#"
   xmlns:rdf="http://www.w3.org/1999/02/22-rdf-syntax-ns#"
   xmlns:svg="http://www.w3.org/2000/svg"
   xmlns="http://www.w3.org/2000/svg"
   xmlns:sodipodi="http://sodipodi.sourceforge.net/DTD/sodipodi-0.dtd"
   xmlns:inkscape="http://www.inkscape.org/namespaces/inkscape"
   width="210mm"
   height="297mm"
   viewBox="0 0 744.09448819 1052.3622047"
   id="svg2"
   version="1.1"
   inkscape:version="0.92.4 (5da689c313, 2019-01-14)"
   sodipodi:docname="hod_k1.svg"
   inkscape:export-filename="F:\praktická_část\zdrojový kód\obrázky\postava\kluk\k_hod_k1.png"
   inkscape:export-xdpi="90"
   inkscape:export-ydpi="90">
  <defs
     id="defs4">
    <pattern
       y="0"
       x="0"
       height="6"
       width="6"
       patternUnits="userSpaceOnUse"
       id="EMFhbasepattern" />
    <filter
       inkscape:collect="always"
       style="color-interpolation-filters:sRGB"
       id="filter4261"
       x="-0.108"
       width="1.216"
       y="-0.108"
       height="1.216">
      <feGaussianBlur
         inkscape:collect="always"
         stdDeviation="1.5068982"
         id="feGaussianBlur4263" />
    </filter>
    <filter
       inkscape:collect="always"
       style="color-interpolation-filters:sRGB"
       id="filter4362"
       x="-0.23379847"
       width="1.4675969"
       y="-0.37491707"
       height="1.7498341">
      <feGaussianBlur
         inkscape:collect="always"
         stdDeviation="1.4785542"
         id="feGaussianBlur4364" />
    </filter>
    <filter
       inkscape:collect="always"
       style="color-interpolation-filters:sRGB"
       id="filter4362-4"
       x="-0.23379847"
       width="1.4675969"
       y="-0.37491706"
       height="1.7498341">
      <feGaussianBlur
         inkscape:collect="always"
         stdDeviation="1.4785542"
         id="feGaussianBlur4364-7" />
    </filter>
    <filter
       inkscape:collect="always"
       style="color-interpolation-filters:sRGB"
       id="filter4261-0"
       x="-0.108"
       width="1.216"
       y="-0.108"
       height="1.216">
      <feGaussianBlur
         inkscape:collect="always"
         stdDeviation="1.5068982"
         id="feGaussianBlur4263-9" />
    </filter>
  </defs>
  <sodipodi:namedview
     id="base"
     pagecolor="#ffffff"
     bordercolor="#666666"
     borderopacity="1.0"
     inkscape:pageopacity="0.0"
     inkscape:pageshadow="2"
     inkscape:zoom="1.979899"
     inkscape:cx="492.38327"
     inkscape:cy="442.57107"
     inkscape:document-units="px"
     inkscape:current-layer="layer1"
     showgrid="false"
     inkscape:window-width="1920"
     inkscape:window-height="986"
     inkscape:window-x="-11"
     inkscape:window-y="-11"
     inkscape:window-maximized="1" />
  <metadata
     id="metadata7">
    <rdf:RDF>
      <cc:Work
         rdf:about="">
        <dc:format>image/svg+xml</dc:format>
        <dc:type
           rdf:resource="http://purl.org/dc/dcmitype/StillImage" />
        <dc:title></dc:title>
      </cc:Work>
    </rdf:RDF>
  </metadata>
  <g
     inkscape:label="Vrstva 1"
     inkscape:groupmode="layer"
     id="layer1"
     style="opacity:1">
    <path
       inkscape:connector-curvature="0"
       id="path3367"
       d="M 512.57335,605.20332 C 405.7739,609.17484 391.92894,530.33214 370.10482,486.0897"
       style="fill:none;stroke:#000000;stroke-width:4.5;stroke-linecap:butt;stroke-linejoin:miter;stroke-miterlimit:4;stroke-dasharray:none;stroke-opacity:1"
       sodipodi:nodetypes="cc" />
    <path
       inkscape:connector-curvature="0"
       id="path3353"
       d="m 569.17734,603.22263 c 0,9.38169 -13.17045,17.04944 -29.40802,17.04944 -16.32778,0 -29.49823,-7.66775 -29.49823,-17.04944 0,-9.38168 13.17046,-16.95922 29.49823,-16.95922 16.23757,0 29.40802,7.57754 29.40802,16.95922 z"
       style="fill:#e9c6af;stroke:#000000;stroke-width:2.43561602px;stroke-linecap:butt;stroke-linejoin:miter;stroke-miterlimit:4;stroke-dasharray:none;stroke-opacity:1" />
    <text
       xml:space="preserve"
       style="font-style:normal;font-weight:normal;line-height:0%;font-family:sans-serif;letter-spacing:0px;word-spacing:0px;fill:#ffffff;fill-opacity:1;stroke:none;stroke-width:1px;stroke-linecap:butt;stroke-linejoin:miter;stroke-opacity:1"
       x="516.31067"
       y="562.44574"
       id="text4164"><tspan
         sodipodi:role="line"
         id="tspan4166"
         x="516.31067"
         y="562.44574"
         style="font-size:40px;line-height:1.25">i/y</tspan></text>
    <path
       inkscape:connector-curvature="0"
       id="path3343"
       d="m 267.76994,728.72825 c 16.05714,77.39903 36.26388,127.73547 57.10209,173.10927 l 0,0 0,0"
       style="fill:none;stroke:#000000;stroke-width:5;stroke-linecap:butt;stroke-linejoin:miter;stroke-miterlimit:4;stroke-dasharray:none;stroke-opacity:1" />
    <path
       inkscape:connector-curvature="0"
       id="path3345"
       d="m 349.13819,734.14077 c 0,103.46935 -11.3663,132.69577 -20.65781,176.17635"
       style="fill:none;stroke:#000000;stroke-width:5;stroke-linecap:butt;stroke-linejoin:miter;stroke-miterlimit:4;stroke-dasharray:none;stroke-opacity:1" />
    <path
       inkscape:connector-curvature="0"
       id="path3347"
       d="m 329.11186,908.51295 c -5.05172,17.5907 16.50818,17.7711 53.49253,7.93838 10.64459,-3.51815 16.23755,-10.19361 9.11105,-24.98782 -9.02087,-11.00545 -44.38146,-3.96916 -62.60358,17.04944 z"
       style="fill:#241c1c;stroke:#000000;stroke-width:2.43561602px;stroke-linecap:butt;stroke-linejoin:miter;stroke-miterlimit:4;stroke-dasharray:none;stroke-opacity:1" />
    <path
       inkscape:connector-curvature="0"
       id="path3349"
       d="m 324.24058,900.57457 c 4.14957,24.08572 -32.65555,19.48508 -33.3772,18.85364 -16.68861,-1.53358 -34.27929,-1.35312 -32.2045,-12.08799 1.35314,-24.71714 67.6565,-16.59836 65.5817,-6.76565 z"
       style="fill:#241c1c;stroke:#000000;stroke-width:2.43561602px;stroke-linecap:butt;stroke-linejoin:miter;stroke-miterlimit:4;stroke-dasharray:none;stroke-opacity:1" />
    <path
       inkscape:connector-curvature="0"
       id="path3351"
       d="m 245.23625,635.62834 c 0,8.84044 -12.80951,16.05715 -28.59593,16.05715 -15.7864,0 -28.5057,-7.21671 -28.5057,-16.05715 0,-8.93066 12.7193,-16.14734 28.5057,-16.14734 15.78642,0 28.59593,7.21668 28.59593,16.14734 z"
       style="fill:#e9c6af;stroke:#000000;stroke-width:2.43561602px;stroke-linecap:butt;stroke-linejoin:miter;stroke-miterlimit:4;stroke-dasharray:none;stroke-opacity:1" />
    <path
       inkscape:connector-curvature="0"
       id="path3365"
       d="M 290.79113,484.62022 C 117.23109,507.17235 127.60497,549.47905 243.43204,629.22354"
       style="fill:none;stroke:#000000;stroke-width:4.5;stroke-linecap:butt;stroke-linejoin:miter;stroke-miterlimit:4;stroke-dasharray:none;stroke-opacity:1" />
    <path
       style="fill:#ff0000;fill-opacity:1;fill-rule:evenodd;stroke:#000000;stroke-width:2.76298904;stroke-linecap:butt;stroke-linejoin:miter;stroke-miterlimit:4;stroke-dasharray:none;stroke-opacity:1"
       d="m 265.48869,558.85996 -46.64004,192.48552 78.44297,7.40665 19.42012,-44.20956 11.31847,44.20956 75.08715,1.08817 c -21.35895,-81.7371 -31.11915,-131.77632 -42.86723,-198.1567 -36.16039,9.81676 -67.21447,8.89318 -94.76144,-2.82364 z"
       id="path4193"
       inkscape:connector-curvature="0"
       sodipodi:nodetypes="cccccccc" />
    <path
       style="fill:#00a5ff;fill-opacity:1;fill-rule:evenodd;stroke:#000000;stroke-width:2.99612927;stroke-linecap:butt;stroke-linejoin:miter;stroke-miterlimit:4;stroke-dasharray:none;stroke-opacity:1"
       d="m 194.07975,490.1416 c 17.51505,13.17792 15.26734,24.80279 14.62446,37.9807 l 43.76648,-7.9509 c 0.21794,50.60658 -8.89195,66.99706 -16.66086,87.25359 42.26275,14.56083 88.59687,28.75163 150.22819,0.87853 -17.44901,-40.81536 -22.55719,-61.42334 -25.1697,-91.52142 7.75968,8.19846 9.46619,8.7578 15.4666,18.76342 5.67647,-11.78653 27.06408,-22.99189 33.59799,-24.95734 -12.87944,-18.05799 -27.13407,-30.56086 -49.52999,-41.22395 l -4.95137,-15.81944 c -32.24405,5.678 -56.41074,9.4932 -101.23262,5.00844 l -2.45499,8.89611 c -13.59242,4.34314 -41.09225,15.56445 -57.68418,22.69226 z"
       id="path4195"
       inkscape:connector-curvature="0"
       sodipodi:nodetypes="ccccccccccccc" />
    <g
       id="g4218"
       transform="translate(-54.966955,-3.015328e-6)">
      <path
         sodipodi:nodetypes="cccccc"
         style="fill:#784421;stroke:#000000;stroke-width:2.43561602px;stroke-linecap:butt;stroke-linejoin:miter;stroke-miterlimit:4;stroke-dasharray:none;stroke-opacity:1"
         d="m 361.61686,130.28871 c -152.00948,3.44133 -164.69573,168.70882 -159.46575,205.11118 10.0604,56.21708 42.70093,84.76099 43.87972,83.5822 l 254.55198,-5.21154 c 0,0 38.20327,0.88518 47.15212,-88.90937 -0.20418,-97.85219 -27.6474,-206.69317 -186.11807,-194.57247 z"
         id="path3341"
         inkscape:connector-curvature="0" />
      <path
         sodipodi:nodetypes="cscccc"
         inkscape:connector-curvature="0"
         id="path4167"
         d="m 219.18246,315.50827 c 0.006,7.41974 0.24455,14.46233 0.70374,21.14747 7.52459,109.54743 74.27482,123.1085 146.77853,127.34496 C 467.65333,453.61161 560.09769,412.16778 521.21807,256.91942 496.00448,216.53136 400.9205,268.26718 350.50229,187.2189 335.26394,238.49015 220.98552,278.82706 219.18246,315.50827 Z"
         style="fill:#e9c6af;fill-rule:evenodd;stroke:#000000;stroke-width:2.5;stroke-linecap:butt;stroke-linejoin:miter;stroke-miterlimit:4;stroke-dasharray:none;stroke-opacity:1" />
      <circle
         r="22.5"
         cy="301.22058"
         cx="305.27344"
         id="path4182"
         style="fill:#1a1a1a;fill-opacity:1;stroke:#000000;stroke-width:1.10000002;stroke-miterlimit:4;stroke-dasharray:none;stroke-opacity:1" />
      <path
         sodipodi:nodetypes="cc"
         inkscape:connector-curvature="0"
         id="path4178"
         d="m 283.12006,387.62376 c 55.18349,32.29795 114.22384,46.16864 186.42857,-2.85714"
         style="fill:none;fill-rule:evenodd;stroke:#000000;stroke-width:4;stroke-linecap:butt;stroke-linejoin:miter;stroke-miterlimit:4;stroke-dasharray:none;stroke-opacity:1" />
      <circle
         r="16.743313"
         cy="304.16699"
         cx="303.21991"
         id="path4184"
         style="fill:#333333;fill-opacity:1;stroke:none;stroke-width:1.00623226;stroke-miterlimit:4;stroke-dasharray:none;stroke-opacity:1;filter:url(#filter4261)" />
      <path
         transform="matrix(1.1697312,0.22920797,-0.2297222,1.1723554,57.271399,-107.63173)"
         inkscape:connector-curvature="0"
         id="path4186"
         d="m 272.32227,279.86133 a 3.9285715,3.9285715 0 0 0 -2.13672,0.63281 3.9285715,3.9285715 0 0 0 -1.43555,-0.27539 3.9285715,3.9285715 0 0 0 -3.92773,3.92969 3.9285715,3.9285715 0 0 0 3.92773,3.92773 3.9285715,3.9285715 0 0 0 2.13477,-0.63281 3.9285715,3.9285715 0 0 0 1.4375,0.27539 3.9285715,3.9285715 0 0 0 0.55468,-0.043 3.9285715,3.9285715 0 0 0 3.19532,1.65039 3.9285715,3.9285715 0 0 0 3.92773,-3.92773 3.9285715,3.9285715 0 0 0 -3.92773,-3.92969 3.9285715,3.9285715 0 0 0 -0.55665,0.0449 3.9285715,3.9285715 0 0 0 -3.19335,-1.65234 z"
         style="fill:#ffffff;fill-opacity:1;stroke:none;stroke-width:1.10000002;stroke-miterlimit:4;stroke-dasharray:none;stroke-opacity:1;filter:url(#filter4362)" />
      <circle
         r="22.5"
         cy="299.84744"
         cx="440.56403"
         id="path4182-5"
         style="fill:#1a1a1a;fill-opacity:1;stroke:#000000;stroke-width:1.10000002;stroke-miterlimit:4;stroke-dasharray:none;stroke-opacity:1" />
      <circle
         r="16.743313"
         cy="302.79385"
         cx="438.5105"
         id="path4184-9"
         style="fill:#333333;fill-opacity:1;stroke:none;stroke-width:1.00623226;stroke-miterlimit:4;stroke-dasharray:none;stroke-opacity:1;filter:url(#filter4261-0)" />
      <path
         transform="matrix(1.1697312,0.22920797,-0.2297222,1.1723554,192.56202,-109.00487)"
         inkscape:connector-curvature="0"
         id="path4186-5"
         d="m 272.32227,279.86133 a 3.9285715,3.9285715 0 0 0 -2.13672,0.63281 3.9285715,3.9285715 0 0 0 -1.43555,-0.27539 3.9285715,3.9285715 0 0 0 -3.92773,3.92969 3.9285715,3.9285715 0 0 0 3.92773,3.92773 3.9285715,3.9285715 0 0 0 2.13477,-0.63281 3.9285715,3.9285715 0 0 0 1.4375,0.27539 3.9285715,3.9285715 0 0 0 0.55468,-0.043 3.9285715,3.9285715 0 0 0 3.19532,1.65039 3.9285715,3.9285715 0 0 0 3.92773,-3.92773 3.9285715,3.9285715 0 0 0 -3.92773,-3.92969 3.9285715,3.9285715 0 0 0 -0.55665,0.0449 3.9285715,3.9285715 0 0 0 -3.19335,-1.65234 z"
         style="fill:#ffffff;fill-opacity:1;stroke:none;stroke-width:1.10000002;stroke-miterlimit:4;stroke-dasharray:none;stroke-opacity:1;filter:url(#filter4362-4)" />
      <path
         sodipodi:nodetypes="cc"
         inkscape:connector-curvature="0"
         id="path4399"
         d="m 356.58996,359.50049 c 11.90477,-8.57143 22.85715,-8.57143 32.85715,0"
         style="fill:none;fill-rule:evenodd;stroke:#000000;stroke-width:2;stroke-linecap:butt;stroke-linejoin:miter;stroke-miterlimit:4;stroke-dasharray:none;stroke-opacity:1" />
      <path
         sodipodi:nodetypes="ccc"
         inkscape:connector-curvature="0"
         id="path4205"
         d="m 221.66505,315.37997 c -16.96361,-3.73589 -15.07179,27.21334 0.45643,28.87255 z"
         style="fill:#e9c6af;fill-opacity:1;fill-rule:evenodd;stroke:none;stroke-width:1px;stroke-linecap:butt;stroke-linejoin:miter;stroke-opacity:1" />
      <path
         sodipodi:nodetypes="ccc"
         inkscape:connector-curvature="0"
         id="path4207"
         d="m 527.84409,303.85539 c 17.81048,-0.4699 20.09538,21.23296 -0.571,29.59916 z"
         style="fill:#e9c6af;fill-opacity:1;fill-rule:evenodd;stroke:none;stroke-width:1px;stroke-linecap:butt;stroke-linejoin:miter;stroke-opacity:1" />
    </g>
    <g
       id="g4174"
       transform="matrix(1.4330462,0,0,1.1181819,-258.74248,-91.305687)">
      <rect
         style="opacity:1;fill:#808080;fill-opacity:1;stroke:none;stroke-width:5;stroke-miterlimit:4;stroke-dasharray:none;stroke-opacity:1"
         id="rect4162"
         width="70.38253"
         height="78.571426"
         x="527.77051"
         y="534.9743"
         ry="1.81231" />
      <text
         xml:space="preserve"
         style="font-style:normal;font-weight:normal;line-height:0%;font-family:sans-serif;letter-spacing:0px;word-spacing:0px;fill:#ffffff;fill-opacity:1;stroke:none;stroke-width:1px;stroke-linecap:butt;stroke-linejoin:miter;stroke-opacity:1"
         x="541.9502"
         y="586.28339"
         id="text4164-9"><tspan
           sodipodi:role="line"
           x="541.9502"
           y="586.28339"
           id="tspan4169"
           style="font-size:34.30287933px;line-height:1.25">I/Y</tspan></text>
    </g>
  </g>
  <g
     inkscape:groupmode="layer"
     id="layer2"
     inkscape:label="Vrstva 2" />
</svg>
