<?xml version="1.0" encoding="UTF-8" standalone="no"?>
<!-- Created with Inkscape (http://www.inkscape.org/) -->

<svg
   xmlns:dc="http://purl.org/dc/elements/1.1/"
   xmlns:cc="http://creativecommons.org/ns#"
   xmlns:rdf="http://www.w3.org/1999/02/22-rdf-syntax-ns#"
   xmlns:svg="http://www.w3.org/2000/svg"
   xmlns="http://www.w3.org/2000/svg"
   xmlns:sodipodi="http://sodipodi.sourceforge.net/DTD/sodipodi-0.dtd"
   xmlns:inkscape="http://www.inkscape.org/namespaces/inkscape"
   width="210mm"
   height="297mm"
   viewBox="0 0 744.09448819 1052.3622047"
   id="svg2"
   version="1.1"
   inkscape:version="0.92.4 (5da689c313, 2019-01-14)"
   sodipodi:docname="jump.svg"
   inkscape:export-filename="F:\obrázky\holčička\vyber_2\jump.png"
   inkscape:export-xdpi="90"
   inkscape:export-ydpi="90">
  <defs
     id="defs4">
    <pattern
       y="0"
       x="0"
       height="6"
       width="6"
       patternUnits="userSpaceOnUse"
       id="EMFhbasepattern" />
    <filter
       inkscape:collect="always"
       style="color-interpolation-filters:sRGB"
       id="filter4261"
       x="-0.108"
       width="1.216"
       y="-0.108"
       height="1.216">
      <feGaussianBlur
         inkscape:collect="always"
         stdDeviation="1.5068982"
         id="feGaussianBlur4263" />
    </filter>
    <filter
       inkscape:collect="always"
       style="color-interpolation-filters:sRGB"
       id="filter4362"
       x="-0.23379847"
       width="1.4675969"
       y="-0.37491706"
       height="1.7498341">
      <feGaussianBlur
         inkscape:collect="always"
         stdDeviation="1.4785542"
         id="feGaussianBlur4364" />
    </filter>
    <filter
       inkscape:collect="always"
       style="color-interpolation-filters:sRGB"
       id="filter4261-0"
       x="-0.108"
       width="1.216"
       y="-0.108"
       height="1.216">
      <feGaussianBlur
         inkscape:collect="always"
         stdDeviation="1.5068982"
         id="feGaussianBlur4263-9" />
    </filter>
    <filter
       inkscape:collect="always"
       style="color-interpolation-filters:sRGB"
       id="filter4362-4"
       x="-0.23379847"
       width="1.4675969"
       y="-0.37491706"
       height="1.7498341">
      <feGaussianBlur
         inkscape:collect="always"
         stdDeviation="1.4785542"
         id="feGaussianBlur4364-7" />
    </filter>
  </defs>
  <sodipodi:namedview
     id="base"
     pagecolor="#ffffff"
     bordercolor="#666666"
     borderopacity="1.0"
     inkscape:pageopacity="0.0"
     inkscape:pageshadow="2"
     inkscape:zoom="0.49497474"
     inkscape:cx="260.92748"
     inkscape:cy="471.92416"
     inkscape:document-units="px"
     inkscape:current-layer="layer1"
     showgrid="false"
     inkscape:window-width="1920"
     inkscape:window-height="986"
     inkscape:window-x="-11"
     inkscape:window-y="-11"
     inkscape:window-maximized="1" />
  <metadata
     id="metadata7">
    <rdf:RDF>
      <cc:Work
         rdf:about="">
        <dc:format>image/svg+xml</dc:format>
        <dc:type
           rdf:resource="http://purl.org/dc/dcmitype/StillImage" />
        <dc:title></dc:title>
      </cc:Work>
    </rdf:RDF>
  </metadata>
  <g
     inkscape:label="Vrstva 1"
     inkscape:groupmode="layer"
     id="layer1">
    <g
       id="g4165"
       transform="translate(-5.4792963e-8,9.4298828)">
      <path
         style="fill:#241c1c;stroke:#000000;stroke-width:2.43561602px;stroke-linecap:butt;stroke-linejoin:miter;stroke-miterlimit:4;stroke-dasharray:none;stroke-opacity:1"
         d="m 575.89224,789.26577 c -18.30114,-0.14523 -12.68848,20.67207 6.70967,53.6605 6.24596,9.30982 14.17759,12.90595 26.51633,2.07032 8.18058,-11.64364 -8.08795,-43.81842 -33.226,-55.73082 z"
         id="path3347"
         inkscape:connector-curvature="0" />
      <path
         style="fill:#241c1c;stroke:#000000;stroke-width:2.43561602px;stroke-linecap:butt;stroke-linejoin:miter;stroke-miterlimit:4;stroke-dasharray:none;stroke-opacity:1"
         d="m 194.79506,781.56889 c 22.29191,10.02056 -2.09351,37.96935 -3.02046,38.21485 -10.59897,12.98166 -20.28077,27.66932 -28.02289,19.9491 -19.74005,-14.93649 24.04932,-65.37994 31.04335,-58.16395 z"
         id="path3349"
         inkscape:connector-curvature="0" />
      <path
         style="fill:#e9c6af;stroke:#000000;stroke-width:2.43561602px;stroke-linecap:butt;stroke-linejoin:miter;stroke-miterlimit:4;stroke-dasharray:none;stroke-opacity:1"
         d="m 140.88758,309.44078 c -4.4632,7.63107 -19.16382,7.3935 -32.79065,-0.57646 -13.626826,-7.96996 -20.962685,-20.62091 -16.499486,-28.25197 4.50875,-7.70895 19.131476,-7.51691 32.758306,0.45304 13.62684,7.96997 21.04058,20.66644 16.53183,28.37539 z"
         id="path3351"
         inkscape:connector-curvature="0" />
      <path
         style="fill:#e9c6af;stroke:#000000;stroke-width:2.43561602px;stroke-linecap:butt;stroke-linejoin:miter;stroke-miterlimit:4;stroke-dasharray:none;stroke-opacity:1"
         d="m 652.44414,283.06314 c 4.64623,8.15038 -2.99823,21.33435 -17.10467,29.37593 -14.18482,8.08624 -29.42411,7.94745 -34.07033,-0.20293 -4.64623,-8.15036 3.04291,-21.25597 17.22772,-29.34222 14.10645,-8.04157 29.30105,-7.98115 33.94728,0.16922 z"
         id="path3353"
         inkscape:connector-curvature="0" />
      <path
         sodipodi:nodetypes="cc"
         style="fill:none;stroke:#000000;stroke-width:5;stroke-linecap:butt;stroke-linejoin:miter;stroke-miterlimit:4;stroke-dasharray:none;stroke-opacity:1"
         d="m 351.46112,773.35659 c 0,103.46935 -43.11177,149.68634 -153.18935,12.45264"
         id="path3345-7"
         inkscape:connector-curvature="0" />
      <path
         sodipodi:nodetypes="cc"
         style="fill:none;stroke:#000000;stroke-width:5;stroke-linecap:butt;stroke-linejoin:miter;stroke-miterlimit:4;stroke-dasharray:none;stroke-opacity:1"
         d="m 405.18174,776.8811 c 6.0397,108.07885 67.34863,151.43689 168.18936,13.16693"
         id="path3345-7-7"
         inkscape:connector-curvature="0" />
      <path
         sodipodi:nodetypes="cc"
         style="fill:none;stroke:#000000;stroke-width:4.5;stroke-linecap:butt;stroke-linejoin:miter;stroke-miterlimit:4;stroke-dasharray:none;stroke-opacity:1"
         d="M 330.43075,532.48151 C 265.11847,455.52188 186.17358,358.91806 137.95233,309.70499"
         id="path3365"
         inkscape:connector-curvature="0" />
      <path
         sodipodi:nodetypes="cc"
         style="fill:none;stroke:#000000;stroke-width:4.5;stroke-linecap:butt;stroke-linejoin:miter;stroke-miterlimit:4;stroke-dasharray:none;stroke-opacity:1"
         d="M 414.9842,527.94615 C 540.61264,385.39292 570.09103,352.29843 604.0565,312.89265"
         id="path3367"
         inkscape:connector-curvature="0" />
      <path
         sodipodi:nodetypes="cccccccc"
         inkscape:connector-curvature="0"
         id="path4193"
         d="m 331.85439,584.67719 -46.64006,192.48552 78.44298,7.40665 19.42012,-44.20956 11.31847,44.20956 75.08716,1.08817 c -21.35895,-81.7371 -31.11915,-131.77632 -42.86723,-198.1567 -36.16039,9.81676 -67.21448,8.89318 -94.76144,-2.82364 z"
         style="opacity:1;fill:#ff0000;fill-opacity:1;fill-rule:evenodd;stroke:#000000;stroke-width:2.76298904;stroke-linecap:butt;stroke-linejoin:miter;stroke-miterlimit:4;stroke-dasharray:none;stroke-opacity:1" />
      <path
         sodipodi:nodetypes="ccccccccccc"
         inkscape:connector-curvature="0"
         id="path4195"
         d="m 279.01687,458.10169 c -7.44983,17.17725 2.00102,16.69797 -10.37555,31.55212 20.7723,17.76812 34.18289,29.51429 50.90936,47.76339 0.21794,50.60658 -9.60626,75.56849 -17.37517,95.82502 42.26277,14.56083 88.59688,28.75163 150.22821,0.87853 -17.44901,-40.81536 -21.54704,-66.97918 -24.15955,-97.07726 13.56806,-16.29775 25.4912,-31.36474 42.35076,-44.03679 -4.5044,-3.82815 -13.38035,-38.31894 -6.48993,-44.52533 -17.01337,6.91535 -42.28775,30.88065 -42.28775,30.88065 -32.24405,5.678 -56.41074,9.4932 -101.23263,5.00844 -15.17114,-12.48884 -32.11735,-20.22206 -41.56775,-26.26877 z"
         style="opacity:1;fill:#00a5ff;fill-opacity:1;fill-rule:evenodd;stroke:#000000;stroke-width:2.99612927;stroke-linecap:butt;stroke-linejoin:miter;stroke-miterlimit:4;stroke-dasharray:none;stroke-opacity:1" />
      <g
         id="g4218"
         style="opacity:1"
         transform="translate(11.398743,25.817225)">
        <path
           inkscape:connector-curvature="0"
           id="path3341"
           d="m 361.61686,130.28871 c -152.00948,3.44133 -164.69573,168.70882 -159.46575,205.11118 10.0604,56.21708 42.70093,84.76099 43.87972,83.5822 l 254.55198,-5.21154 c 0,0 38.20327,0.88518 47.15212,-88.90937 -0.20418,-97.85219 -27.6474,-206.69317 -186.11807,-194.57247 z"
           style="fill:#784421;stroke:#000000;stroke-width:2.43561602px;stroke-linecap:butt;stroke-linejoin:miter;stroke-miterlimit:4;stroke-dasharray:none;stroke-opacity:1"
           sodipodi:nodetypes="cccccc" />
        <path
           style="fill:#e9c6af;fill-rule:evenodd;stroke:#000000;stroke-width:2.5;stroke-linecap:butt;stroke-linejoin:miter;stroke-miterlimit:4;stroke-dasharray:none;stroke-opacity:1"
           d="m 219.18246,315.50827 c 0.006,7.41974 0.24455,14.46233 0.70374,21.14747 7.52459,109.54743 74.27482,123.1085 146.77853,127.34496 C 467.65333,453.61161 560.09769,412.16778 521.21807,256.91942 496.00448,216.53136 400.9205,268.26718 350.50229,187.2189 335.26394,238.49015 220.98552,278.82706 219.18246,315.50827 Z"
           id="path4167"
           inkscape:connector-curvature="0"
           sodipodi:nodetypes="cscccc" />
        <circle
           style="fill:#1a1a1a;fill-opacity:1;stroke:#000000;stroke-width:1.10000002;stroke-miterlimit:4;stroke-dasharray:none;stroke-opacity:1"
           id="path4182"
           cx="305.27344"
           cy="301.22058"
           r="22.5" />
        <path
           style="fill:none;fill-rule:evenodd;stroke:#000000;stroke-width:4;stroke-linecap:butt;stroke-linejoin:miter;stroke-miterlimit:4;stroke-dasharray:none;stroke-opacity:1"
           d="m 283.12006,387.62376 c 55.18349,32.29795 114.22384,46.16864 186.42857,-2.85714"
           id="path4178"
           inkscape:connector-curvature="0"
           sodipodi:nodetypes="cc" />
        <circle
           style="fill:#333333;fill-opacity:1;stroke:none;stroke-width:1.00623226;stroke-miterlimit:4;stroke-dasharray:none;stroke-opacity:1;filter:url(#filter4261)"
           id="path4184"
           cx="303.21991"
           cy="304.16699"
           r="16.743313" />
        <path
           style="fill:#ffffff;fill-opacity:1;stroke:none;stroke-width:1.10000002;stroke-miterlimit:4;stroke-dasharray:none;stroke-opacity:1;filter:url(#filter4362)"
           d="m 272.32227,279.86133 a 3.9285715,3.9285715 0 0 0 -2.13672,0.63281 3.9285715,3.9285715 0 0 0 -1.43555,-0.27539 3.9285715,3.9285715 0 0 0 -3.92773,3.92969 3.9285715,3.9285715 0 0 0 3.92773,3.92773 3.9285715,3.9285715 0 0 0 2.13477,-0.63281 3.9285715,3.9285715 0 0 0 1.4375,0.27539 3.9285715,3.9285715 0 0 0 0.55468,-0.043 3.9285715,3.9285715 0 0 0 3.19532,1.65039 3.9285715,3.9285715 0 0 0 3.92773,-3.92773 3.9285715,3.9285715 0 0 0 -3.92773,-3.92969 3.9285715,3.9285715 0 0 0 -0.55665,0.0449 3.9285715,3.9285715 0 0 0 -3.19335,-1.65234 z"
           id="path4186"
           inkscape:connector-curvature="0"
           transform="matrix(1.1697312,0.22920797,-0.2297222,1.1723554,57.271399,-107.63173)" />
        <circle
           style="fill:#1a1a1a;fill-opacity:1;stroke:#000000;stroke-width:1.10000002;stroke-miterlimit:4;stroke-dasharray:none;stroke-opacity:1"
           id="path4182-5"
           cx="440.56403"
           cy="299.84744"
           r="22.5" />
        <circle
           style="fill:#333333;fill-opacity:1;stroke:none;stroke-width:1.00623226;stroke-miterlimit:4;stroke-dasharray:none;stroke-opacity:1;filter:url(#filter4261-0)"
           id="path4184-9"
           cx="438.5105"
           cy="302.79385"
           r="16.743313" />
        <path
           style="fill:#ffffff;fill-opacity:1;stroke:none;stroke-width:1.10000002;stroke-miterlimit:4;stroke-dasharray:none;stroke-opacity:1;filter:url(#filter4362-4)"
           d="m 272.32227,279.86133 a 3.9285715,3.9285715 0 0 0 -2.13672,0.63281 3.9285715,3.9285715 0 0 0 -1.43555,-0.27539 3.9285715,3.9285715 0 0 0 -3.92773,3.92969 3.9285715,3.9285715 0 0 0 3.92773,3.92773 3.9285715,3.9285715 0 0 0 2.13477,-0.63281 3.9285715,3.9285715 0 0 0 1.4375,0.27539 3.9285715,3.9285715 0 0 0 0.55468,-0.043 3.9285715,3.9285715 0 0 0 3.19532,1.65039 3.9285715,3.9285715 0 0 0 3.92773,-3.92773 3.9285715,3.9285715 0 0 0 -3.92773,-3.92969 3.9285715,3.9285715 0 0 0 -0.55665,0.0449 3.9285715,3.9285715 0 0 0 -3.19335,-1.65234 z"
           id="path4186-5"
           inkscape:connector-curvature="0"
           transform="matrix(1.1697312,0.22920797,-0.2297222,1.1723554,192.56202,-109.00487)" />
        <path
           style="fill:none;fill-rule:evenodd;stroke:#000000;stroke-width:2;stroke-linecap:butt;stroke-linejoin:miter;stroke-miterlimit:4;stroke-dasharray:none;stroke-opacity:1"
           d="m 356.58996,359.50049 c 11.90477,-8.57143 22.85715,-8.57143 32.85715,0"
           id="path4399"
           inkscape:connector-curvature="0"
           sodipodi:nodetypes="cc" />
        <path
           style="fill:#e9c6af;fill-opacity:1;fill-rule:evenodd;stroke:none;stroke-width:1px;stroke-linecap:butt;stroke-linejoin:miter;stroke-opacity:1"
           d="m 221.66505,315.37997 c -16.96361,-3.73589 -15.07179,27.21334 0.45643,28.87255 z"
           id="path4205"
           inkscape:connector-curvature="0"
           sodipodi:nodetypes="ccc" />
        <path
           style="fill:#e9c6af;fill-opacity:1;fill-rule:evenodd;stroke:none;stroke-width:1px;stroke-linecap:butt;stroke-linejoin:miter;stroke-opacity:1"
           d="m 527.84409,303.85539 c 17.81048,-0.4699 20.09538,21.23296 -0.571,29.59916 z"
           id="path4207"
           inkscape:connector-curvature="0"
           sodipodi:nodetypes="ccc" />
      </g>
    </g>
  </g>
</svg>
