<?xml version="1.0" encoding="UTF-8" standalone="no"?>
<svg
   xmlns:dc="http://purl.org/dc/elements/1.1/"
   xmlns:cc="http://creativecommons.org/ns#"
   xmlns:rdf="http://www.w3.org/1999/02/22-rdf-syntax-ns#"
   xmlns:svg="http://www.w3.org/2000/svg"
   xmlns="http://www.w3.org/2000/svg"
   xmlns:sodipodi="http://sodipodi.sourceforge.net/DTD/sodipodi-0.dtd"
   xmlns:inkscape="http://www.inkscape.org/namespaces/inkscape"
   version="1.1"
   width="720px"
   height="1358px"
   viewBox="0 0 720 1358"
   id="svg1861"
   sodipodi:docname="hoory.svg"
   inkscape:version="0.92.4 (5da689c313, 2019-01-14)">
  <metadata
     id="metadata1867">
    <rdf:RDF>
      <cc:Work
         rdf:about="">
        <dc:format>image/svg+xml</dc:format>
        <dc:type
           rdf:resource="http://purl.org/dc/dcmitype/StillImage" />
        <dc:title></dc:title>
      </cc:Work>
    </rdf:RDF>
  </metadata>
  <defs
     id="defs1865" />
  <sodipodi:namedview
     pagecolor="#ffffff"
     bordercolor="#666666"
     borderopacity="1"
     objecttolerance="10"
     gridtolerance="10"
     guidetolerance="10"
     inkscape:pageopacity="0"
     inkscape:pageshadow="2"
     inkscape:window-width="1920"
     inkscape:window-height="986"
     id="namedview1863"
     showgrid="false"
     inkscape:zoom="0.79458391"
     inkscape:cx="526.05146"
     inkscape:cy="561.94817"
     inkscape:window-x="-11"
     inkscape:window-y="-11"
     inkscape:window-maximized="1"
     inkscape:current-layer="layer2" />
  <g
     id="layer1">
    <g
       style="fill:#483e37;fill-opacity:1;stroke-linejoin:miter"
       id="g1344"
       inkscape:export-filename="C:\Users\zajic\Desktop\diplomka\DP_Zajicova_Zuzana\Assets\obrázky\pozadí\hoory.png"
       inkscape:export-xdpi="90"
       inkscape:export-ydpi="90" />
  </g>
  <g
     inkscape:groupmode="layer"
     id="layer2"
     inkscape:label="pozadí"
     style="display:inline">
    <path
       style="fill:#60564a;stroke:#60564a;stroke-width:2.51338583;stroke-linecap:butt;stroke-linejoin:miter;stroke-opacity:1;fill-opacity:1;stroke-miterlimit:4;stroke-dasharray:none"
       d="m 944.2321,794.36804 -1173.2828,-7.73627 -36.49709,1.25852 118.26797,-86.19763 81.836763,-49.72256 86.837903,50.34081 L 2.5170407,664.5553 C 43.983213,660.54224 85.674218,639.43131 122.08241,621.96845 c 19.42168,-9.31543 19.59957,-16.45912 44.66864,-22.18278 9.64653,-2.20245 18.63225,-11.10881 28.01181,-14.19428 17.2562,-5.67654 46.54945,-7.50778 61.2839,-4.31581 28.44633,6.16242 157.44125,84.03551 185.66261,92.19748 7.84156,2.26788 5.62054,-8.55664 15.98165,-8.22424 30.82685,0.98895 69.13474,-26.35978 98.47992,-27.55948 21.26749,-0.86947 55.69847,-29.72534 73.28795,-19.19447 17.25663,10.33159 17.76055,60.01236 29.45768,63.39936 53.33459,15.44345 128.25413,18.99963 169.10209,29.25025 60.42807,15.16416 84.79544,65.28164 116.21344,83.22356 z"
       id="path1869"
       inkscape:connector-curvature="0"
       sodipodi:nodetypes="cccccccssssssssssc"
       inkscape:export-filename="C:\Users\zajic\Desktop\diplomka\DP_Zajicova_Zuzana\Assets\obrázky\pozadí\hoory.png"
       inkscape:export-xdpi="90"
       inkscape:export-ydpi="90" />
  </g>
  <g
     inkscape:groupmode="layer"
     id="layer3"
     inkscape:label="obrys"
     style="display:inline">
    <path
       d="m 259.4276,565.2982 c -1.36684,0.4446 -6.19188,2.9249 -10.84876,5.41255 -8.64178,5.00585 -22.05279,7.4422 -46.51889,8.54635 -12.48871,0.6252 -13.863,1.23783 -28.74856,10.3449 -25.80153,16.03203 -75.87024,40.08153 -99.10698,47.6391 -6.322574,2.07714 -14.736465,5.74584 -18.881706,8.0879 -14.336689,8.1203 -32.632414,14.3817 -41.875919,13.9719 -4.705723,-0.2086 -10.9612634,0.35614 -13.86298784,1.2379 -4.60474366,1.3112 -6.76721686,0.71016 -17.29967816,-4.80864 -6.580881,-3.49096 -14.170163,-7.02726 -16.668797,-7.64336 -2.491035,-0.78394 -7.749812,-3.71174 -11.327922,-6.56434 -3.738755,-3.0285 -8.347558,-5.42186 -10.53239,-5.5188 -4.20152,-0.18626 -28.48295,15.74451 -56.37888,37.24094 -10.11275,7.8029 -21.95831,16.70773 -26.46957,19.7071 -8.33516,5.69265 -11.37108,9.59926 -7.84183,9.75594 1.84869,0.0818 12.90278,-6.16314 59.07949,-33.58504 10.54241,-6.1 19.886015,-11.7476 20.916754,-12.2072 2.412516,-1.23986 19.686421,7.9453 32.239616,17.2584 5.542746,4.11886 14.409426,9.2272 19.880958,11.15365 5.471522,1.92688 16.2018262,6.78089 23.936798,10.82819 7.566947,4.04026 14.995612,7.40086 16.172019,7.45312 1.176455,0.0519 5.123879,-1.62536 8.58938,-3.82922 4.679337,-2.99204 8.589465,-3.82894 14.975823,-3.54554 4.705852,0.2086 10.442234,-0.0421 12.656879,-0.6174 3.398487,-0.6915 2.595473,-1.5691 -6.775587,-6.69967 C 48.82093,685.6233 41.056206,682.248 37.55659,681.4193 29.220617,679.534 8.9066,670.5507 8.981158,668.86975 c 0.029808,-0.67235 2.748565,-1.22535 5.941763,-1.08395 9.075336,0.40255 23.292876,-5.0291 77.936449,-29.71756 52.07078,-23.62374 73.07366,-33.97494 92.97471,-46.0589 12.12208,-7.54554 12.45808,-7.53064 59.02237,-9.50714 l 10.45709,-0.3786 -0.40238,9.0751 c -0.39489,8.9077 -0.24163,9.2516 7.7175,15.8347 4.54941,3.7384 8.09024,7.4314 8.06044,8.1037 -0.0969,2.185 -10.01182,9.32256 -14.2657,10.3128 -4.0931,1.16576 -11.64755,8.2403 -11.9498,11.25805 -0.0448,1.00845 3.63036,1.67669 8.85517,1.57115 7.24893,-0.1837 11.24533,0.8357 20.3023,5.447 6.09165,3.1327 12.7099,5.7838 14.73416,5.7053 2.35279,0.1042 6.7258,-3.5748 12.95832,-11.2131 5.15683,-6.17045 10.09402,-11.17167 10.93415,-11.13456 1.34463,0.0596 4.73305,10.98743 6.4781,20.99982 0.80708,4.58264 1.13584,4.76554 8.91145,4.09994 4.39953,-0.4784 9.31061,-1.1029 11.01333,-1.5323 1.87116,-0.4223 4.6464,1.5531 8.15738,5.91856 13.07337,16.57704 21.46214,24.86364 28.7378,27.88019 8.59008,3.74895 12.22476,9.13065 13.41334,20.29745 0.97173,8.46256 4.18413,11.97294 16.6887,18.589 4.93757,2.5769 16.61658,8.8201 25.83442,13.60696 17.10592,9.17854 23.5932,10.98184 23.76452,7.11627 0.12662,-2.85733 -4.39999,-7.09953 -19.23922,-18.02966 -6.51377,-5.00372 -13.15842,-10.85537 -14.56682,-13.27527 -1.24013,-2.4124 -5.84566,-8.6788 -10.15978,-13.92163 -7.66476,-9.43367 -13.29757,-19.11357 -11.11272,-19.01667 0.67208,0.0298 7.67556,5.392 15.63464,11.97596 13.65551,11.04564 15.13079,11.95294 24.03056,12.51629 7.38753,0.49605 11.3612,2.01941 17.737,6.34339 4.57893,3.06561 13.49797,6.99731 19.80965,8.96116 9.97213,2.9682 12.92269,4.7829 20.64703,12.87185 4.9938,5.10485 9.52078,9.34705 10.02492,9.3695 2.35295,0.10415 1.32884,-7.18219 -1.6558,-12.02978 -3.15986,-4.68683 -3.13758,-5.19087 -0.26966,-9.10517 2.87533,-4.08245 2.87533,-4.08245 -3.39179,-7.05456 -3.62295,-1.84461 -14.53631,-6.37 -24.63185,-10.354 -17.3855,-6.66474 -24.73994,-11.70569 -37.80147,-24.74584 -5.00137,-4.93697 -3.53009,-7.7343 2.58383,-5.1057 3.96654,1.6914 4.8216,1.3924 9.07132,-3.30246 4.25708,-4.86328 5.11242,-5.16214 11.95082,-3.68029 21.6991,4.33025 20.34728,4.43905 34.80736,-2.66605 31.67624,-15.6037 55.17064,-25.1706 72.53678,-29.4524 2.39026,-0.7358 9.91906,-3.4334 16.79086,-6.497 12.52176,-5.17 12.69,-5.1626 27.0838,-3.1773 l 14.5544,2.16134 1.1177,8.97442 c 0.6017,5.41554 0.4153,9.61684 -0.46205,10.41984 -1.05325,0.9636 -4.82935,-1.2244 -9.69975,-5.3134 l -7.95216,-6.75176 -9.76484,11.35461 c -9.23846,10.87299 -9.60455,11.5304 -7.81146,16.66168 1.04966,2.90927 2.9812,8.72004 4.13941,12.98147 1.48681,4.4439 6.19325,12.2306 11.63925,18.534 5.59884,6.6472 9.5249,13.0524 10.04806,16.4434 1.45364,8.9895 6.04434,15.5921 16.91704,24.8304 5.68105,4.7987 13.917,12.7417 18.2386,17.8166 5.4458,6.30374 13.0988,12.2 24.43463,18.5966 9.02727,5.2839 17.55072,10.54515 19.00361,11.9567 1.28466,1.4041 3.42456,2.5092 4.43296,2.554 4.03365,0.17856 2.0725,-4.96 -4.7889,-13.5152 -5.43105,-6.6401 -7.2764,-10.59494 -8.0165,-16.6897 -0.456,-4.9038 -2.42487,-9.8746 -5.13263,-13.3628 -2.70862,-3.4879 -4.68467,-8.2905 -5.11853,-13.6985 -0.4707,-4.56763 -1.27794,-9.15 -1.72264,-10.5168 -0.4445,-1.3671 2.1733,-3.44 6.6399,-5.43065 l 7.22263,-3.38459 7.90327,4.055 c 10.8535,5.86994 19.9887,4.92779 34.1572,-3.20096 11.74916,-6.7195 15.1177,-6.7383 29.66884,-0.7052 6.61072,2.8193 30.69626,2.7084 37.55286,-0.0185 4.8029,-1.97634 20.2196,-0.28229 24.63806,2.60776 1.797,1.2588 1.56924,2.5958 -1.81786,6.82375 l -4.10414,5.20685 3.5603,7.06195 c 2.01319,3.96255 4.02674,7.92465 4.82974,8.80231 0.6426,0.70221 10.52836,1.81409 22.1324,2.16014 l 21.02285,0.5955 9.62935,10.6988 c 5.30034,5.79226 10.81315,10.58316 12.3258,10.6502 4.3696,0.1938 20.613,9.83884 35.2768,20.92966 7.4997,5.55264 13.8828,9.7088 14.4017,9.39508 3.51064,-3.21244 -11.30314,-18.51959 -31.72984,-32.56024 -11.4361,-7.916 -17.24072,-13.73035 -19.33286,-19.717 -1.80044,-4.96354 -5.7299,-7.4951 -29.4393,-19.6608 -5.9308,-2.95704 -13.59906,-8.51734 -17.3078,-12.2181 -5.1547,-5.28026 -10.238,-8.3685 -22.6565,-13.1288 -15.89544,-6.0935 -16.0635,-6.10086 -28.2761,-4.11667 -22.37807,3.3858 -26.5946,3.53583 -35.4127,1.12447 -10.80497,-3.1736 -21.81925,-9.21926 -36.49045,-20.1418 -6.19255,-4.65265 -14.21175,-9.8914 -17.83465,-11.7366 -3.4548,-1.8369 -11.72016,-9.1074 -18.47315,-16.31095 -8.52015,-9.13445 -14.53715,-13.94765 -20.33008,-16.22535 -9.26237,-3.77886 -18.19307,-11.2474 -20.94251,-17.5996 -1.06456,-2.5735 -4.27686,-6.08325 -7.0592,-7.891 l -5.07611,-3.2559 -13.41455,6.3088 c -7.39826,3.5455 -19.73724,8.3866 -27.2511,10.7478 -7.68207,2.35403 -18.65424,6.75076 -24.5099,9.69046 -5.856,2.93994 -17.8291,7.12424 -26.51976,9.4331 -25.04814,6.63584 -34.28748,9.93061 -46.73819,17.29328 -11.23737,6.57416 -11.91681,6.71252 -17.02991,4.29656 -6.43527,-2.97967 -27.83894,-2.58154 -34.8862,0.64234 -4.29117,1.83051 -6.3002,1.57316 -17.26556,-1.77604 -12.46318,-3.75216 -20.68741,-8.1581 -20.56076,-11.0152 0.0372,-0.8403 -3.38788,-3.3497 -7.49982,-5.55263 -4.11224,-2.20307 -8.34046,-5.59007 -9.27408,-7.31513 -1.24774,-2.24474 -3.72397,-3.36504 -7.92552,-3.55151 -4.3696,-0.19379 -8.16054,-2.04553 -13.5203,-6.49313 -4.0601,-3.37924 -7.6009,-7.07267 -7.89225,-8.09574 -0.29163,-1.02376 -8.77345,-3.42071 -18.79745,-5.21206 -21.04176,-3.96414 -27.60777,-7.79154 -48.13206,-27.225 -6.46176,-6.1804 -12.80002,-11.34455 -13.80834,-11.38917 -1.1765,-0.0521 -4.80686,-1.72906 -8.25416,-3.73403 -6.39804,-3.8201 -7.06264,-4.0178 -11.16334,-2.6842 z"
       id="path1342"
       style="fill:#483e37;fill-opacity:1;stroke-linejoin:miter"
       inkscape:connector-curvature="0"
       inkscape:export-filename="C:\Users\zajic\Desktop\diplomka\DP_Zajicova_Zuzana\Assets\obrázky\pozadí\hoory.png"
       inkscape:export-xdpi="90"
       inkscape:export-ydpi="90" />
  </g>
</svg>
