<?xml version="1.0" encoding="UTF-8" standalone="no"?>
<!-- Created with Inkscape (http://www.inkscape.org/) -->

<svg
   xmlns:dc="http://purl.org/dc/elements/1.1/"
   xmlns:cc="http://creativecommons.org/ns#"
   xmlns:rdf="http://www.w3.org/1999/02/22-rdf-syntax-ns#"
   xmlns:svg="http://www.w3.org/2000/svg"
   xmlns="http://www.w3.org/2000/svg"
   xmlns:sodipodi="http://sodipodi.sourceforge.net/DTD/sodipodi-0.dtd"
   xmlns:inkscape="http://www.inkscape.org/namespaces/inkscape"
   width="210mm"
   height="297mm"
   viewBox="0 0 744.09448819 1052.3622047"
   id="svg4151"
   version="1.1"
   inkscape:version="0.92.4 (5da689c313, 2019-01-14)"
   sodipodi:docname="hory.svg"
   inkscape:export-filename="C:\Users\zajic\Desktop\diplomka\DP_Zajicova_Zuzana\Assets\obrázky\pozadí\hory.png"
   inkscape:export-xdpi="90"
   inkscape:export-ydpi="90">
  <defs
     id="defs4153">
    <filter
       inkscape:collect="always"
       style="color-interpolation-filters:sRGB"
       id="filter1207"
       x="-0.017259658"
       width="1.0345193"
       y="-0.068845898"
       height="1.1376918">
      <feGaussianBlur
         inkscape:collect="always"
         stdDeviation="1.1850054"
         id="feGaussianBlur1209" />
    </filter>
  </defs>
  <sodipodi:namedview
     id="base"
     pagecolor="#ffffff"
     bordercolor="#666666"
     borderopacity="1.0"
     inkscape:pageopacity="0.0"
     inkscape:pageshadow="2"
     inkscape:zoom="1.979899"
     inkscape:cx="296.74384"
     inkscape:cy="788.27907"
     inkscape:document-units="px"
     inkscape:current-layer="layer1"
     showgrid="false"
     inkscape:window-width="1920"
     inkscape:window-height="986"
     inkscape:window-x="-11"
     inkscape:window-y="-11"
     inkscape:window-maximized="1" />
  <metadata
     id="metadata4156">
    <rdf:RDF>
      <cc:Work
         rdf:about="">
        <dc:format>image/svg+xml</dc:format>
        <dc:type
           rdf:resource="http://purl.org/dc/dcmitype/StillImage" />
        <dc:title></dc:title>
      </cc:Work>
    </rdf:RDF>
  </metadata>
  <g
     inkscape:label="Vrstva 1"
     inkscape:groupmode="layer"
     id="layer1">
    <path
       style="fill:none;stroke:#000000;stroke-width:0.09375;stroke-linecap:butt;stroke-linejoin:miter;stroke-opacity:1;stroke-miterlimit:3.79999995;stroke-dasharray:none"
       d="m 92.807765,350.14836 75.287935,70.55283 99.9104,-105.11899 59.66213,57.7681 34.09265,-59.18863 54.45353,81.91706 58.24161,-58.71512 90.91373,105.59251 88.54618,-105.119 1.42053,152.94341 C 604.80548,414.81232 472.65583,407.34125 417.16144,473.26069 345.05876,386.16984 214.16244,382.55537 167.14867,448.63822 141.73837,436.51078 117.30476,429.74575 95.648822,440.11507 Z"
       id="path3778"
       inkscape:connector-curvature="0"
       sodipodi:nodetypes="cccccccccccccc"
       inkscape:export-filename="C:\Users\zajic\Desktop\diplomka\DP_Zajicova_Zuzana\Assets\obrázky\pozadí\path981.png"
       inkscape:export-xdpi="90"
       inkscape:export-ydpi="90" />
    <path
       style="fill:none;stroke:#000000;stroke-width:0.09375;stroke-linecap:butt;stroke-linejoin:miter;stroke-opacity:1;stroke-miterlimit:3.79999995;stroke-dasharray:none"
       d="m 93.754781,379.0324 15.152289,6.15562 10.89071,-10.4172 v 0"
       id="path3780"
       inkscape:connector-curvature="0"
       inkscape:export-filename="C:\Users\zajic\Desktop\diplomka\DP_Zajicova_Zuzana\Assets\obrázky\pozadí\path981.png"
       inkscape:export-xdpi="90"
       inkscape:export-ydpi="90" />
    <path
       style="fill:none;stroke:#000000;stroke-width:0.09375;stroke-linecap:butt;stroke-linejoin:miter;stroke-opacity:1;stroke-miterlimit:3.79999995;stroke-dasharray:none"
       d="m 204.44449,382.22125 52.27204,-13.61213 36.1478,15.55806 16.7642,-27.36074"
       id="path3782"
       inkscape:connector-curvature="0"
       sodipodi:nodetypes="cccc"
       inkscape:export-filename="C:\Users\zajic\Desktop\diplomka\DP_Zajicova_Zuzana\Assets\obrázky\pozadí\path981.png"
       inkscape:export-xdpi="90"
       inkscape:export-ydpi="90" />
    <path
       style="fill:none;stroke:#000000;stroke-width:0.09375;stroke-linecap:butt;stroke-linejoin:miter;stroke-opacity:1;stroke-miterlimit:3.79999995;stroke-dasharray:none"
       d="m 341.75338,350.29298 5.32872,-0.61814 5.20859,11.36422 12.78475,-17.99334 9.94369,3.31456 4.49834,-5.91886"
       id="path3784"
       inkscape:connector-curvature="0"
       sodipodi:nodetypes="cccccc"
       inkscape:export-filename="C:\Users\zajic\Desktop\diplomka\DP_Zajicova_Zuzana\Assets\obrázky\pozadí\path981.png"
       inkscape:export-xdpi="90"
       inkscape:export-ydpi="90" />
    <path
       style="fill:none;stroke:#000000;stroke-width:0.09375;stroke-linecap:butt;stroke-linejoin:miter;stroke-opacity:1;stroke-miterlimit:3.79999995;stroke-dasharray:none"
       d="m 444.62496,368.1417 14.67877,-9.9437 18.94036,14.20528 7.10264,-14.67878 10.4172,4.26159"
       id="path3786"
       inkscape:connector-curvature="0"
       sodipodi:nodetypes="ccccc"
       inkscape:export-filename="C:\Users\zajic\Desktop\diplomka\DP_Zajicova_Zuzana\Assets\obrázky\pozadí\path981.png"
       inkscape:export-xdpi="90"
       inkscape:export-ydpi="90" />
    <path
       style="fill:none;stroke:#000000;stroke-width:0.09375;stroke-linecap:butt;stroke-linejoin:miter;stroke-opacity:1;stroke-miterlimit:3.79999995;stroke-dasharray:none"
       d="m 609.8796,390.39662 8.04965,-4.73509 15.6258,15.15229 20.36088,-17.99335"
       id="path3788"
       inkscape:connector-curvature="0"
       sodipodi:nodetypes="cccc"
       inkscape:export-filename="C:\Users\zajic\Desktop\diplomka\DP_Zajicova_Zuzana\Assets\obrázky\pozadí\path981.png"
       inkscape:export-xdpi="90"
       inkscape:export-ydpi="90" />
    <path
       style="fill:none;stroke:#000000;stroke-width:0.09375;stroke-linecap:butt;stroke-linejoin:miter;stroke-opacity:1;stroke-miterlimit:3.79999995;stroke-dasharray:none"
       d="m 268.0061,315.5822 3.78807,88.07268"
       id="path3790"
       inkscape:connector-curvature="0"
       inkscape:export-filename="C:\Users\zajic\Desktop\diplomka\DP_Zajicova_Zuzana\Assets\obrázky\pozadí\path981.png"
       inkscape:export-xdpi="90"
       inkscape:export-ydpi="90" />
    <path
       style="fill:none;stroke:#000000;stroke-width:0.09375;stroke-linecap:butt;stroke-linejoin:miter;stroke-opacity:1;stroke-miterlimit:3.79999995;stroke-dasharray:none"
       d="m 361.76088,314.16167 5.6821,115.5362"
       id="path3792"
       inkscape:connector-curvature="0"
       inkscape:export-filename="C:\Users\zajic\Desktop\diplomka\DP_Zajicova_Zuzana\Assets\obrázky\pozadí\path981.png"
       inkscape:export-xdpi="90"
       inkscape:export-ydpi="90" />
    <path
       style="fill:none;stroke:#000000;stroke-width:0.09375;stroke-linecap:butt;stroke-linejoin:miter;stroke-opacity:1;stroke-miterlimit:3.79999995;stroke-dasharray:none"
       d="m 474.45602,337.36361 -0.4735,100.38391"
       id="path3794"
       inkscape:connector-curvature="0"
       inkscape:export-filename="C:\Users\zajic\Desktop\diplomka\DP_Zajicova_Zuzana\Assets\obrázky\pozadí\path981.png"
       inkscape:export-xdpi="90"
       inkscape:export-ydpi="90" />
    <path
       style="fill:none;stroke:#000000;stroke-width:0.09375;stroke-linecap:butt;stroke-linejoin:miter;stroke-opacity:1;stroke-miterlimit:3.79999995;stroke-dasharray:none"
       d="M 95.648822,440.11507 94.701797,536.7109 H 657.23049 l -1.89403,-45.93037"
       id="path3796"
       inkscape:connector-curvature="0"
       inkscape:export-filename="C:\Users\zajic\Desktop\diplomka\DP_Zajicova_Zuzana\Assets\obrázky\pozadí\path981.png"
       inkscape:export-xdpi="90"
       inkscape:export-ydpi="90" />
    <path
       style="fill:#96dc46;fill-opacity:1;stroke-width:0.09375;stroke-miterlimit:3.79999995;stroke-dasharray:none;filter:url(#filter1207);stroke:#000000;stroke-opacity:1"
       d="m 240.74199,446.71274 c -14.35982,-2.07753 -22.29919,-3.34788 -40.49504,-14.26042 -5.6913,-3.41324 -9.98237,-8.10959 -5.16693,-9.55273 0.85369,-1.02863 16.22733,-7.71088 21.97827,-9.95954 10.21885,-3.99564 22.06974,-6.94754 34.46233,-8.58411 8.53805,-1.12754 32.91446,-1.12381 41.43203,0.007 17.16896,2.27804 36.97743,7.61626 51.37573,13.84532 8.66794,3.74996 20.99449,10.20898 20.26364,10.61798 -0.36443,0.20396 -2.60468,7.4596 -8.45071,8.8895 -30.14396,7.373 -87.13241,13.64832 -68.89702,16.35113 142.65929,21.14471 -29.96134,-4.16846 -35.6116,-4.98593 z"
       id="path5192"
       inkscape:connector-curvature="0"
       sodipodi:nodetypes="cccsscscsscc"
       inkscape:export-filename="C:\Users\zajic\Desktop\diplomka\DP_Zajicova_Zuzana\Assets\obrázky\pozadí\path981.png"
       inkscape:export-xdpi="90"
       inkscape:export-ydpi="90" />
    <path
       style="fill:#96dc46;fill-opacity:1;stroke-width:0.09375;stroke-miterlimit:3.79999995;stroke-dasharray:none;stroke:#000000;stroke-opacity:1"
       d="m 614.60331,476.98355 c -58.71323,-2.10045 -103.2048,-8.78908 -144.30187,-26.04558 -4.10177,-1.72232 -7.22102,-5.18698 -7.22102,-5.38432 0,-0.47446 -5.31555,-3.69076 -2.6043,-4.34791 0,0 -0.42015,-5.16371 1.18709,-5.77383 5.50601,-2.09011 38.93181,-6.20655 49.47839,-7.46623 7.75538,-0.9263 30.98689,-0.77711 38.82773,0.24935 19.09184,2.49936 36.61349,9.98295 52.69122,17.06009 14.74505,6.49052 30.93413,20.96232 40.11655,31.99114 v 0 l -12.31124,-0.0778 c -6.77118,-0.0428 -13.90933,-0.13501 -15.86255,-0.20488 z"
       id="path5198"
       inkscape:connector-curvature="0"
       sodipodi:nodetypes="cssccsssccccc"
       inkscape:export-filename="C:\Users\zajic\Desktop\diplomka\DP_Zajicova_Zuzana\Assets\obrázky\pozadí\path981.png"
       inkscape:export-xdpi="90"
       inkscape:export-ydpi="90" />
    <path
       style="fill:#3c8c00;fill-opacity:1;stroke-width:0.09375;stroke-miterlimit:3.79999995;stroke-dasharray:none;stroke:#000000;stroke-opacity:1"
       d="m 96.232263,510.41771 c 0.169331,-13.60747 0.426628,-26.12586 0.571772,-27.81866 l 0.263887,-3.07781 10.735838,-0.02 c 9.87095,-0.0184 11.23177,-0.12519 16.89148,-1.32564 10.9089,-2.31384 20.73193,-6.12956 28.25121,-10.9741 4.99893,-3.22071 10.64182,-9.11934 12.90178,-13.48649 1.01079,-1.95322 1.86941,-3.59628 1.90805,-3.65124 0.0386,-0.0549 4.85511,4.64656 10.70323,10.44781 13.27996,13.17351 20.95447,19.34202 33.24992,26.72514 32.67159,19.61851 69.4747,24.80695 108.22112,15.2568 15.08542,-3.71823 26.4952,-8.0011 42.93971,-16.11825 12.07362,-5.95964 20.94261,-11.09888 34.26273,-19.85396 l 8.21972,-5.40268 3.86086,3.99271 c 2.12347,2.19599 4.77442,5.01171 5.891,6.25715 l 2.03013,2.26444 -0.0295,-1.62714 c 0.70308,-0.50934 6.00054,-7.57635 6.8376,-5.90224 l -0.83706,-1.67411 30.85347,15.9797 c 37.32021,19.32897 49.66115,24.00604 66.99181,29.38662 24.18232,7.50779 41.49452,10.18607 65.88897,10.19336 20.86214,0.007 36.81092,-2.01956 60.04833,-7.62727 4.37929,-1.05682 8.07583,-1.80796 8.21462,-1.6692 0.13874,0.13876 0.43658,4.36861 0.66178,9.39967 0.22525,5.03106 0.52981,10.47912 0.67688,12.10681 l 0.26734,2.95943 H 376.31667 95.924378 Z"
       id="path5200"
       inkscape:connector-curvature="0"
       sodipodi:nodetypes="scccccccssssscscccccsscsccccccs"
       inkscape:export-filename="C:\Users\zajic\Desktop\diplomka\DP_Zajicova_Zuzana\Assets\obrázky\pozadí\path981.png"
       inkscape:export-xdpi="90"
       inkscape:export-ydpi="90" />
    <path
       style="fill:#50a000;fill-opacity:1;stroke-width:0.09375;stroke-miterlimit:3.79999995;stroke-dasharray:none;stroke:#000000;stroke-opacity:1"
       d="m 271.81577,508.55728 c -36.57356,-2.69434 -74.16301,-20.6118 -102.9303,-51.80092 -2.70404,-2.93168 -0.89857,-7.88488 -0.89857,-8.14253 0,-0.87406 7.1243,-8.96505 11.50391,-13.06486 4.95818,-4.64142 12.2612,-10.34668 14.15914,-11.0614 1.5243,-0.57402 3.00845,0.13001 12.64463,5.99806 18.18756,11.07552 31.0081,15.35184 50.10495,16.71263 22.96646,1.63653 52.78666,-2.54841 98.59446,-13.83663 9.5515,-2.35373 10.78469,-4.45671 12.44899,-3.66376 4.0134,1.91224 11.41082,7.85274 19.77862,14.58438 6.0998,4.90721 20.15725,17.47503 19.77945,18.08626 -0.3617,0.58538 -13.90948,8.2545 -19.42438,11.53501 -10.2655,6.10639 -31.47854,16.27099 -42.61584,20.72973 -24.3153,9.73453 -51.28886,15.53415 -73.14506,13.92403 z"
       id="path5202"
       inkscape:connector-curvature="0"
       sodipodi:nodetypes="sssscssscccscs"
       inkscape:export-filename="C:\Users\zajic\Desktop\diplomka\DP_Zajicova_Zuzana\Assets\obrázky\pozadí\path981.png"
       inkscape:export-xdpi="90"
       inkscape:export-ydpi="90" />
    <path
       style="fill:#50a000;fill-opacity:1;stroke-width:0.09375;stroke-miterlimit:3.79999995;stroke-dasharray:none;stroke:#000000;stroke-opacity:1"
       d="m 566.54215,519.93093 c -30.83831,-3.12746 -57.24928,-11.58431 -96.12234,-30.77858 -12.2427,-6.04506 -49.24598,-23.87696 -46.47698,-23.0488 -0.55526,-0.54843 4.87123,-12.50566 11.20056,-16.71978 4.66616,-3.10678 23.06655,-8.74271 24.14553,-8.74271 0.33893,0 4.04742,5.73057 8.2411,7.526 43.86234,18.77865 92.11923,27.53353 158.67426,28.78705 l 16.57282,0.31215 v 0 c 1.6928,1.92902 13.41914,9.41635 12.72888,12.06039 l -0.79281,3.03684 0.3038,5.27201 c 0.16709,2.8996 0.30478,7.01337 0.30596,9.14173 l 0.003,3.86973 -1.5389,0.49076 c -10.94569,3.49066 -34.56778,7.81893 -49.27073,9.02784 -8.18162,0.67272 -30.37879,0.53557 -37.97331,-0.23463 z"
       id="path5204"
       inkscape:connector-curvature="0"
       sodipodi:nodetypes="csccsssccscscccccc"
       inkscape:export-filename="C:\Users\zajic\Desktop\diplomka\DP_Zajicova_Zuzana\Assets\obrázky\pozadí\path981.png"
       inkscape:export-xdpi="90"
       inkscape:export-ydpi="90" />
    <path
       style="fill:#50a000;fill-opacity:1;stroke-width:0.09375;stroke-miterlimit:3.79999995;stroke-dasharray:none;stroke:#000000;stroke-opacity:1"
       d="m 96.800766,478.52809 -1.775663,-0.18574 9.38e-4,-6.71892 c 5.34e-4,-3.69541 0.140878,-12.29654 0.311878,-19.11364 l 0.310903,-12.39472 4.352228,-1.44318 c 15.98227,-5.29962 34.49859,-5.25781 58.23747,4.88837 3.77623,1.61399 5.21541,2.57809 5.44307,2.80305 10.8855,-1.67082 1.26305,10.71859 -1.50305,13.77523 -8.43365,9.31948 -27.06308,17.91643 -44.59163,20.36124 -4.86892,0.67909 -16.88484,-0.5549 -21.643788,-1.0527 z"
       id="path5206"
       inkscape:connector-curvature="0"
       sodipodi:nodetypes="cccsccscsccc"
       inkscape:export-filename="C:\Users\zajic\Desktop\diplomka\DP_Zajicova_Zuzana\Assets\obrázky\pozadí\path981.png"
       inkscape:export-xdpi="90"
       inkscape:export-ydpi="90" />
    <path
       style="fill:none;stroke:#000000;stroke-width:0.09375;stroke-linecap:butt;stroke-linejoin:miter;stroke-opacity:1;stroke-miterlimit:3.79999995;stroke-dasharray:none"
       d="m 168.0957,420.70118 13.25825,13.25827 v -1.42053"
       id="path5224"
       inkscape:connector-curvature="0"
       inkscape:export-filename="C:\Users\zajic\Desktop\diplomka\DP_Zajicova_Zuzana\Assets\obrázky\pozadí\path981.png"
       inkscape:export-xdpi="90"
       inkscape:export-ydpi="90" />
    <path
       style="fill:#ffffff;fill-opacity:0.99607843;stroke-width:0.1;stroke-miterlimit:3.79999995;stroke-dasharray:none;stroke:#000000;stroke-opacity:1"
       d="m 173.71022,475.65796 c -6.68553,-3.13978 -18.09343,-7.36588 -24.37033,-9.02807 -16.08739,-4.26011 -30.13412,-4.28064 -42.057,-0.0615 -2.27495,0.80504 -4.23469,1.36529 -4.35498,1.245 -0.28522,-0.28522 -2.13126,-56.82165 -1.9565,-59.9194 l 0.13369,-2.36985 7.31678,3.00119 c 4.02423,1.65066 7.53417,3.0012 7.79988,3.0012 0.26571,0 2.81549,-2.2952 5.66619,-5.10044 2.8507,-2.80523 5.38948,-5.02126 5.64173,-4.92449 0.79249,0.30401 46.39077,43.12689 55.5185,52.13929 l 8.70702,8.59701 -4.70636,4.82262 c -2.5885,2.65244 -5.68165,6.12951 -6.87367,7.72681 -1.19201,1.5973 -2.19682,2.8869 -2.23289,2.86576 -0.0361,-0.0211 -1.9405,-0.91895 -4.23206,-1.99516 z"
       id="path5226"
       inkscape:connector-curvature="0"
       transform="scale(0.9375)"
       inkscape:export-filename="C:\Users\zajic\Desktop\diplomka\DP_Zajicova_Zuzana\Assets\obrázky\pozadí\path981.png"
       inkscape:export-xdpi="90"
       inkscape:export-ydpi="90" />
    <path
       style="fill:#ffffff;fill-opacity:0.99607843;stroke-width:0.1;stroke-miterlimit:3.79999995;stroke-dasharray:none;stroke:#000000;stroke-opacity:1"
       d="m 171.3107,474.64347 c -8.20147,-3.67026 -21.5618,-8.16836 -28.53681,-9.60765 -3.63578,-0.75024 -7.92369,-1.17329 -13.63706,-1.34545 -9.56409,-0.2882 -14.86538,0.405 -21.76227,2.84561 -2.32537,0.82288 -4.33003,1.39407 -4.4548,1.2693 -0.2941,-0.29411 -2.2593,-61.81081 -1.98341,-62.08671 0.11509,-0.11509 3.18069,1.00583 6.81243,2.49094 3.63174,1.48511 7.09468,2.8562 7.69542,3.04687 0.90443,0.28706 2.00065,-0.53601 6.37536,-4.78674 2.90572,-2.82337 5.49011,-5.0566 5.74309,-4.96274 0.79156,0.29371 45.30358,42.09317 54.97016,51.62029 l 9.2018,9.06904 -4.75108,4.94996 c -2.6131,2.72248 -5.70162,6.20892 -6.86338,7.74766 -1.16175,1.53874 -2.1418,2.77302 -2.17787,2.74284 -0.0361,-0.0301 -3.02028,-1.37711 -6.63158,-2.99322 z"
       id="path5228"
       inkscape:connector-curvature="0"
       transform="scale(0.9375)"
       inkscape:export-filename="C:\Users\zajic\Desktop\diplomka\DP_Zajicova_Zuzana\Assets\obrázky\pozadí\path981.png"
       inkscape:export-xdpi="90"
       inkscape:export-ydpi="90" />
    <path
       style="fill:#ffffff;fill-opacity:0.99607843;stroke-width:0.1;stroke-miterlimit:3.79999995;stroke-dasharray:none;stroke:#000000;stroke-opacity:1"
       d="m 174.5937,476.09473 c -17.45342,-8.04904 -31.57629,-11.91828 -45.20433,-12.38463 -9.20125,-0.31486 -14.64642,0.38924 -21.9464,2.83784 -2.37466,0.79652 -4.41535,1.35376 -4.53487,1.2383 -0.11952,-0.11546 -0.3835,-5.15028 -0.58663,-11.18848 -1.06307,-31.60041 -1.57555,-50.68876 -1.3665,-50.8978 0.12869,-0.1287 3.57743,1.14092 7.66385,2.82138 l 7.42987,3.05538 1.87211,-1.50236 c 1.02967,-0.8263 3.45702,-3.11043 5.39411,-5.07585 1.9371,-1.96541 3.7285,-3.57348 3.9809,-3.57348 0.2524,0 3.31643,2.67059 6.80895,5.93465 30.95204,28.9273 40.46541,37.91807 48.45309,45.79141 l 9.22685,9.09477 -3.72777,3.8085 c -2.05027,2.09468 -5.03888,5.3995 -6.64136,7.34404 -1.60248,1.94454 -3.05428,3.68737 -3.22624,3.87295 -0.17195,0.18557 -1.78998,-0.34391 -3.59563,-1.17662 z"
       id="path5230"
       inkscape:connector-curvature="0"
       transform="scale(0.9375)"
       inkscape:export-filename="C:\Users\zajic\Desktop\diplomka\DP_Zajicova_Zuzana\Assets\obrázky\pozadí\path981.png"
       inkscape:export-xdpi="90"
       inkscape:export-ydpi="90" />
    <path
       style="fill:#e6e6e6;fill-opacity:0.99607843;stroke-width:0.1;stroke-miterlimit:3.79999995;stroke-dasharray:none;stroke:#000000;stroke-opacity:1"
       d="m 174.5937,476.12086 c -6.28447,-2.91796 -17.20714,-7.04881 -23.197,-8.77286 -9.88421,-2.84498 -14.36791,-3.48807 -24.53271,-3.51867 -9.75105,-0.0294 -13.74101,0.56954 -20.38945,3.06051 -1.76928,0.66289 -3.28709,1.20526 -3.37292,1.20526 -0.0858,0 -0.28194,-1.19324 -0.43579,-2.65165 -0.4138,-3.92265 -2.01264,-59.44171 -1.72023,-59.73413 0.13768,-0.13768 3.61599,1.12288 7.72958,2.80124 l 7.47925,3.05156 1.31417,-1.13923 c 0.7228,-0.62657 3.16452,-2.9346 5.42606,-5.12896 2.26155,-2.19435 4.35781,-3.90572 4.65836,-3.80305 0.83278,0.28451 42.35838,39.24727 53.96541,50.63483 l 10.23557,10.04203 -4.35538,4.57676 c -2.39546,2.51722 -5.48178,6.01008 -6.85849,7.76191 -1.37671,1.75182 -2.53918,3.17471 -2.58327,3.16196 -0.0441,-0.0127 -1.55751,-0.70913 -3.36316,-1.54751 z"
       id="path5232"
       inkscape:connector-curvature="0"
       transform="scale(0.9375)"
       inkscape:export-filename="C:\Users\zajic\Desktop\diplomka\DP_Zajicova_Zuzana\Assets\obrázky\pozadí\path981.png"
       inkscape:export-xdpi="90"
       inkscape:export-ydpi="90" />
    <path
       style="fill:none;stroke:#000000;stroke-width:0.09375;stroke-linecap:butt;stroke-linejoin:miter;stroke-opacity:1;stroke-miterlimit:3.79999995;stroke-dasharray:none"
       d="m 327.66823,373.3503 39.30125,41.19528"
       id="path5236"
       inkscape:connector-curvature="0"
       inkscape:export-filename="C:\Users\zajic\Desktop\diplomka\DP_Zajicova_Zuzana\Assets\obrázky\pozadí\path981.png"
       inkscape:export-xdpi="90"
       inkscape:export-ydpi="90" />
    <path
       style="fill:none;stroke:#000000;stroke-width:0.09375;stroke-linecap:butt;stroke-linejoin:miter;stroke-opacity:1;stroke-miterlimit:3.79999995;stroke-dasharray:none"
       d="m 416.21441,396.07873 -48.77143,33.61914"
       id="path5238"
       inkscape:connector-curvature="0"
       inkscape:export-filename="C:\Users\zajic\Desktop\diplomka\DP_Zajicova_Zuzana\Assets\obrázky\pozadí\path981.png"
       inkscape:export-xdpi="90"
       inkscape:export-ydpi="90" />
    <path
       style="fill:#e6e6e6;fill-opacity:0.99607843;stroke-width:0.1;stroke-miterlimit:3.79999995;stroke-dasharray:none;stroke:#000000;stroke-opacity:1"
       d="m 388.39504,456.35736 c -5.91735,-3.40266 -20.25826,-10.22669 -27.27412,-12.97822 -20.58861,-8.07459 -42.00493,-12.74664 -64.01842,-13.96586 -4.1063,-0.22742 -6.45309,-0.55868 -6.47662,-0.9142 -0.29314,-4.4285 -1.18116,-27.57937 -1.05789,-27.57927 0.0924,8e-5 5.2515,2.17991 11.46479,4.84406 6.21329,2.66415 11.48809,4.72574 11.72179,4.58131 0.23369,-0.14443 4.38558,-6.73577 9.2264,-14.64741 l 8.8015,-14.3848 7.00209,6.61645 c 6.9621,6.57865 17.40739,17.29313 40.59291,41.63902 l 12.13143,12.73858 0.33219,7.67476 c 0.1827,4.22112 0.2753,7.70918 0.20576,7.75125 -0.0695,0.0421 -1.26285,-0.57698 -2.65181,-1.37567 z"
       id="path5240"
       inkscape:connector-curvature="0"
       transform="scale(0.9375)"
       inkscape:export-filename="C:\Users\zajic\Desktop\diplomka\DP_Zajicova_Zuzana\Assets\obrázky\pozadí\path981.png"
       inkscape:export-xdpi="90"
       inkscape:export-ydpi="90" />
    <path
       style="fill:#e6e6e6;fill-opacity:0.99607843;stroke-width:0.1;stroke-miterlimit:3.79999995;stroke-dasharray:none;stroke:#000000;stroke-opacity:1"
       d="m 392.46993,453.29182 c -0.16437,-1.9976 -1.08379,-20.22376 -2.04315,-40.50257 -0.95936,-20.27881 -1.86114,-38.46156 -2.00395,-40.4061 -0.19601,-2.669 -0.0749,-3.77798 0.49403,-4.52472 0.74213,-0.97401 0.82956,-0.96432 5.6977,0.63134 2.7192,0.89129 5.16842,1.62053 5.44271,1.62053 0.27429,0 1.25632,-1.25006 2.1823,-2.77792 0.92598,-1.52785 1.82632,-2.77172 2.00075,-2.76414 0.72222,0.0313 38.59897,57.61583 38.16069,58.01613 -0.25734,0.23504 -10.4684,7.30693 -22.69124,15.71531 -12.22285,8.40838 -23.28482,16.03861 -24.58217,16.95606 l -2.35881,1.66809 z"
       id="path5242"
       inkscape:connector-curvature="0"
       transform="scale(0.9375)"
       inkscape:export-filename="C:\Users\zajic\Desktop\diplomka\DP_Zajicova_Zuzana\Assets\obrázky\pozadí\path981.png"
       inkscape:export-xdpi="90"
       inkscape:export-ydpi="90" />
    <path
       style="fill:#e6e6e6;fill-opacity:0.99607843;stroke-width:0.1;stroke-miterlimit:3.79999995;stroke-dasharray:none;stroke:#000000;stroke-opacity:1"
       d="m 506.33167,440.39274 c 7.3e-4,-13.23738 0.15043,-28.66994 0.33267,-34.29458 l 0.33134,-10.22662 1.70332,1.29918 1.70331,1.29918 3.89867,-8.03133 3.89866,-8.03133 4.04061,0.9631 4.04061,0.9631 31.71373,36.89406 c 17.44255,20.29173 31.64782,36.94581 31.56727,37.00906 -0.0806,0.0633 -2.41931,-0.19605 -5.19723,-0.57625 -7.18919,-0.98394 -22.60837,-1.49389 -32.7692,-1.08375 -13.53483,0.54633 -30.57889,3.3892 -42.86597,7.14986 l -2.39911,0.73428 10e-4,-24.06796 z"
       id="path5244"
       inkscape:connector-curvature="0"
       transform="scale(0.9375)"
       inkscape:export-filename="C:\Users\zajic\Desktop\diplomka\DP_Zajicova_Zuzana\Assets\obrázky\pozadí\path981.png"
       inkscape:export-xdpi="90"
       inkscape:export-ydpi="90" />
    <path
       style="fill:#f2f2f2;fill-opacity:0.99607843;stroke-width:0.1;stroke-miterlimit:3.79999995;stroke-dasharray:none;stroke:#000000;stroke-opacity:1"
       d="m 186.48291,455.0818 c -3.25972,-3.26823 -5.92676,-6.07838 -5.92676,-6.24477 0,-0.1664 8.59202,-9.3428 19.09338,-20.39201 l 19.09337,-20.08947 27.49991,-7.16935 27.49992,-7.16934 3.37709,1.42933 c 1.8574,0.78614 5.06223,2.19728 7.12184,3.13587 l 3.74473,1.70653 0.34027,10.29094 c 0.18714,5.66002 0.47966,12.16603 0.65004,14.45782 l 0.30977,4.16688 -4.99395,0.005 c -2.74668,0.003 -7.72137,0.24033 -11.05487,0.5277 -30.7487,2.65074 -57.98093,12.82131 -77.19457,28.8303 -1.62159,1.35112 -3.10249,2.45659 -3.29089,2.45659 -0.18839,0 -3.00957,-2.674 -6.26928,-5.94223 z"
       id="path5246"
       inkscape:connector-curvature="0"
       transform="scale(0.9375)"
       inkscape:export-filename="C:\Users\zajic\Desktop\diplomka\DP_Zajicova_Zuzana\Assets\obrázky\pozadí\path981.png"
       inkscape:export-xdpi="90"
       inkscape:export-ydpi="90" />
    <path
       style="fill:#f2f2f2;fill-opacity:0.99607843;stroke-width:0.1;stroke-miterlimit:3.79999995;stroke-dasharray:none;stroke:#000000;stroke-opacity:1"
       d="m 370.12142,418.74801 -19.67415,-20.58825 7.04483,-12.25696 7.04484,-12.25696 h 2.6101 2.6101 l 2.74845,6.10636 c 1.51165,3.35849 2.88794,6.19257 3.05844,6.29794 0.1705,0.10538 2.79508,-3.2947 5.8324,-7.55572 l 5.5224,-7.7473 1.65962,34.07332 c 0.91279,18.74033 1.56006,34.17289 1.43837,34.29458 -0.12168,0.12168 -9.07462,-9.04347 -19.8954,-20.36701 z"
       id="path5248"
       inkscape:connector-curvature="0"
       transform="scale(0.9375)"
       inkscape:export-filename="C:\Users\zajic\Desktop\diplomka\DP_Zajicova_Zuzana\Assets\obrázky\pozadí\path981.png"
       inkscape:export-xdpi="90"
       inkscape:export-ydpi="90" />
    <path
       style="fill:#f2f2f2;fill-opacity:0.99607843;stroke-width:0.1;stroke-miterlimit:3.79999995;stroke-dasharray:none;stroke:#000000;stroke-opacity:1"
       d="m 440.20867,498.16911 c -11.56236,-13.03823 -25.84401,-25.25604 -41.33406,-35.36087 -3.39284,-2.2133 -6.0023,-4.16647 -5.7988,-4.34038 0.2035,-0.17392 12.00717,-8.31554 26.23039,-18.0925 l 25.86041,-17.77628 14.32546,-14.62764 c 7.87901,-8.04519 14.50574,-14.62763 14.72608,-14.62763 0.22033,0 3.79544,-2.28848 7.94467,-5.08551 4.14924,-2.79703 7.72665,-5.01305 7.94979,-4.92449 0.22315,0.0886 3.76471,2.66114 7.87015,5.71685 l 7.46443,5.55584 -0.31532,19.1929 c -0.17343,10.5561 -0.31564,26.36937 -0.31603,35.14062 l -5.1e-4,15.94771 -5.17703,1.91444 c -19.86442,7.34571 -36.26769,17.77658 -49.90205,31.7328 l -4.824,4.93787 -4.70337,-5.30373 z"
       id="path5250"
       inkscape:connector-curvature="0"
       transform="scale(0.9375)"
       inkscape:export-filename="C:\Users\zajic\Desktop\diplomka\DP_Zajicova_Zuzana\Assets\obrázky\pozadí\path981.png"
       inkscape:export-xdpi="90"
       inkscape:export-ydpi="90" />
    <path
       style="fill:#f2f2f2;fill-opacity:0.99607843;stroke-width:0.1;stroke-miterlimit:3.79999995;stroke-dasharray:none;stroke:#000000;stroke-opacity:1"
       d="m 694.45595,515.92674 c -4.68836,-6.19844 -15.40184,-17.1484 -21.95551,-22.44013 -14.91115,-12.03993 -34.01808,-22.15182 -53.28555,-28.20011 -3.3335,-1.04642 -6.25104,-2.06684 -6.48341,-2.26759 -0.23238,-0.20076 8.93855,-11.47091 20.37984,-25.04479 20.7245,-24.58745 20.81148,-24.68193 23.24572,-25.24983 l 2.44338,-0.57004 8.36407,8.06239 c 4.60024,4.43432 8.58236,7.98646 8.84918,7.89365 0.26681,-0.0928 5.05967,-4.22157 10.6508,-9.17501 5.59113,-4.95344 10.24459,-8.92735 10.34103,-8.83091 0.23157,0.23157 1.3678,110.06798 1.14098,110.2948 -0.0964,0.0964 -1.75709,-1.91625 -3.69053,-4.47243 z"
       id="path5252"
       inkscape:connector-curvature="0"
       transform="scale(0.9375)"
       inkscape:export-filename="C:\Users\zajic\Desktop\diplomka\DP_Zajicova_Zuzana\Assets\obrázky\pozadí\path981.png"
       inkscape:export-xdpi="90"
       inkscape:export-ydpi="90" />
    <path
       style="opacity:0;fill:#666666;stroke:#000000;stroke-width:1.01015258;stroke-opacity:1"
       d="m 257.26457,527.8674 c -11.23243,-1.38073 -22.96844,-4.52979 -29.87485,-8.01613 -8.68975,-4.38657 -24.78807,-16.91295 -35.32935,-27.49038 -13.2778,-13.32333 -13.0417,-12.81738 -8.71063,-18.66611 4.32182,-5.83623 11.32843,-12.59014 19.01891,-18.33297 l 5.7167,-4.26891 6.91021,4.40351 c 16.52238,10.52882 26.71442,15.22202 41.45797,19.09044 7.84321,2.0579 11.26528,2.33441 29.09185,2.35073 12.22567,0.0112 23.19457,-0.50447 27.7792,-1.30595 27.42096,-4.79369 38.17212,-6.96098 56.46985,-11.38355 l 20.60944,-4.98132 4.39764,2.57719 c 8.28095,4.85296 35.70076,27.71942 35.70076,29.77228 0,2.80966 -63.5023,22.5905 -93.64702,29.17084 -29.6611,6.47478 -61.4857,9.30587 -79.59068,7.08033 z"
       id="path961"
       inkscape:connector-curvature="0"
       transform="scale(0.9375)"
       inkscape:export-filename="C:\Users\zajic\Desktop\diplomka\DP_Zajicova_Zuzana\Assets\obrázky\pozadí\path981.png"
       inkscape:export-xdpi="90"
       inkscape:export-ydpi="90" />
    <path
       style="opacity:0;fill:#666666;stroke:#000000;stroke-width:1.01015258;stroke-opacity:1"
       d="m 257.97309,527.86923 c -10.89232,-1.14856 -23.13612,-4.35289 -30.41047,-7.95874 -11.83158,-5.86484 -31.22417,-21.86435 -43.05778,-35.52406 l -5.11084,-5.89951 5.04362,-6.32126 c 5.5286,-6.9291 7.65832,-8.93016 17.22452,-16.18398 6.1428,-4.65793 6.52883,-4.80303 8.80694,-3.31036 16.47522,10.79498 31.14419,17.88614 44.36766,21.44787 9.40079,2.53209 11.53804,2.72242 30.80966,2.74383 18.04758,0.02 22.77486,-0.33242 36.79446,-2.74336 17.22619,-2.96238 41.81522,-8.17271 58.35281,-12.36478 l 10.18197,-2.58099 5.24726,3.48399 c 6.81656,4.52593 20.83253,15.80435 28.64061,23.04661 4.96897,4.60889 5.89833,5.93901 4.79146,6.85762 -1.94477,1.61403 -46.68671,16.29526 -64.36756,21.12102 -45.85884,12.51657 -80.15377,17.05009 -107.31432,14.1861 z"
       id="path963"
       inkscape:connector-curvature="0"
       transform="scale(0.9375)"
       inkscape:export-filename="C:\Users\zajic\Desktop\diplomka\DP_Zajicova_Zuzana\Assets\obrázky\pozadí\path981.png"
       inkscape:export-xdpi="90"
       inkscape:export-ydpi="90" />
    <path
       style="opacity:0;fill:#666666;stroke:#000000;stroke-width:1.01015258;stroke-opacity:1"
       d="m 257.97309,527.86923 c -10.89232,-1.14856 -23.13612,-4.35289 -30.41047,-7.95874 -11.83158,-5.86484 -31.22417,-21.86435 -43.05778,-35.52406 l -5.11084,-5.89951 5.04362,-6.32126 c 5.5286,-6.9291 7.65832,-8.93016 17.22452,-16.18398 6.1428,-4.65793 6.52883,-4.80303 8.80694,-3.31036 16.47522,10.79498 31.14419,17.88614 44.36766,21.44787 9.40079,2.53209 11.53804,2.72242 30.80966,2.74383 18.04758,0.02 22.77486,-0.33242 36.79446,-2.74336 17.22619,-2.96238 41.81522,-8.17271 58.35281,-12.36478 l 10.18197,-2.58099 5.24726,3.48399 c 6.81656,4.52593 20.83253,15.80435 28.64061,23.04661 4.96897,4.60889 5.89833,5.93901 4.79146,6.85762 -1.94477,1.61403 -46.68671,16.29526 -64.36756,21.12102 -45.85884,12.51657 -80.15377,17.05009 -107.31432,14.1861 z"
       id="path965"
       inkscape:connector-curvature="0"
       transform="scale(0.9375)"
       inkscape:export-filename="C:\Users\zajic\Desktop\diplomka\DP_Zajicova_Zuzana\Assets\obrázky\pozadí\path981.png"
       inkscape:export-xdpi="90"
       inkscape:export-ydpi="90" />
    <path
       style="opacity:0;fill:#666666;stroke:#000000;stroke-width:1.01015258;stroke-opacity:1"
       d="m 257.97309,527.86923 c -10.89232,-1.14856 -23.13612,-4.35289 -30.41047,-7.95874 -11.83158,-5.86484 -31.22417,-21.86435 -43.05778,-35.52406 l -5.11084,-5.89951 5.04362,-6.32126 c 5.5286,-6.9291 7.65832,-8.93016 17.22452,-16.18398 6.1428,-4.65793 6.52883,-4.80303 8.80694,-3.31036 16.47522,10.79498 31.14419,17.88614 44.36766,21.44787 9.40079,2.53209 11.53804,2.72242 30.80966,2.74383 18.04758,0.02 22.77486,-0.33242 36.79446,-2.74336 17.22619,-2.96238 41.81522,-8.17271 58.35281,-12.36478 l 10.18197,-2.58099 5.24726,3.48399 c 6.81656,4.52593 20.83253,15.80435 28.64061,23.04661 4.96897,4.60889 5.89833,5.93901 4.79146,6.85762 -1.94477,1.61403 -46.68671,16.29526 -64.36756,21.12102 -45.85884,12.51657 -80.15377,17.05009 -107.31432,14.1861 z"
       id="path967"
       inkscape:connector-curvature="0"
       transform="scale(0.9375)"
       inkscape:export-filename="C:\Users\zajic\Desktop\diplomka\DP_Zajicova_Zuzana\Assets\obrázky\pozadí\path981.png"
       inkscape:export-xdpi="90"
       inkscape:export-ydpi="90" />
    <path
       style="opacity:0;fill:#666666;stroke:#000000;stroke-width:1.01015258;stroke-opacity:1"
       d="m 73.521544,668.63252 c 0.0039,-12.08395 0.29071,-24.97215 0.637245,-28.64045 l 0.630064,-6.66964 12.747276,-0.65197 c 27.424941,-1.40267 50.709181,-11.81086 59.329751,-26.52075 l 2.58894,-4.41769 12.86972,12.17516 c 7.07835,6.69633 16.43717,14.84665 20.79738,18.11181 29.15237,21.8309 66.8062,32.70296 101.78696,29.38967 37.03902,-3.50823 67.69987,-15.86433 115.63021,-46.59812 2.14186,-1.3734 2.60599,-1.10738 8.82952,5.06084 l 6.56882,6.51042 4.02015,-3.92557 4.02015,-3.92558 32.6072,15.97087 c 37.71263,18.4715 50.7127,24.20156 66.44833,29.28855 29.10175,9.40797 48.37838,12.15595 79.78379,11.37359 22.28769,-0.55522 30.84369,-1.60322 52.84637,-6.47298 6.98861,-1.54676 12.26216,-2.26096 12.75017,-1.72676 0.45772,0.50104 1.10703,6.02488 1.44292,12.2752 l 0.6107,11.36422 H 371.99079 73.514363 Z"
       id="path969"
       inkscape:connector-curvature="0"
       transform="scale(0.9375)" />
    <path
       style="opacity:0;fill:#666666;stroke:#000000;stroke-width:1.01;stroke-opacity:1;stroke-miterlimit:4;stroke-dasharray:none"
       d="m 73.521544,668.63252 c 0.0039,-12.08395 0.29071,-24.97215 0.637245,-28.64045 l 0.630064,-6.66964 12.747276,-0.65197 c 27.424941,-1.40267 50.709181,-11.81086 59.329751,-26.52075 l 2.58894,-4.41769 12.86972,12.17516 c 7.07835,6.69633 16.43717,14.84665 20.79738,18.11181 29.15237,21.8309 66.8062,32.70296 101.78696,29.38967 37.03902,-3.50823 67.69987,-15.86433 115.63021,-46.59812 2.14186,-1.3734 2.60599,-1.10738 8.82952,5.06084 l 6.56882,6.51042 4.02015,-3.92557 4.02015,-3.92558 32.6072,15.97087 c 37.71263,18.4715 50.7127,24.20156 66.44833,29.28855 29.10175,9.40797 48.37838,12.15595 79.78379,11.37359 22.28769,-0.55522 30.84369,-1.60322 52.84637,-6.47298 6.98861,-1.54676 12.26216,-2.26096 12.75017,-1.72676 0.45772,0.50104 1.10703,6.02488 1.44292,12.2752 l 0.6107,11.36422 H 371.99079 73.514363 Z"
       id="path971"
       inkscape:connector-curvature="0"
       transform="scale(0.9375)" />
    <path
       style="opacity:0;fill:#666666;stroke:#000000;stroke-width:0.51012701;stroke-miterlimit:4;stroke-dasharray:none;stroke-opacity:1"
       d="m 102.00412,553.30415 c 0.18355,-10.20885 0.33406,-23.81134 0.33447,-30.22774 l 7.4e-4,-11.66619 6.9448,-0.34042 c 19.42086,-0.95198 34.99388,-4.14952 45.92859,-9.43034 7.80386,-3.7688 13.48313,-8.8003 20.08128,-17.79083 1.37309,-1.87095 2.6673,-3.40173 2.87602,-3.40173 0.20872,0 3.99322,4.03429 8.41,8.9651 15.56533,17.37683 23.73779,24.2366 36.22,30.40222 10.17697,5.02694 18.444,7.48146 31.81981,9.44744 7.50122,1.10254 30.07132,1.25898 39.64849,0.27482 32.93327,-3.38426 70.27387,-12.41251 117.19173,-28.33475 7.35377,-2.4956 15.46386,-5.31848 18.02244,-6.27306 l 4.65196,-1.73559 2.68207,2.84455 c 1.47514,1.5645 3.90722,4.26796 5.40462,6.00769 l 2.72254,3.16314 3.49639,-3.79449 c 1.92301,-2.08696 3.68609,-3.79448 3.91795,-3.79448 0.23186,0 3.33804,1.85554 6.90263,4.12341 23.44758,14.91794 51.14631,28.61364 75.23843,37.20182 52.03794,18.55009 104.76971,21.04473 158.08142,7.47851 l 6.62554,-1.686 0.33159,9.64989 c 0.18233,5.30745 0.46901,11.41135 0.637,13.56424 l 0.30547,3.91434 H 401.07523 101.67039 Z"
       id="path973"
       inkscape:connector-curvature="0"
       transform="scale(0.9375)"
       inkscape:export-filename="C:\Users\zajic\Desktop\diplomka\DP_Zajicova_Zuzana\Assets\obrázky\pozadí\path981.png"
       inkscape:export-xdpi="90"
       inkscape:export-ydpi="90" />
    <path
       style="opacity:0;fill:#008000;stroke:#000000;stroke-width:0.51012701;stroke-miterlimit:4;stroke-dasharray:none;stroke-opacity:1"
       d="m 101.92,555.32445 c 0.13298,-9.09768 0.37577,-22.73474 0.53954,-30.30457 l 0.29777,-13.76333 h 2.87203 c 9.01216,0 25.64615,-2.07703 34.39529,-4.29482 16.58749,-4.20471 25.17273,-9.72309 34.72882,-22.3228 l 3.5243,-4.6468 6.50276,7.40323 c 15.79846,17.98615 23.90046,25.0811 36.04972,31.56884 9.29274,4.96236 20.95083,8.53109 33.58757,10.28169 8.97981,1.24401 31.0556,1.25655 42.17387,0.024 35.98779,-3.98964 80.91014,-15.56814 132.10381,-34.04907 l 5.58221,-2.01518 4.64514,5.14025 c 2.55482,2.82714 4.94243,5.54682 5.30577,6.04373 0.60313,0.82482 0.9791,0.55021 4.31886,-3.15451 l 3.65822,-4.05799 4.89923,3.16804 c 47.78074,30.89687 96.60876,49.04749 144.06731,53.55348 30.75175,2.91975 64.58545,-0.0472 94.4944,-8.28634 l 3.3477,-0.92221 0.30673,4.87526 c 0.16874,2.68139 0.45522,8.79591 0.6367,13.58782 l 0.32986,8.71256 H 400.98292 101.67823 Z"
       id="path975"
       inkscape:connector-curvature="0"
       transform="scale(0.9375)"
       inkscape:export-filename="C:\Users\zajic\Desktop\diplomka\DP_Zajicova_Zuzana\Assets\obrázky\pozadí\path981.png"
       inkscape:export-xdpi="90"
       inkscape:export-ydpi="90" />
    <path
       style="opacity:0;fill:#008000;stroke:#000000;stroke-width:0.51012701;stroke-miterlimit:4;stroke-dasharray:none;stroke-opacity:1"
       d="m 101.92,555.32445 c 0.13298,-9.09768 0.37577,-22.73474 0.53954,-30.30457 l 0.29777,-13.76333 h 2.87203 c 9.01216,0 25.64615,-2.07703 34.39529,-4.29482 16.58749,-4.20471 25.17273,-9.72309 34.72882,-22.3228 l 3.5243,-4.6468 6.50276,7.40323 c 15.79846,17.98615 23.90046,25.0811 36.04972,31.56884 9.29274,4.96236 20.95083,8.53109 33.58757,10.28169 8.97981,1.24401 31.0556,1.25655 42.17387,0.024 35.98779,-3.98964 80.91014,-15.56814 132.10381,-34.04907 l 5.58221,-2.01518 4.64514,5.14025 c 2.55482,2.82714 4.94243,5.54682 5.30577,6.04373 0.60313,0.82482 0.9791,0.55021 4.31886,-3.15451 l 3.65822,-4.05799 4.89923,3.16804 c 47.78074,30.89687 96.60876,49.04749 144.06731,53.55348 30.75175,2.91975 64.58545,-0.0472 94.4944,-8.28634 l 3.3477,-0.92221 0.30673,4.87526 c 0.16874,2.68139 0.45522,8.79591 0.6367,13.58782 l 0.32986,8.71256 H 400.98292 101.67823 Z"
       id="path977"
       inkscape:connector-curvature="0"
       transform="scale(0.9375)"
       inkscape:export-filename="C:\Users\zajic\Desktop\diplomka\DP_Zajicova_Zuzana\Assets\obrázky\pozadí\path981.png"
       inkscape:export-xdpi="90"
       inkscape:export-ydpi="90" />
    <path
       style="opacity:0;fill:#008000;stroke:#000000;stroke-width:0.51012701;stroke-miterlimit:4;stroke-dasharray:none;stroke-opacity:1"
       d="m 101.92,555.32445 c 0.13298,-9.09768 0.37577,-22.73474 0.53954,-30.30457 l 0.29777,-13.76333 h 2.87203 c 9.01216,0 25.64615,-2.07703 34.39529,-4.29482 16.58749,-4.20471 25.17273,-9.72309 34.72882,-22.3228 l 3.5243,-4.6468 6.50276,7.40323 c 15.79846,17.98615 23.90046,25.0811 36.04972,31.56884 9.29274,4.96236 20.95083,8.53109 33.58757,10.28169 8.97981,1.24401 31.0556,1.25655 42.17387,0.024 35.98779,-3.98964 80.91014,-15.56814 132.10381,-34.04907 l 5.58221,-2.01518 4.64514,5.14025 c 2.55482,2.82714 4.94243,5.54682 5.30577,6.04373 0.60313,0.82482 0.9791,0.55021 4.31886,-3.15451 l 3.65822,-4.05799 4.89923,3.16804 c 47.78074,30.89687 96.60876,49.04749 144.06731,53.55348 30.75175,2.91975 64.58545,-0.0472 94.4944,-8.28634 l 3.3477,-0.92221 0.30673,4.87526 c 0.16874,2.68139 0.45522,8.79591 0.6367,13.58782 l 0.32986,8.71256 H 400.98292 101.67823 Z"
       id="path979"
       inkscape:connector-curvature="0"
       transform="scale(0.9375)"
       inkscape:export-filename="C:\Users\zajic\Desktop\diplomka\DP_Zajicova_Zuzana\Assets\obrázky\pozadí\path981.png"
       inkscape:export-xdpi="90"
       inkscape:export-ydpi="90" />
    <path
       style="opacity:0;fill:#008000;stroke:#000000;stroke-width:0.51012701;stroke-miterlimit:4;stroke-dasharray:none;stroke-opacity:1"
       d="m 101.92,555.32445 c 0.13298,-9.09768 0.37577,-22.73474 0.53954,-30.30457 l 0.29777,-13.76333 h 2.87203 c 9.01216,0 25.64615,-2.07703 34.39529,-4.29482 16.58749,-4.20471 25.17273,-9.72309 34.72882,-22.3228 l 3.5243,-4.6468 6.50276,7.40323 c 15.79846,17.98615 23.90046,25.0811 36.04972,31.56884 9.29274,4.96236 20.95083,8.53109 33.58757,10.28169 8.97981,1.24401 31.0556,1.25655 42.17387,0.024 35.98779,-3.98964 80.91014,-15.56814 132.10381,-34.04907 l 5.58221,-2.01518 4.64514,5.14025 c 2.55482,2.82714 4.94243,5.54682 5.30577,6.04373 0.60313,0.82482 0.9791,0.55021 4.31886,-3.15451 l 3.65822,-4.05799 4.89923,3.16804 c 47.78074,30.89687 96.60876,49.04749 144.06731,53.55348 30.75175,2.91975 64.58545,-0.0472 94.4944,-8.28634 l 3.3477,-0.92221 0.30673,4.87526 c 0.16874,2.68139 0.45522,8.79591 0.6367,13.58782 l 0.32986,8.71256 H 400.98292 101.67823 Z"
       id="path981"
       inkscape:connector-curvature="0"
       transform="scale(0.9375)"
       inkscape:export-filename="C:\Users\zajic\Desktop\diplomka\DP_Zajicova_Zuzana\Assets\obrázky\pozadí\path981.png"
       inkscape:export-xdpi="90"
       inkscape:export-ydpi="90" />
    <path
       style="opacity:0;fill:#008000;stroke:#000000;stroke-width:0.72142857;stroke-miterlimit:4;stroke-dasharray:none;stroke-opacity:1"
       d="m 107.92726,407.12614 -7.27248,-2.99114 -0.3954,-5 c -0.21748,-2.75 -0.488888,-9.38865 -0.603137,-14.75256 l -0.207728,-9.75255 6.089895,5.60289 c 3.34944,3.08158 9.46489,8.80811 13.58989,12.72561 l 7.5,7.12273 -4.98084,5.06265 c -2.73946,2.78446 -5.31089,5.0426 -5.71428,5.01808 -0.4034,-0.0245 -4.00606,-1.39059 -8.00592,-3.03571 z"
       id="path1211"
       inkscape:connector-curvature="0"
       transform="scale(0.9375)" />
    <path
       style="opacity:0;fill:#008000;stroke:#000000;stroke-width:0.72142857;stroke-miterlimit:4;stroke-dasharray:none;stroke-opacity:1"
       d="m 107.77116,407.07925 -7.14286,-3.04338 -0.5457,-9.95044 c -0.300132,-5.47274 -0.460846,-12.03972 -0.357139,-14.59329 l 0.188558,-4.64285 12.500001,11.71863 c 6.875,6.44525 12.92148,12.10142 13.43662,12.56927 0.75362,0.68444 -0.0587,1.81403 -4.15752,5.78137 -2.80178,2.7119 -5.47326,4.99223 -5.93662,5.0674 -0.46336,0.0752 -4.05677,-1.23285 -7.98534,-2.90671 z"
       id="path1213"
       inkscape:connector-curvature="0"
       transform="scale(0.9375)" />
    <path
       style="opacity:0;fill:#008000;stroke:#000000;stroke-width:0.72142857;stroke-miterlimit:4;stroke-dasharray:none;stroke-opacity:1"
       d="m 224.94941,401.42538 c 2.73054,-2.96822 17.33961,-18.41114 32.46461,-34.3176 20.87998,-21.95878 27.61258,-28.63477 27.96767,-27.73252 0.49217,1.25056 2.95023,58.72279 2.52954,59.14348 -0.13412,0.13412 -3.11336,-1.03345 -6.62053,-2.5946 -3.50718,-1.56115 -6.83498,-2.84343 -7.39512,-2.84951 -0.81734,-0.009 -47.30326,11.79541 -52.5176,13.33593 -0.82079,0.24249 0.64652,-1.80566 3.57143,-4.98518 z"
       id="path1215"
       inkscape:connector-curvature="0"
       transform="scale(0.9375)" />
    <path
       style="fill:#ffffff;stroke:#ffffff;stroke-width:0.9375px;stroke-linecap:butt;stroke-linejoin:miter;stroke-opacity:1"
       d="m 92.807765,350.14836 0.947016,28.88404 15.152289,6.15562 10.89071,-10.4172 z"
       id="path1217"
       inkscape:connector-curvature="0" />
    <path
       style="fill:#ffffff;stroke:#ffffff;stroke-width:0.9375px;stroke-linecap:butt;stroke-linejoin:miter;stroke-opacity:1"
       d="m 268.0061,315.5822 -63.56161,66.63905 52.27203,-13.61213 36.14781,15.55805 16.7642,-27.36073 z"
       id="path1219"
       inkscape:connector-curvature="0" />
    <path
       style="fill:#ffffff;stroke:#ffffff;stroke-width:0.9375px;stroke-linecap:butt;stroke-linejoin:miter;stroke-opacity:1"
       d="m 361.76088,314.16167 -20.0075,36.1313 h 4.89394 l 5.64337,10.74609 12.78475,-17.99334 9.94368,3.31455 4.49835,-5.91885 -17.75659,-26.27975"
       id="path1221"
       inkscape:connector-curvature="0" />
    <path
       style="fill:#ffffff;stroke:#ffffff;stroke-width:0.9375px;stroke-linecap:butt;stroke-linejoin:miter;stroke-opacity:1"
       d="m 474.45602,337.36361 -29.83106,30.77809 14.67877,-9.9437 18.94036,14.20528 7.56807,-13.89649 9.95177,3.47929 z"
       id="path1223"
       inkscape:connector-curvature="0" />
    <path
       style="fill:#ffffff;stroke:#ffffff;stroke-width:0.9375px;stroke-linecap:butt;stroke-linejoin:miter;stroke-opacity:1"
       d="m 653.91593,337.83712 -44.03633,52.5595 8.04965,-4.73509 15.6258,15.15229 20.36087,-17.99335 z"
       id="path1225"
       inkscape:connector-curvature="0" />
    <path
       style="opacity:0;fill:#008000;stroke:#000000;stroke-width:0.51012701;stroke-miterlimit:4;stroke-dasharray:none;stroke-opacity:1"
       d="m 107.99684,406.78015 c -3.88909,-1.61906 -7.12303,-3.24975 -7.18653,-3.62374 -0.18808,-1.10768 -1.074445,-27.43685 -0.928582,-27.58313 0.127192,-0.12755 15.775332,14.01839 23.247552,21.01584 l 3.51569,3.29231 -5.25908,4.95929 c -2.89249,2.72762 -5.49733,4.94218 -5.78853,4.92125 -0.2912,-0.0209 -3.71144,-1.36275 -7.60052,-2.98182 z"
       id="path1227"
       inkscape:connector-curvature="0"
       transform="scale(0.9375)" />
    <path
       style="opacity:0;fill:#008000;stroke:#000000;stroke-width:0.51012701;stroke-miterlimit:4;stroke-dasharray:none;stroke-opacity:1"
       d="m 108.04734,406.79946 -7.3236,-2.95091 -0.38042,-10.78759 c -0.20923,-5.93318 -0.32288,-12.28746 -0.25254,-14.12063 l 0.12788,-3.33304 12.37437,11.30898 c 6.8059,6.21994 12.70911,11.64239 13.11824,12.04989 0.65453,0.65194 0.1401,1.34695 -4.28368,5.78739 -2.76514,2.77556 -5.25908,5.0353 -5.54209,5.02164 -0.283,-0.0136 -3.81017,-1.35274 -7.83816,-2.97573 z"
       id="path1229"
       inkscape:connector-curvature="0"
       transform="scale(0.9375)" />
    <path
       style="opacity:0;fill:#008000;stroke:#000000;stroke-width:0.51012701;stroke-miterlimit:4;stroke-dasharray:none;stroke-opacity:1"
       d="m 108.04734,406.79946 -7.3236,-2.95091 -0.38042,-10.78759 c -0.20923,-5.93318 -0.32288,-12.28746 -0.25254,-14.12063 l 0.12788,-3.33304 12.37437,11.30898 c 6.8059,6.21994 12.70911,11.64239 13.11824,12.04989 0.65453,0.65194 0.1401,1.34695 -4.28368,5.78739 -2.76514,2.77556 -5.25908,5.0353 -5.54209,5.02164 -0.283,-0.0136 -3.81017,-1.35274 -7.83816,-2.97573 z"
       id="path1231"
       inkscape:connector-curvature="0"
       transform="scale(0.9375)" />
    <path
       style="opacity:0;fill:#008000;stroke:#000000;stroke-width:0.51012701;stroke-miterlimit:4;stroke-dasharray:none;stroke-opacity:1"
       d="m 108.04734,406.79946 -7.3236,-2.95091 -0.38042,-10.78759 c -0.20923,-5.93318 -0.32288,-12.28746 -0.25254,-14.12063 l 0.12788,-3.33304 12.37437,11.30898 c 6.8059,6.21994 12.70911,11.64239 13.11824,12.04989 0.65453,0.65194 0.1401,1.34695 -4.28368,5.78739 -2.76514,2.77556 -5.25908,5.0353 -5.54209,5.02164 -0.283,-0.0136 -3.81017,-1.35274 -7.83816,-2.97573 z"
       id="path1233"
       inkscape:connector-curvature="0"
       transform="scale(0.9375)" />
    <path
       style="opacity:0;fill:#008000;stroke:#000000;stroke-width:0.51012701;stroke-miterlimit:4;stroke-dasharray:none;stroke-opacity:1"
       d="m 108.04734,406.79946 -7.3236,-2.95091 -0.38042,-10.78759 c -0.20923,-5.93318 -0.32288,-12.28746 -0.25254,-14.12063 l 0.12788,-3.33304 12.37437,11.30898 c 6.8059,6.21994 12.70911,11.64239 13.11824,12.04989 0.65453,0.65194 0.1401,1.34695 -4.28368,5.78739 -2.76514,2.77556 -5.25908,5.0353 -5.54209,5.02164 -0.283,-0.0136 -3.81017,-1.35274 -7.83816,-2.97573 z"
       id="path1235"
       inkscape:connector-curvature="0"
       transform="scale(0.9375)" />
    <path
       style="opacity:0;fill:#008000;stroke:#000000;stroke-width:0.51012701;stroke-miterlimit:4;stroke-dasharray:none;stroke-opacity:1"
       d="m 108.04734,406.79946 -7.3236,-2.95091 -0.38042,-10.78759 c -0.20923,-5.93318 -0.32288,-12.28746 -0.25254,-14.12063 l 0.12788,-3.33304 12.37437,11.30898 c 6.8059,6.21994 12.70911,11.64239 13.11824,12.04989 0.65453,0.65194 0.1401,1.34695 -4.28368,5.78739 -2.76514,2.77556 -5.25908,5.0353 -5.54209,5.02164 -0.283,-0.0136 -3.81017,-1.35274 -7.83816,-2.97573 z"
       id="path1237"
       inkscape:connector-curvature="0"
       transform="scale(0.9375)" />
    <path
       style="opacity:0;fill:#008000;stroke:#000000;stroke-width:0.51012701;stroke-miterlimit:4;stroke-dasharray:none;stroke-opacity:1"
       d="m 108.04734,406.79946 -7.3236,-2.95091 -0.38042,-10.78759 c -0.20923,-5.93318 -0.32288,-12.28746 -0.25254,-14.12063 l 0.12788,-3.33304 12.37437,11.30898 c 6.8059,6.21994 12.70911,11.64239 13.11824,12.04989 0.65453,0.65194 0.1401,1.34695 -4.28368,5.78739 -2.76514,2.77556 -5.25908,5.0353 -5.54209,5.02164 -0.283,-0.0136 -3.81017,-1.35274 -7.83816,-2.97573 z"
       id="path1239"
       inkscape:connector-curvature="0"
       transform="scale(0.9375)" />
  </g>
</svg>
