<?xml version="1.0" encoding="UTF-8" standalone="no"?>
<!-- Created with Inkscape (http://www.inkscape.org/) -->

<svg
   xmlns:dc="http://purl.org/dc/elements/1.1/"
   xmlns:cc="http://creativecommons.org/ns#"
   xmlns:rdf="http://www.w3.org/1999/02/22-rdf-syntax-ns#"
   xmlns:svg="http://www.w3.org/2000/svg"
   xmlns="http://www.w3.org/2000/svg"
   xmlns:sodipodi="http://sodipodi.sourceforge.net/DTD/sodipodi-0.dtd"
   xmlns:inkscape="http://www.inkscape.org/namespaces/inkscape"
   width="210mm"
   height="297mm"
   viewBox="0 0 744.09448819 1052.3622047"
   id="svg2"
   version="1.1"
   inkscape:version="0.92.4 (5da689c313, 2019-01-14)"
   sodipodi:docname="houba.svg"
   inkscape:export-filename="G:\obrázky\pozadí\houba.png"
   inkscape:export-xdpi="90"
   inkscape:export-ydpi="90">
  <defs
     id="defs4" />
  <sodipodi:namedview
     id="base"
     pagecolor="#ffffff"
     bordercolor="#666666"
     borderopacity="1.0"
     inkscape:pageopacity="0.0"
     inkscape:pageshadow="2"
     inkscape:zoom="1.4"
     inkscape:cx="242.02415"
     inkscape:cy="592.65314"
     inkscape:document-units="px"
     inkscape:current-layer="layer2"
     showgrid="false"
     inkscape:window-width="1920"
     inkscape:window-height="986"
     inkscape:window-x="-11"
     inkscape:window-y="-11"
     inkscape:window-maximized="1" />
  <metadata
     id="metadata7">
    <rdf:RDF>
      <cc:Work
         rdf:about="">
        <dc:format>image/svg+xml</dc:format>
        <dc:type
           rdf:resource="http://purl.org/dc/dcmitype/StillImage" />
        <dc:title></dc:title>
      </cc:Work>
    </rdf:RDF>
  </metadata>
  <g
     inkscape:groupmode="layer"
     id="layer2"
     inkscape:label="Vrstva 2"
     style="display:inline">
    <path
       style="fill:#008000;fill-rule:evenodd;stroke:#007300;stroke-width:1px;stroke-linecap:butt;stroke-linejoin:miter;stroke-opacity:1"
       d="m 247.04973,615.90451 c 4.25381,15.5189 2.72574,27.18321 14.14213,47.47717 l 35.35534,-2.0203 17.1726,-1.01016 3.03045,-55.55839 c -9.69176,6.83679 -17.89397,14.04597 -22.22335,22.22336 3.6598,-15.10352 -4.47604,-32.17297 -8.08122,-48.48732 -8.49801,21.17043 -13.71873,41.79464 -14.14214,61.6193 -4.59944,-8.08122 -10.06036,-16.16244 -25.25381,-24.24366 z"
       id="path4152"
       inkscape:connector-curvature="0"
       sodipodi:nodetypes="ccccccccc" />
    <path
       style="fill:#e6e6e6;fill-opacity:1;fill-rule:evenodd;stroke:#f2f396;stroke-width:1px;stroke-linecap:butt;stroke-linejoin:miter;stroke-opacity:1"
       d="m 310.41269,491.78882 c 11.51192,97.09925 -21.28447,149.59054 -18.4786,163.58343 3.84578,27.90084 80.18618,14.75766 88.94943,4.10189 2.28449,-39.32249 -17.78623,-95.74785 -16.27973,-153.35936 -10.07217,-3.61163 -14.96415,-9.93297 -22.45794,-15.69325 -4.54992,8.95618 -9.93707,18.90556 -19.61133,24.6008 -8.05229,-5.95541 -10.90007,-14.07403 -12.12183,-23.23351 z"
       id="path4148"
       inkscape:connector-curvature="0"
       sodipodi:nodetypes="ccccccc" />
    <path
       style="fill:#f2e9c8;fill-opacity:1;fill-rule:evenodd;stroke:#f3f396;stroke-width:1px;stroke-linecap:butt;stroke-linejoin:miter;stroke-opacity:1"
       d="m 310.11683,491.72754 c -10.67876,4.84143 -18.3769,14.15377 -32.44743,13.90754 1.34484,-9.53618 5.28679,-14.31394 11.94852,-22.99891 -12.12802,0.68892 -26.07127,5.9159 -36.36549,2.0203 4.36306,-9.4724 10.9704,-11.92404 20.57069,-12.11131 64.40463,18.51581 112.46913,3.2602 137.37024,-4.28572 4.01083,6.25579 9.76934,10.10652 11.0504,20.91734 -14.62308,5.60849 -29.62694,0.68129 -43.43656,-1.01015 1.81758,7.24789 -1.23588,14.49577 -4.04061,21.74366 -8.78471,-2.8793 -23.70125,-8.67063 -32.55947,-19.36622 -5.00796,10.96447 -11.62725,19.16666 -19.96846,24.41698 -5.37245,-5.47516 -8.57227,-9.01569 -12.12183,-23.23351 z"
       id="path4150"
       inkscape:connector-curvature="0"
       sodipodi:nodetypes="cccccccccccc" />
    <path
       style="fill:#ff0000;fill-opacity:1;fill-rule:evenodd;stroke:#f00000;stroke-width:1px;stroke-linecap:butt;stroke-linejoin:miter;stroke-opacity:1"
       d="m 192.93914,433.13869 c 6.09041,-60.91699 27.0754,-132.30018 138.3909,-146.47211 96.7453,-5.36886 152.98859,64.23683 140.4112,153.54318 -122.19062,72.38559 -221.03522,36.55652 -278.8021,-7.07107 z"
       id="path4156"
       inkscape:connector-curvature="0"
       sodipodi:nodetypes="cccc" />
    <circle
       style="opacity:1;fill:#ffffff;fill-opacity:1;stroke:#ffffff;stroke-width:1.04445434;stroke-miterlimit:4.19999981;stroke-dasharray:none;stroke-opacity:1"
       id="path4166"
       cx="251.02292"
       cy="380.10568"
       r="23.211281" />
    <path
       style="display:inline;opacity:1;fill:#ffffff;fill-opacity:1;fill-rule:evenodd;stroke:#ffffff;stroke-width:1px;stroke-linecap:butt;stroke-linejoin:miter;stroke-opacity:1"
       d="m 244.11772,319.70575 c 38.9436,20.2774 45.60622,-12.51517 43.77576,-23.44273 -16.00014,6.01699 -30.31448,12.44343 -43.77576,23.44273 z"
       id="path4222"
       inkscape:connector-curvature="0"
       sodipodi:nodetypes="ccc" />
    <path
       style="display:inline;opacity:1;fill:#ffffff;fill-opacity:1;fill-rule:evenodd;stroke:#ffffff;stroke-width:1px;stroke-linecap:butt;stroke-linejoin:miter;stroke-opacity:1"
       d="m 195.17857,416.46935 c 10.77616,0.94651 22.65681,-0.8682 20.53572,32.32142 -4.89554,-3.18722 -14.59276,-11.39342 -22.85189,-15.3033 0.57506,-7.44047 2.09302,-9.57765 2.31617,-17.01812 z"
       id="path4224"
       inkscape:connector-curvature="0"
       sodipodi:nodetypes="cccc" />
    <path
       style="display:inline;opacity:1;fill:#ffffff;fill-opacity:1;fill-rule:evenodd;stroke:#ffffff;stroke-width:1px;stroke-linecap:butt;stroke-linejoin:miter;stroke-opacity:1"
       d="m 322.59191,480.31869 c 4.31714,-10.00558 10.44533,-22.52143 24.55095,-23.67077 16.83887,2.59026 24.08118,11.54663 29.68618,20.22189 -16.37969,1.62083 -32.30907,7.45792 -54.23713,3.44888 z"
       id="path4226"
       inkscape:connector-curvature="0"
       sodipodi:nodetypes="cccc" />
    <path
       style="display:inline;opacity:1;fill:#ffffff;fill-opacity:1;fill-rule:evenodd;stroke:#ffffff;stroke-width:1px;stroke-linecap:butt;stroke-linejoin:miter;stroke-opacity:1"
       d="m 368.39286,289.32649 c 8.43452,24.18597 23.77497,27.10167 44.10714,14.64286 -13.5823,-6.56107 -27.69433,-12.32755 -44.10714,-14.64286 z"
       id="path4230"
       inkscape:connector-curvature="0"
       sodipodi:nodetypes="ccc" />
    <circle
       style="display:inline;opacity:1;fill:#ffffff;fill-opacity:1;stroke:#ffffff;stroke-width:1.04445434;stroke-miterlimit:4.19999981;stroke-dasharray:none;stroke-opacity:1"
       id="path4166-0"
       cx="390.92905"
       cy="422.02701"
       r="23.211281" />
    <circle
       style="display:inline;opacity:1;fill:#ffffff;fill-opacity:1;stroke:#ffffff;stroke-width:0.75550091;stroke-miterlimit:4.19999981;stroke-dasharray:none;stroke-opacity:1"
       id="path4166-00"
       cx="337.39096"
       cy="322.02194"
       r="16.789766" />
    <circle
       style="display:inline;opacity:1;fill:#ffffff;fill-opacity:1;stroke:#ffffff;stroke-width:0.79995531;stroke-miterlimit:4.19999981;stroke-dasharray:none;stroke-opacity:1"
       id="path4166-00-9"
       cx="292.94424"
       cy="433.6438"
       r="17.777691" />
    <circle
       style="display:inline;opacity:1;fill:#ffffff;fill-opacity:1;stroke:#ffffff;stroke-width:0.84440964;stroke-miterlimit:4.19999981;stroke-dasharray:none;stroke-opacity:1"
       id="path4166-00-0"
       cx="326.27927"
       cy="383.13611"
       r="18.765617" />
    <circle
       style="display:inline;opacity:1;fill:#ffffff;fill-opacity:1;stroke:#ffffff;stroke-width:0.75550091;stroke-miterlimit:4.19999981;stroke-dasharray:none;stroke-opacity:1"
       id="path4166-00-1"
       cx="396.98993"
       cy="360.40771"
       r="16.789766" />
    <circle
       style="display:inline;opacity:1;fill:#ffffff;fill-opacity:1;stroke:#ffffff;stroke-width:0.59991062;stroke-miterlimit:4.19999981;stroke-dasharray:none;stroke-opacity:1"
       id="path4166-00-15"
       cx="448.00266"
       cy="405.3595"
       r="13.332027" />
    <path
       style="display:inline;opacity:1;fill:#ffffff;fill-opacity:1;fill-rule:evenodd;stroke:#ffffff;stroke-width:1px;stroke-linecap:butt;stroke-linejoin:miter;stroke-opacity:1"
       d="m 441.78572,328.43363 c 9.57352,10.52282 17.97003,22.55893 22.85714,39.10714 -10.14183,-0.32429 -20.58015,0.66449 -27.5,-13.92857 -5.24946,-10.65855 0.25233,-17.73335 4.64286,-25.17857 z"
       id="path4228"
       inkscape:connector-curvature="0"
       sodipodi:nodetypes="cccc" />
    <path
       style="display:inline;fill:#008000;fill-rule:evenodd;stroke:#007300;stroke-width:0.4684217px;stroke-linecap:butt;stroke-linejoin:miter;stroke-opacity:1"
       d="m 198.60954,622.75677 c -0.32344,12.37903 -5.59003,20.71365 3.73966,40.99071 l 16.56121,-0.94636 8.04403,-0.47318 3.22253,-27.82777 c -8.16004,0.94128 -9.7766,6.67564 -12.21291,12.21292 1.5048,-6.86685 -1.66509,-14.94717 -3.78542,-22.71252 -5.95089,13.30015 -5.06429,21.2209 -6.62449,28.86383 -1.47901,-14.89267 -5.62117,-21.17693 -8.94461,-30.10763 z"
       id="path4152-1"
       inkscape:connector-curvature="0"
       sodipodi:nodetypes="ccccccccc" />
    <path
       style="display:inline;fill:#e6e6e6;fill-opacity:1;fill-rule:evenodd;stroke:#f2f396;stroke-width:0.4684217px;stroke-linecap:butt;stroke-linejoin:miter;stroke-opacity:1"
       d="m 233.76998,581.02755 c 5.39244,45.48339 -9.97011,70.07145 -8.65578,76.62603 1.80145,13.06936 37.56095,6.91281 41.66585,1.9214 1.0701,-18.41949 -8.33146,-44.85037 -7.62578,-71.83684 -4.71802,-1.69177 -7.00954,-4.65282 -10.51978,-7.35106 -2.13129,4.19527 -4.65474,8.85577 -9.18638,11.52355 -3.77187,-2.78965 -5.10582,-6.59258 -5.67813,-10.88308 z"
       id="path4148-0"
       inkscape:connector-curvature="0"
       sodipodi:nodetypes="ccccccc" />
    <path
       style="display:inline;fill:#f2e9c8;fill-opacity:1;fill-rule:evenodd;stroke:#f3f396;stroke-width:0.4684217px;stroke-linecap:butt;stroke-linejoin:miter;stroke-opacity:1"
       d="m 233.6314,580.99885 c -5.00217,2.26783 -8.60815,6.62992 -15.19909,6.51459 0.62995,-4.46695 2.47645,-6.70496 5.59695,-10.77319 -5.68103,0.3227 -12.21236,2.77113 -17.03438,0.94635 2.04375,-4.43708 5.13877,-5.58548 9.63575,-5.6732 30.16853,8.67321 52.68299,1.52714 64.3472,-2.00752 1.87876,2.93034 4.57617,4.73411 5.17625,9.79813 -6.84976,2.62714 -13.8779,0.31913 -20.34662,-0.47317 0.85139,3.39506 -0.57892,6.79013 -1.89271,10.1852 -4.11495,-1.34873 -11.10218,-4.06151 -15.25156,-9.07156 -2.34585,5.13599 -5.44647,8.97808 -9.35366,11.43745 -2.51658,-2.56469 -4.01545,-4.22316 -5.67813,-10.88308 z"
       id="path4150-8"
       inkscape:connector-curvature="0"
       sodipodi:nodetypes="cccccccccccc" />
    <path
       style="display:inline;fill:#ff0000;fill-opacity:1;fill-rule:evenodd;stroke:#f00000;stroke-width:0.4684217px;stroke-linecap:butt;stroke-linejoin:miter;stroke-opacity:1"
       d="m 178.74282,553.55455 c 2.85288,-28.53483 12.6827,-61.97227 64.8253,-68.6107 45.3176,-2.51489 71.66318,30.08992 65.77165,71.92295 -57.23673,33.90698 -103.53769,17.12387 -130.59695,-3.31225 z"
       id="path4156-4"
       inkscape:connector-curvature="0"
       sodipodi:nodetypes="cccc" />
    <path
       style="display:inline;opacity:1;fill:#ffffff;fill-opacity:1;fill-rule:evenodd;stroke:#ffffff;stroke-width:0.4684217px;stroke-linecap:butt;stroke-linejoin:miter;stroke-opacity:1"
       d="m 202.71598,500.42011 c 18.24202,9.49837 21.36293,-5.86238 20.50551,-10.98109 -7.49481,2.81849 -14.19996,5.82878 -20.50551,10.98109 z"
       id="path4222-7"
       inkscape:connector-curvature="0"
       sodipodi:nodetypes="ccc" />
    <path
       style="display:inline;opacity:1;fill:#ffffff;fill-opacity:1;fill-rule:evenodd;stroke:#ffffff;stroke-width:0.4684217px;stroke-linecap:butt;stroke-linejoin:miter;stroke-opacity:1"
       d="m 179.79182,545.74628 c 5.04778,0.44336 10.61294,-0.40669 9.61937,15.14005 -2.29317,-1.49296 -6.83556,-5.33693 -10.70432,-7.1684 0.26938,-3.48528 0.98042,-4.48638 1.08495,-7.97165 z"
       id="path4224-1"
       inkscape:connector-curvature="0"
       sodipodi:nodetypes="cccc" />
    <path
       style="display:inline;opacity:1;fill:#ffffff;fill-opacity:1;fill-rule:evenodd;stroke:#ffffff;stroke-width:0.4684217px;stroke-linecap:butt;stroke-linejoin:miter;stroke-opacity:1"
       d="m 239.47499,575.65469 c 2.02225,-4.68683 4.89282,-10.54952 11.5002,-11.0879 7.88769,1.21333 11.28015,5.40869 13.90565,9.47238 -7.67261,0.75923 -15.13427,3.49344 -25.40585,1.61552 z"
       id="path4226-8"
       inkscape:connector-curvature="0"
       sodipodi:nodetypes="cccc" />
    <path
       style="display:inline;opacity:1;fill:#ffffff;fill-opacity:1;fill-rule:evenodd;stroke:#ffffff;stroke-width:0.4684217px;stroke-linecap:butt;stroke-linejoin:miter;stroke-opacity:1"
       d="m 260.92915,486.18981 c 3.95092,11.32922 11.13671,12.695 20.66074,6.85902 -6.36224,-3.07334 -12.97263,-5.77449 -20.66074,-6.85902 z"
       id="path4230-9"
       inkscape:connector-curvature="0"
       sodipodi:nodetypes="ccc" />
    <circle
       style="display:inline;opacity:1;fill:#ffffff;fill-opacity:1;stroke:#ffffff;stroke-width:0.68902606;stroke-miterlimit:4.19999981;stroke-dasharray:none;stroke-opacity:1"
       id="path4166-0-7"
       cx="221.32071"
       cy="535.97168"
       r="15.31247" />
    <circle
       style="display:inline;opacity:1;fill:#ffffff;fill-opacity:1;stroke:#ffffff;stroke-width:0.44737002;stroke-miterlimit:4.19999981;stroke-dasharray:none;stroke-opacity:1"
       id="path4166-0-4"
       cx="258.97629"
       cy="517.17004"
       r="9.9420624" />
    <circle
       style="display:inline;opacity:1;fill:#ffffff;fill-opacity:1;stroke:#ffffff;stroke-width:0.52943909;stroke-miterlimit:4.19999981;stroke-dasharray:none;stroke-opacity:1"
       id="path4166-0-2"
       cx="292.93307"
       cy="544.64642"
       r="11.765914" />
  </g>
</svg>
