<?xml version="1.0" encoding="UTF-8" standalone="no"?>
<!-- Created with Inkscape (http://www.inkscape.org/) -->

<svg
   xmlns:dc="http://purl.org/dc/elements/1.1/"
   xmlns:cc="http://creativecommons.org/ns#"
   xmlns:rdf="http://www.w3.org/1999/02/22-rdf-syntax-ns#"
   xmlns:svg="http://www.w3.org/2000/svg"
   xmlns="http://www.w3.org/2000/svg"
   xmlns:sodipodi="http://sodipodi.sourceforge.net/DTD/sodipodi-0.dtd"
   xmlns:inkscape="http://www.inkscape.org/namespaces/inkscape"
   width="210mm"
   height="297mm"
   viewBox="0 0 744.09448819 1052.3622047"
   id="svg2"
   version="1.1"
   inkscape:version="0.92.4 (5da689c313, 2019-01-14)"
   sodipodi:docname="ker.svg"
   inkscape:export-filename="G:\obrázky\pozadí\ker.png"
   inkscape:export-xdpi="90"
   inkscape:export-ydpi="90">
  <defs
     id="defs4">
    <filter
       inkscape:collect="always"
       style="color-interpolation-filters:sRGB"
       id="filter4189"
       x="-0.0022704409"
       width="1.0045409"
       y="-0.0086871558"
       height="1.0173743">
      <feGaussianBlur
         inkscape:collect="always"
         stdDeviation="0.46790616"
         id="feGaussianBlur4191" />
    </filter>
  </defs>
  <sodipodi:namedview
     id="base"
     pagecolor="#ffffff"
     bordercolor="#666666"
     borderopacity="1.0"
     inkscape:pageopacity="0.0"
     inkscape:pageshadow="2"
     inkscape:zoom="1.979899"
     inkscape:cx="221.30565"
     inkscape:cy="386.84134"
     inkscape:document-units="px"
     inkscape:current-layer="layer2"
     showgrid="false"
     inkscape:window-width="1920"
     inkscape:window-height="986"
     inkscape:window-x="-11"
     inkscape:window-y="-11"
     inkscape:window-maximized="1" />
  <metadata
     id="metadata7">
    <rdf:RDF>
      <cc:Work
         rdf:about="">
        <dc:format>image/svg+xml</dc:format>
        <dc:type
           rdf:resource="http://purl.org/dc/dcmitype/StillImage" />
        <dc:title></dc:title>
      </cc:Work>
    </rdf:RDF>
  </metadata>
  <g
     inkscape:groupmode="layer"
     id="layer2"
     inkscape:label="Vrstva 2"
     style="display:inline">
    <path
       style="fill:#009800;fill-opacity:1;fill-rule:evenodd;stroke:#005c00;stroke-width:1px;stroke-linecap:butt;stroke-linejoin:miter;stroke-opacity:1;filter:url(#filter4189)"
       d="m 106.06602,798.30884 c 4.1528,24.04023 166.68519,12.90433 260.5261,14.8287 98.34719,2.01677 197.83459,10.46113 216.77098,-10.78809 5.04096,-5.59108 0.896,-9.8948 -3.53554,-12.62691 -6.42874,-2.50211 -8.22385,2.27719 -11.61675,4.54569 5.20873,-3.17598 10.48736,-13.82869 6.06091,-16.16244 -3.70558,-1.67517 -7.96306,-0.59078 -12.12183,0 18.35141,-4.41262 39.41079,-18.97021 37.37565,-37.88072 -1.79007,-12.4638 -21.00677,-33.5898 -43.94164,-28.28427 -18.60766,5.44121 -17.45407,15.15513 -19.1929,24.24366 -7.87696,-8.44375 -22.89679,-15.7283 -34.34518,6.56599 -6.64004,-11.28048 -14.37839,-7.40345 -22.22336,-5.05076 19.19805,-13.57664 29.88232,-28.01492 7.07107,-44.44672 -11.52771,-7.64902 -30.6426,-15.07482 -41.41626,25.25382 -3.55278,-13.91073 -13.8682,-13.25578 -29.7995,-0.50508 9.94146,-4.26506 12.96871,-24.92017 3.53554,-26.76904 -21.8845,-1.9008 -37.66442,-0.0625 -33.84011,31.8198 -3.62713,-3.37249 -16.2763,-4.25944 -23.73859,-1.01015 -4.94739,2.96659 -2.09055,9.61044 9.59645,20.20305 -6.82298,-0.46819 -13.08289,-3.2774 -14.14214,12.62691 -9.42809,-11.11168 -3.76728,-25.84469 -28.28427,-33.33503 -8.59027,-2.31375 -28.82309,3.87885 -36.36549,18.18274 -4.28445,8.60335 1.37393,14.15134 5.55584,19.69798 -5.15763,-2.05179 -8.80015,-9.02769 -15.65736,-5.55584 -7.16912,4.34185 -2.65481,9.37096 -2.52538,14.14213 -1.88002,-2.95094 -4.37592,-4.77274 -9.09138,-2.52538 0,0 4.62395,-7.74626 -1.01015,-11.11168 -7.43418,-3.05686 -9.23135,-0.4767 -11.61675,1.51523 0,0 25.29114,-37.99735 -13.63706,-59.09392 -14.02735,-6.46707 -30.76427,-8.60463 -52.52794,-1.01015 -13.9173,5.72439 -11.53372,20.61804 -4.04061,38.38579 -4.89022,-8.1243 -10.39995,-15.2161 -23.23351,-10.10152 -10.05671,5.4006 -1.04902,16.06315 7.07107,21.2132 -14.27505,-3.96171 -18.68782,0 -18.68782,0 -3.84176,3.06851 -8.59327,4.19642 -6.56599,17.67767 -3.13922,-6.9772 -10.10388,-14.98098 -19.69798,-8.08122 -3.24051,2.44894 -15.69107,11.21881 9.09138,24.24366 0,0 -30.54471,-10.24604 -30.80966,9.59645 z"
       id="path4148"
       inkscape:connector-curvature="0"
       sodipodi:nodetypes="csccccccccccccccccccccccccccccccccccccc" />
    <path
       style="display:inline;fill:#00a500;fill-opacity:1;fill-rule:evenodd;stroke:#00a500;stroke-width:1px;stroke-linecap:butt;stroke-linejoin:miter;stroke-opacity:1"
       d="m 206.5762,706.89003 c -20.31796,15.90452 -1.55676,23.53346 17.67767,31.06219 4.74159,1.81946 21.13842,3.67321 27.77919,15.15229 8.22014,-6.6193 5.9702,-15.37417 4.54569,-18.94036 -15.06718,-37.33884 -41.47559,-33.29275 -50.00255,-27.27412 z"
       id="path4150"
       inkscape:connector-curvature="0"
       sodipodi:nodetypes="ccccc" />
    <path
       style="display:inline;fill:#00a500;fill-opacity:1;fill-rule:evenodd;stroke:#00a500;stroke-width:1px;stroke-linecap:butt;stroke-linejoin:miter;stroke-opacity:1"
       d="m 130.56222,796.036 c 1.38607,8.28796 7.87203,9.26756 16.92005,10.6066 8.9583,1.31963 16.49918,-3.03038 24.74874,-4.54569 5.1195,8.21405 19.18975,10.76513 27.77919,8.08122 12.01859,-3.88369 23.2524,-8.23824 33.58758,-13.13198 8.20575,7.51361 17.93571,14.07016 40.4061,12.62691 15.5226,-1.81063 20.30316,-16.95769 17.17259,-24.74874 -3.12452,-5.48973 -11.55835,-4.53244 -19.1929,-4.54569 -0.99765,-10.67682 -4.56682,-16.67258 -9.59645,-17.17259 -8.90064,-0.74377 -17.35289,0.26478 -22.98097,7.07107 -5.13819,-22.02018 -29.17886,-33.28178 -39.14341,-31.31473 -10.86033,2.04527 -19.54891,1.41986 -18.68782,24.74873 -8.03531,-3.99089 -15.58642,-2.80924 -21.2132,1.76777 -5.29594,3.84933 -10.29587,8.00814 -8.33376,19.44544 -5.80838,-0.38224 -11.61675,-3.32892 -17.42513,2.52538 -3.59059,3.41125 -4.47227,5.64137 -4.04061,8.5863 z"
       id="path4152"
       inkscape:connector-curvature="0"
       sodipodi:nodetypes="cccccccccccccccc" />
    <path
       style="display:inline;fill:#00a500;fill-opacity:1;fill-rule:evenodd;stroke:#00a500;stroke-width:1px;stroke-linecap:butt;stroke-linejoin:miter;stroke-opacity:1"
       d="m 355.32116,781.13625 c -5.06091,-18.38792 -14.88836,-23.75378 -30.30458,-25.00128 -6.49678,0.44038 -22.41769,7.2679 -4.79822,31.81981 -9.41885,0.88101 -14.53073,5.52477 -14.14214,11.11167 2.10604,10.92299 10.86785,14.90449 28.53681,9.59645 l 21.97082,-7.82868 c 4.37259,4.23573 7.65568,9.64118 18.18274,8.83884 8.67234,-0.90036 15.83254,-4.22291 19.69798,-12.12184 8.97581,4.12978 15.42003,12.05693 27.77919,11.11168 13.83849,-2.23977 22.78531,-9.37121 28.53681,-19.69797 12.63013,-5.57738 23.72608,-13.96661 22.88906,-30.66172 0.68458,-8.45569 -25.57964,-35.53217 -44.44671,-16.92005 -9.05526,-7.19054 -16.3295,-10.54645 -24.90936,-8.22916 -9.10917,2.79676 -13.32156,8.94394 -13.38452,17.93021 -6.33968,-0.0662 -12.45556,-1.36331 -19.69798,3.53553 -8.54886,6.67513 -14.49185,15.0875 -15.9099,26.51651 z"
       id="path4154"
       inkscape:connector-curvature="0"
       sodipodi:nodetypes="cccccccccccccccc" />
    <path
       style="display:inline;fill:#00a500;fill-opacity:1;fill-rule:evenodd;stroke:#00a500;stroke-width:1px;stroke-linecap:butt;stroke-linejoin:miter;stroke-opacity:1"
       d="m 499.2679,772.29741 c -25.08063,-2.7058 -31.03839,9.00043 -32.57742,15.65737 -2.04025,7.77202 18.35231,19.25382 35.60787,11.36421 8.91831,12.33251 21.13435,11.59259 29.7995,9.59645 15.14004,2.85141 20.07434,-5.49671 19.1929,-11.61675 -0.37089,-4.74134 1.3328,-9.38218 -9.84899,-14.64722 26.5494,-10.37342 32.23075,-23.72798 32.32489,-37.88072 -1.32659,-9.78632 -13.59078,-11.97087 -19.1929,-7.57614 -12.0901,8.14961 -18.65698,13.09576 -20.20305,25.00128 -7.41456,-13.05069 -16.40513,-15.22496 -24.4962,-12.12183 -8.92587,3.94257 -14.03891,10.54032 -10.6066,22.22335 z"
       id="path4156"
       inkscape:connector-curvature="0"
       sodipodi:nodetypes="ccccccccccc" />
    <ellipse
       style="display:inline;opacity:1;fill:#00a500;fill-opacity:1;stroke:#00a500;stroke-width:1.04343569;stroke-miterlimit:4.19999981;stroke-dasharray:none;stroke-opacity:1"
       id="path4158"
       cx="468.39285"
       cy="717.89789"
       rx="12.656854"
       ry="14.978282" />
  </g>
</svg>
