<?xml version="1.0" encoding="UTF-8" standalone="no"?>
<!-- Created with Inkscape (http://www.inkscape.org/) -->

<svg
   xmlns:dc="http://purl.org/dc/elements/1.1/"
   xmlns:cc="http://creativecommons.org/ns#"
   xmlns:rdf="http://www.w3.org/1999/02/22-rdf-syntax-ns#"
   xmlns:svg="http://www.w3.org/2000/svg"
   xmlns="http://www.w3.org/2000/svg"
   xmlns:sodipodi="http://sodipodi.sourceforge.net/DTD/sodipodi-0.dtd"
   xmlns:inkscape="http://www.inkscape.org/namespaces/inkscape"
   width="210mm"
   height="297mm"
   viewBox="0 0 744.09448819 1052.3622047"
   id="svg4151"
   version="1.1"
   inkscape:version="0.92.4 (5da689c313, 2019-01-14)"
   sodipodi:docname="kopce.svg"
   inkscape:export-filename="C:\Users\zajic\Desktop\diplomka\DP_Zajicova_Zuzana\Assets\obrázky\pozadí\kopce2.png"
   inkscape:export-xdpi="90"
   inkscape:export-ydpi="90">
  <defs
     id="defs4153">
    <filter
       inkscape:collect="always"
       style="color-interpolation-filters:sRGB"
       id="filter1207"
       x="-0.017259658"
       width="1.0345193"
       y="-0.068845898"
       height="1.1376918">
      <feGaussianBlur
         inkscape:collect="always"
         stdDeviation="1.1850054"
         id="feGaussianBlur1209" />
    </filter>
  </defs>
  <sodipodi:namedview
     id="base"
     pagecolor="#ffffff"
     bordercolor="#666666"
     borderopacity="1.0"
     inkscape:pageopacity="0.0"
     inkscape:pageshadow="2"
     inkscape:zoom="1.4"
     inkscape:cx="414.5272"
     inkscape:cy="599.96617"
     inkscape:document-units="px"
     inkscape:current-layer="layer1"
     showgrid="false"
     inkscape:window-width="1920"
     inkscape:window-height="986"
     inkscape:window-x="-11"
     inkscape:window-y="-11"
     inkscape:window-maximized="1" />
  <metadata
     id="metadata4156">
    <rdf:RDF>
      <cc:Work
         rdf:about="">
        <dc:format>image/svg+xml</dc:format>
        <dc:type
           rdf:resource="http://purl.org/dc/dcmitype/StillImage" />
        <dc:title />
      </cc:Work>
    </rdf:RDF>
  </metadata>
  <g
     inkscape:label="Vrstva 1"
     inkscape:groupmode="layer"
     id="layer1">
    <path
       style="fill:none;stroke:#000000;stroke-width:0.09375;stroke-linecap:butt;stroke-linejoin:miter;stroke-opacity:1;stroke-miterlimit:3.79999995;stroke-dasharray:none"
       d="M 95.648822,440.11507 94.701797,536.7109 H 657.23049 l -1.89403,-45.93037"
       id="path3796"
       inkscape:connector-curvature="0"
       inkscape:export-filename="C:\Users\zajic\Desktop\diplomka\DP_Zajicova_Zuzana\Assets\obrázky\pozadí\path981.png"
       inkscape:export-xdpi="90"
       inkscape:export-ydpi="90" />
    <path
       style="fill:#96dc46;fill-opacity:1;stroke-width:0.09375;stroke-miterlimit:3.79999995;stroke-dasharray:none;filter:url(#filter1207);stroke:#000000;stroke-opacity:1"
       d="m 240.74199,446.71274 c -14.35982,-2.07753 -22.29919,-3.34788 -40.49504,-14.26042 -5.6913,-3.41324 -9.98237,-8.10959 -5.16693,-9.55273 0.85369,-1.02863 16.22733,-7.71088 21.97827,-9.95954 10.21885,-3.99564 22.06974,-6.94754 34.46233,-8.58411 8.53805,-1.12754 32.91446,-1.12381 41.43203,0.007 17.16896,2.27804 36.97743,7.61626 51.37573,13.84532 8.66794,3.74996 20.99449,10.20898 20.26364,10.61798 -0.36443,0.20396 -2.60468,7.4596 -8.45071,8.8895 -30.14396,7.373 -87.13241,13.64832 -68.89702,16.35113 142.65929,21.14471 -29.96134,-4.16846 -35.6116,-4.98593 z"
       id="path5192"
       inkscape:connector-curvature="0"
       sodipodi:nodetypes="cccsscscsscc"
       inkscape:export-filename="C:\Users\zajic\Desktop\diplomka\DP_Zajicova_Zuzana\Assets\obrázky\pozadí\path981.png"
       inkscape:export-xdpi="90"
       inkscape:export-ydpi="90" />
    <path
       style="fill:#96dc46;fill-opacity:1;stroke-width:0.09375;stroke-miterlimit:3.79999995;stroke-dasharray:none;stroke:#000000;stroke-opacity:1"
       d="m 614.60331,476.98355 c -58.71323,-2.10045 -103.2048,-8.78908 -144.30187,-26.04558 -4.10177,-1.72232 -7.22102,-5.18698 -7.22102,-5.38432 0,-0.47446 -5.31555,-3.69076 -2.6043,-4.34791 0,0 -0.42015,-5.16371 1.18709,-5.77383 5.50601,-2.09011 38.93181,-6.20655 49.47839,-7.46623 7.75538,-0.9263 30.98689,-0.77711 38.82773,0.24935 19.09184,2.49936 36.61349,9.98295 52.69122,17.06009 14.74505,6.49052 30.93413,20.96232 40.11655,31.99114 v 0 l -12.31124,-0.0778 c -6.77118,-0.0428 -13.90933,-0.13501 -15.86255,-0.20488 z"
       id="path5198"
       inkscape:connector-curvature="0"
       sodipodi:nodetypes="cssccsssccccc"
       inkscape:export-filename="C:\Users\zajic\Desktop\diplomka\DP_Zajicova_Zuzana\Assets\obrázky\pozadí\path981.png"
       inkscape:export-xdpi="90"
       inkscape:export-ydpi="90" />
    <path
       style="fill:#3c8c00;fill-opacity:1;stroke-width:0.09375;stroke-miterlimit:3.79999995;stroke-dasharray:none;stroke:#000000;stroke-opacity:1"
       d="m 96.232263,510.41771 c 0.169331,-13.60747 0.426628,-26.12586 0.571772,-27.81866 l 0.263887,-3.07781 10.735838,-0.02 c 9.87095,-0.0184 11.23177,-0.12519 16.89148,-1.32564 10.9089,-2.31384 20.73193,-6.12956 28.25121,-10.9741 4.99893,-3.22071 10.64182,-9.11934 12.90178,-13.48649 1.01079,-1.95322 1.86941,-3.59628 1.90805,-3.65124 0.0386,-0.0549 4.85511,4.64656 10.70323,10.44781 13.27996,13.17351 20.95447,19.34202 33.24992,26.72514 32.67159,19.61851 69.4747,24.80695 108.22112,15.2568 15.08542,-3.71823 26.4952,-8.0011 42.93971,-16.11825 12.07362,-5.95964 20.94261,-11.09888 34.26273,-19.85396 l 8.21972,-5.40268 3.86086,3.99271 c 2.12347,2.19599 4.77442,5.01171 5.891,6.25715 l 2.03013,2.26444 -0.0295,-1.62714 c 0.70308,-0.50934 6.00054,-7.57635 6.8376,-5.90224 l -0.83706,-1.67411 30.85347,15.9797 c 37.32021,19.32897 49.66115,24.00604 66.99181,29.38662 24.18232,7.50779 41.49452,10.18607 65.88897,10.19336 20.86214,0.007 36.81092,-2.01956 60.04833,-7.62727 4.37929,-1.05682 8.07583,-1.80796 8.21462,-1.6692 0.13874,0.13876 0.43658,4.36861 0.66178,9.39967 0.22525,5.03106 0.52981,10.47912 0.67688,12.10681 l 0.26734,2.95943 H 376.31667 95.924378 Z"
       id="path5200"
       inkscape:connector-curvature="0"
       sodipodi:nodetypes="scccccccssssscscccccsscsccccccs"
       inkscape:export-filename="C:\Users\zajic\Desktop\diplomka\DP_Zajicova_Zuzana\Assets\obrázky\pozadí\path981.png"
       inkscape:export-xdpi="90"
       inkscape:export-ydpi="90" />
    <path
       style="fill:#50a000;fill-opacity:1;stroke-width:0.09375;stroke-miterlimit:3.79999995;stroke-dasharray:none;stroke:#000000;stroke-opacity:1"
       d="m 271.81577,508.55728 c -36.57356,-2.69434 -74.16301,-20.6118 -102.9303,-51.80092 -2.70404,-2.93168 -0.89857,-7.88488 -0.89857,-8.14253 0,-0.87406 7.1243,-8.96505 11.50391,-13.06486 4.95818,-4.64142 12.2612,-10.34668 14.15914,-11.0614 1.5243,-0.57402 3.00845,0.13001 12.64463,5.99806 18.18756,11.07552 31.0081,15.35184 50.10495,16.71263 22.96646,1.63653 52.78666,-2.54841 98.59446,-13.83663 9.5515,-2.35373 10.78469,-4.45671 12.44899,-3.66376 4.0134,1.91224 11.41082,7.85274 19.77862,14.58438 6.0998,4.90721 20.15725,17.47503 19.77945,18.08626 -0.3617,0.58538 -13.90948,8.2545 -19.42438,11.53501 -10.2655,6.10639 -31.47854,16.27099 -42.61584,20.72973 -24.3153,9.73453 -51.28886,15.53415 -73.14506,13.92403 z"
       id="path5202"
       inkscape:connector-curvature="0"
       sodipodi:nodetypes="sssscssscccscs"
       inkscape:export-filename="C:\Users\zajic\Desktop\diplomka\DP_Zajicova_Zuzana\Assets\obrázky\pozadí\path981.png"
       inkscape:export-xdpi="90"
       inkscape:export-ydpi="90" />
    <path
       style="fill:#50a000;fill-opacity:1;stroke-width:0.09375;stroke-miterlimit:3.79999995;stroke-dasharray:none;stroke:#000000;stroke-opacity:1"
       d="m 566.54215,519.93093 c -30.83831,-3.12746 -57.24928,-11.58431 -96.12234,-30.77858 -12.2427,-6.04506 -49.24598,-23.87696 -46.47698,-23.0488 -0.55526,-0.54843 4.87123,-12.50566 11.20056,-16.71978 4.66616,-3.10678 23.06655,-8.74271 24.14553,-8.74271 0.33893,0 4.04742,5.73057 8.2411,7.526 43.86234,18.77865 92.11923,27.53353 158.67426,28.78705 l 16.57282,0.31215 v 0 c 1.6928,1.92902 13.41914,9.41635 12.72888,12.06039 l -0.79281,3.03684 0.3038,5.27201 c 0.16709,2.8996 0.30478,7.01337 0.30596,9.14173 l 0.003,3.86973 -1.5389,0.49076 c -10.94569,3.49066 -34.56778,7.81893 -49.27073,9.02784 -8.18162,0.67272 -30.37879,0.53557 -37.97331,-0.23463 z"
       id="path5204"
       inkscape:connector-curvature="0"
       sodipodi:nodetypes="csccsssccscscccccc"
       inkscape:export-filename="C:\Users\zajic\Desktop\diplomka\DP_Zajicova_Zuzana\Assets\obrázky\pozadí\path981.png"
       inkscape:export-xdpi="90"
       inkscape:export-ydpi="90" />
    <path
       style="fill:#50a000;fill-opacity:1;stroke-width:0.09375;stroke-miterlimit:3.79999995;stroke-dasharray:none;stroke:#000000;stroke-opacity:1"
       d="m 96.800766,478.52809 -1.775663,-0.18574 9.38e-4,-6.71892 c 5.34e-4,-3.69541 0.140878,-12.29654 0.311878,-19.11364 l 0.310903,-12.39472 4.352228,-1.44318 c 15.98227,-5.29962 34.49859,-5.25781 58.23747,4.88837 3.77623,1.61399 5.21541,2.57809 5.44307,2.80305 10.8855,-1.67082 1.26305,10.71859 -1.50305,13.77523 -8.43365,9.31948 -27.06308,17.91643 -44.59163,20.36124 -4.86892,0.67909 -16.88484,-0.5549 -21.643788,-1.0527 z"
       id="path5206"
       inkscape:connector-curvature="0"
       sodipodi:nodetypes="cccsccscsccc"
       inkscape:export-filename="C:\Users\zajic\Desktop\diplomka\DP_Zajicova_Zuzana\Assets\obrázky\pozadí\path981.png"
       inkscape:export-xdpi="90"
       inkscape:export-ydpi="90" />
    <path
       style="opacity:0;fill:#666666;stroke:#000000;stroke-width:1.01015258;stroke-opacity:1"
       d="m 257.26457,527.8674 c -11.23243,-1.38073 -22.96844,-4.52979 -29.87485,-8.01613 -8.68975,-4.38657 -24.78807,-16.91295 -35.32935,-27.49038 -13.2778,-13.32333 -13.0417,-12.81738 -8.71063,-18.66611 4.32182,-5.83623 11.32843,-12.59014 19.01891,-18.33297 l 5.7167,-4.26891 6.91021,4.40351 c 16.52238,10.52882 26.71442,15.22202 41.45797,19.09044 7.84321,2.0579 11.26528,2.33441 29.09185,2.35073 12.22567,0.0112 23.19457,-0.50447 27.7792,-1.30595 27.42096,-4.79369 38.17212,-6.96098 56.46985,-11.38355 l 20.60944,-4.98132 4.39764,2.57719 c 8.28095,4.85296 35.70076,27.71942 35.70076,29.77228 0,2.80966 -63.5023,22.5905 -93.64702,29.17084 -29.6611,6.47478 -61.4857,9.30587 -79.59068,7.08033 z"
       id="path961"
       inkscape:connector-curvature="0"
       transform="scale(0.9375)"
       inkscape:export-filename="C:\Users\zajic\Desktop\diplomka\DP_Zajicova_Zuzana\Assets\obrázky\pozadí\path981.png"
       inkscape:export-xdpi="90"
       inkscape:export-ydpi="90" />
    <path
       style="opacity:0;fill:#666666;stroke:#000000;stroke-width:1.01015258;stroke-opacity:1"
       d="m 257.97309,527.86923 c -10.89232,-1.14856 -23.13612,-4.35289 -30.41047,-7.95874 -11.83158,-5.86484 -31.22417,-21.86435 -43.05778,-35.52406 l -5.11084,-5.89951 5.04362,-6.32126 c 5.5286,-6.9291 7.65832,-8.93016 17.22452,-16.18398 6.1428,-4.65793 6.52883,-4.80303 8.80694,-3.31036 16.47522,10.79498 31.14419,17.88614 44.36766,21.44787 9.40079,2.53209 11.53804,2.72242 30.80966,2.74383 18.04758,0.02 22.77486,-0.33242 36.79446,-2.74336 17.22619,-2.96238 41.81522,-8.17271 58.35281,-12.36478 l 10.18197,-2.58099 5.24726,3.48399 c 6.81656,4.52593 20.83253,15.80435 28.64061,23.04661 4.96897,4.60889 5.89833,5.93901 4.79146,6.85762 -1.94477,1.61403 -46.68671,16.29526 -64.36756,21.12102 -45.85884,12.51657 -80.15377,17.05009 -107.31432,14.1861 z"
       id="path963"
       inkscape:connector-curvature="0"
       transform="scale(0.9375)"
       inkscape:export-filename="C:\Users\zajic\Desktop\diplomka\DP_Zajicova_Zuzana\Assets\obrázky\pozadí\path981.png"
       inkscape:export-xdpi="90"
       inkscape:export-ydpi="90" />
    <path
       style="opacity:0;fill:#666666;stroke:#000000;stroke-width:1.01015258;stroke-opacity:1"
       d="m 257.97309,527.86923 c -10.89232,-1.14856 -23.13612,-4.35289 -30.41047,-7.95874 -11.83158,-5.86484 -31.22417,-21.86435 -43.05778,-35.52406 l -5.11084,-5.89951 5.04362,-6.32126 c 5.5286,-6.9291 7.65832,-8.93016 17.22452,-16.18398 6.1428,-4.65793 6.52883,-4.80303 8.80694,-3.31036 16.47522,10.79498 31.14419,17.88614 44.36766,21.44787 9.40079,2.53209 11.53804,2.72242 30.80966,2.74383 18.04758,0.02 22.77486,-0.33242 36.79446,-2.74336 17.22619,-2.96238 41.81522,-8.17271 58.35281,-12.36478 l 10.18197,-2.58099 5.24726,3.48399 c 6.81656,4.52593 20.83253,15.80435 28.64061,23.04661 4.96897,4.60889 5.89833,5.93901 4.79146,6.85762 -1.94477,1.61403 -46.68671,16.29526 -64.36756,21.12102 -45.85884,12.51657 -80.15377,17.05009 -107.31432,14.1861 z"
       id="path965"
       inkscape:connector-curvature="0"
       transform="scale(0.9375)"
       inkscape:export-filename="C:\Users\zajic\Desktop\diplomka\DP_Zajicova_Zuzana\Assets\obrázky\pozadí\path981.png"
       inkscape:export-xdpi="90"
       inkscape:export-ydpi="90" />
    <path
       style="opacity:0;fill:#666666;stroke:#000000;stroke-width:1.01015258;stroke-opacity:1"
       d="m 257.97309,527.86923 c -10.89232,-1.14856 -23.13612,-4.35289 -30.41047,-7.95874 -11.83158,-5.86484 -31.22417,-21.86435 -43.05778,-35.52406 l -5.11084,-5.89951 5.04362,-6.32126 c 5.5286,-6.9291 7.65832,-8.93016 17.22452,-16.18398 6.1428,-4.65793 6.52883,-4.80303 8.80694,-3.31036 16.47522,10.79498 31.14419,17.88614 44.36766,21.44787 9.40079,2.53209 11.53804,2.72242 30.80966,2.74383 18.04758,0.02 22.77486,-0.33242 36.79446,-2.74336 17.22619,-2.96238 41.81522,-8.17271 58.35281,-12.36478 l 10.18197,-2.58099 5.24726,3.48399 c 6.81656,4.52593 20.83253,15.80435 28.64061,23.04661 4.96897,4.60889 5.89833,5.93901 4.79146,6.85762 -1.94477,1.61403 -46.68671,16.29526 -64.36756,21.12102 -45.85884,12.51657 -80.15377,17.05009 -107.31432,14.1861 z"
       id="path967"
       inkscape:connector-curvature="0"
       transform="scale(0.9375)"
       inkscape:export-filename="C:\Users\zajic\Desktop\diplomka\DP_Zajicova_Zuzana\Assets\obrázky\pozadí\path981.png"
       inkscape:export-xdpi="90"
       inkscape:export-ydpi="90" />
    <path
       style="opacity:0;fill:#666666;stroke:#000000;stroke-width:1.01015258;stroke-opacity:1"
       d="m 73.521544,668.63252 c 0.0039,-12.08395 0.29071,-24.97215 0.637245,-28.64045 l 0.630064,-6.66964 12.747276,-0.65197 c 27.424941,-1.40267 50.709181,-11.81086 59.329751,-26.52075 l 2.58894,-4.41769 12.86972,12.17516 c 7.07835,6.69633 16.43717,14.84665 20.79738,18.11181 29.15237,21.8309 66.8062,32.70296 101.78696,29.38967 37.03902,-3.50823 67.69987,-15.86433 115.63021,-46.59812 2.14186,-1.3734 2.60599,-1.10738 8.82952,5.06084 l 6.56882,6.51042 4.02015,-3.92557 4.02015,-3.92558 32.6072,15.97087 c 37.71263,18.4715 50.7127,24.20156 66.44833,29.28855 29.10175,9.40797 48.37838,12.15595 79.78379,11.37359 22.28769,-0.55522 30.84369,-1.60322 52.84637,-6.47298 6.98861,-1.54676 12.26216,-2.26096 12.75017,-1.72676 0.45772,0.50104 1.10703,6.02488 1.44292,12.2752 l 0.6107,11.36422 H 371.99079 73.514363 Z"
       id="path969"
       inkscape:connector-curvature="0"
       transform="scale(0.9375)" />
    <path
       style="opacity:0;fill:#666666;stroke:#000000;stroke-width:1.01;stroke-opacity:1;stroke-miterlimit:4;stroke-dasharray:none"
       d="m 73.521544,668.63252 c 0.0039,-12.08395 0.29071,-24.97215 0.637245,-28.64045 l 0.630064,-6.66964 12.747276,-0.65197 c 27.424941,-1.40267 50.709181,-11.81086 59.329751,-26.52075 l 2.58894,-4.41769 12.86972,12.17516 c 7.07835,6.69633 16.43717,14.84665 20.79738,18.11181 29.15237,21.8309 66.8062,32.70296 101.78696,29.38967 37.03902,-3.50823 67.69987,-15.86433 115.63021,-46.59812 2.14186,-1.3734 2.60599,-1.10738 8.82952,5.06084 l 6.56882,6.51042 4.02015,-3.92557 4.02015,-3.92558 32.6072,15.97087 c 37.71263,18.4715 50.7127,24.20156 66.44833,29.28855 29.10175,9.40797 48.37838,12.15595 79.78379,11.37359 22.28769,-0.55522 30.84369,-1.60322 52.84637,-6.47298 6.98861,-1.54676 12.26216,-2.26096 12.75017,-1.72676 0.45772,0.50104 1.10703,6.02488 1.44292,12.2752 l 0.6107,11.36422 H 371.99079 73.514363 Z"
       id="path971"
       inkscape:connector-curvature="0"
       transform="scale(0.9375)" />
    <path
       style="opacity:0;fill:#666666;stroke:#000000;stroke-width:0.51012701;stroke-miterlimit:4;stroke-dasharray:none;stroke-opacity:1"
       d="m 102.00412,553.30415 c 0.18355,-10.20885 0.33406,-23.81134 0.33447,-30.22774 l 7.4e-4,-11.66619 6.9448,-0.34042 c 19.42086,-0.95198 34.99388,-4.14952 45.92859,-9.43034 7.80386,-3.7688 13.48313,-8.8003 20.08128,-17.79083 1.37309,-1.87095 2.6673,-3.40173 2.87602,-3.40173 0.20872,0 3.99322,4.03429 8.41,8.9651 15.56533,17.37683 23.73779,24.2366 36.22,30.40222 10.17697,5.02694 18.444,7.48146 31.81981,9.44744 7.50122,1.10254 30.07132,1.25898 39.64849,0.27482 32.93327,-3.38426 70.27387,-12.41251 117.19173,-28.33475 7.35377,-2.4956 15.46386,-5.31848 18.02244,-6.27306 l 4.65196,-1.73559 2.68207,2.84455 c 1.47514,1.5645 3.90722,4.26796 5.40462,6.00769 l 2.72254,3.16314 3.49639,-3.79449 c 1.92301,-2.08696 3.68609,-3.79448 3.91795,-3.79448 0.23186,0 3.33804,1.85554 6.90263,4.12341 23.44758,14.91794 51.14631,28.61364 75.23843,37.20182 52.03794,18.55009 104.76971,21.04473 158.08142,7.47851 l 6.62554,-1.686 0.33159,9.64989 c 0.18233,5.30745 0.46901,11.41135 0.637,13.56424 l 0.30547,3.91434 H 401.07523 101.67039 Z"
       id="path973"
       inkscape:connector-curvature="0"
       transform="scale(0.9375)"
       inkscape:export-filename="C:\Users\zajic\Desktop\diplomka\DP_Zajicova_Zuzana\Assets\obrázky\pozadí\path981.png"
       inkscape:export-xdpi="90"
       inkscape:export-ydpi="90" />
    <path
       style="opacity:0;fill:#008000;stroke:#000000;stroke-width:0.51012701;stroke-miterlimit:4;stroke-dasharray:none;stroke-opacity:1"
       d="m 101.92,555.32445 c 0.13298,-9.09768 0.37577,-22.73474 0.53954,-30.30457 l 0.29777,-13.76333 h 2.87203 c 9.01216,0 25.64615,-2.07703 34.39529,-4.29482 16.58749,-4.20471 25.17273,-9.72309 34.72882,-22.3228 l 3.5243,-4.6468 6.50276,7.40323 c 15.79846,17.98615 23.90046,25.0811 36.04972,31.56884 9.29274,4.96236 20.95083,8.53109 33.58757,10.28169 8.97981,1.24401 31.0556,1.25655 42.17387,0.024 35.98779,-3.98964 80.91014,-15.56814 132.10381,-34.04907 l 5.58221,-2.01518 4.64514,5.14025 c 2.55482,2.82714 4.94243,5.54682 5.30577,6.04373 0.60313,0.82482 0.9791,0.55021 4.31886,-3.15451 l 3.65822,-4.05799 4.89923,3.16804 c 47.78074,30.89687 96.60876,49.04749 144.06731,53.55348 30.75175,2.91975 64.58545,-0.0472 94.4944,-8.28634 l 3.3477,-0.92221 0.30673,4.87526 c 0.16874,2.68139 0.45522,8.79591 0.6367,13.58782 l 0.32986,8.71256 H 400.98292 101.67823 Z"
       id="path975"
       inkscape:connector-curvature="0"
       transform="scale(0.9375)"
       inkscape:export-filename="C:\Users\zajic\Desktop\diplomka\DP_Zajicova_Zuzana\Assets\obrázky\pozadí\path981.png"
       inkscape:export-xdpi="90"
       inkscape:export-ydpi="90" />
    <path
       style="opacity:0;fill:#008000;stroke:#000000;stroke-width:0.51012701;stroke-miterlimit:4;stroke-dasharray:none;stroke-opacity:1"
       d="m 101.92,555.32445 c 0.13298,-9.09768 0.37577,-22.73474 0.53954,-30.30457 l 0.29777,-13.76333 h 2.87203 c 9.01216,0 25.64615,-2.07703 34.39529,-4.29482 16.58749,-4.20471 25.17273,-9.72309 34.72882,-22.3228 l 3.5243,-4.6468 6.50276,7.40323 c 15.79846,17.98615 23.90046,25.0811 36.04972,31.56884 9.29274,4.96236 20.95083,8.53109 33.58757,10.28169 8.97981,1.24401 31.0556,1.25655 42.17387,0.024 35.98779,-3.98964 80.91014,-15.56814 132.10381,-34.04907 l 5.58221,-2.01518 4.64514,5.14025 c 2.55482,2.82714 4.94243,5.54682 5.30577,6.04373 0.60313,0.82482 0.9791,0.55021 4.31886,-3.15451 l 3.65822,-4.05799 4.89923,3.16804 c 47.78074,30.89687 96.60876,49.04749 144.06731,53.55348 30.75175,2.91975 64.58545,-0.0472 94.4944,-8.28634 l 3.3477,-0.92221 0.30673,4.87526 c 0.16874,2.68139 0.45522,8.79591 0.6367,13.58782 l 0.32986,8.71256 H 400.98292 101.67823 Z"
       id="path977"
       inkscape:connector-curvature="0"
       transform="scale(0.9375)"
       inkscape:export-filename="C:\Users\zajic\Desktop\diplomka\DP_Zajicova_Zuzana\Assets\obrázky\pozadí\path981.png"
       inkscape:export-xdpi="90"
       inkscape:export-ydpi="90" />
    <path
       style="opacity:0;fill:#008000;stroke:#000000;stroke-width:0.51012701;stroke-miterlimit:4;stroke-dasharray:none;stroke-opacity:1"
       d="m 101.92,555.32445 c 0.13298,-9.09768 0.37577,-22.73474 0.53954,-30.30457 l 0.29777,-13.76333 h 2.87203 c 9.01216,0 25.64615,-2.07703 34.39529,-4.29482 16.58749,-4.20471 25.17273,-9.72309 34.72882,-22.3228 l 3.5243,-4.6468 6.50276,7.40323 c 15.79846,17.98615 23.90046,25.0811 36.04972,31.56884 9.29274,4.96236 20.95083,8.53109 33.58757,10.28169 8.97981,1.24401 31.0556,1.25655 42.17387,0.024 35.98779,-3.98964 80.91014,-15.56814 132.10381,-34.04907 l 5.58221,-2.01518 4.64514,5.14025 c 2.55482,2.82714 4.94243,5.54682 5.30577,6.04373 0.60313,0.82482 0.9791,0.55021 4.31886,-3.15451 l 3.65822,-4.05799 4.89923,3.16804 c 47.78074,30.89687 96.60876,49.04749 144.06731,53.55348 30.75175,2.91975 64.58545,-0.0472 94.4944,-8.28634 l 3.3477,-0.92221 0.30673,4.87526 c 0.16874,2.68139 0.45522,8.79591 0.6367,13.58782 l 0.32986,8.71256 H 400.98292 101.67823 Z"
       id="path979"
       inkscape:connector-curvature="0"
       transform="scale(0.9375)"
       inkscape:export-filename="C:\Users\zajic\Desktop\diplomka\DP_Zajicova_Zuzana\Assets\obrázky\pozadí\path981.png"
       inkscape:export-xdpi="90"
       inkscape:export-ydpi="90" />
    <path
       style="opacity:0;fill:#008000;stroke:#000000;stroke-width:0.51012701;stroke-miterlimit:4;stroke-dasharray:none;stroke-opacity:1"
       d="m 101.92,555.32445 c 0.13298,-9.09768 0.37577,-22.73474 0.53954,-30.30457 l 0.29777,-13.76333 h 2.87203 c 9.01216,0 25.64615,-2.07703 34.39529,-4.29482 16.58749,-4.20471 25.17273,-9.72309 34.72882,-22.3228 l 3.5243,-4.6468 6.50276,7.40323 c 15.79846,17.98615 23.90046,25.0811 36.04972,31.56884 9.29274,4.96236 20.95083,8.53109 33.58757,10.28169 8.97981,1.24401 31.0556,1.25655 42.17387,0.024 35.98779,-3.98964 80.91014,-15.56814 132.10381,-34.04907 l 5.58221,-2.01518 4.64514,5.14025 c 2.55482,2.82714 4.94243,5.54682 5.30577,6.04373 0.60313,0.82482 0.9791,0.55021 4.31886,-3.15451 l 3.65822,-4.05799 4.89923,3.16804 c 47.78074,30.89687 96.60876,49.04749 144.06731,53.55348 30.75175,2.91975 64.58545,-0.0472 94.4944,-8.28634 l 3.3477,-0.92221 0.30673,4.87526 c 0.16874,2.68139 0.45522,8.79591 0.6367,13.58782 l 0.32986,8.71256 H 400.98292 101.67823 Z"
       id="path981"
       inkscape:connector-curvature="0"
       transform="scale(0.9375)"
       inkscape:export-filename="C:\Users\zajic\Desktop\diplomka\DP_Zajicova_Zuzana\Assets\obrázky\pozadí\path981.png"
       inkscape:export-xdpi="90"
       inkscape:export-ydpi="90" />
    <path
       style="fill:#3c8c00;stroke:none;stroke-width:0.9375px;stroke-linecap:butt;stroke-linejoin:miter;stroke-opacity:1;fill-opacity:1"
       d="m 95.648822,440.11507 c -60.670713,28.3911 -80.129741,60.90337 -87.6131077,94.61321 l 87.2802767,1.39581 v 0"
       id="path865"
       inkscape:connector-curvature="0"
       sodipodi:nodetypes="cccc" />
    <path
       style="fill:#3c8c00;stroke:none;stroke-width:0.9375px;stroke-linecap:butt;stroke-linejoin:miter;stroke-opacity:1;fill-opacity:1"
       d="m 655.33646,490.78053 c 15.16467,10.37538 27.45688,26.49565 39.08319,43.94775 l -37.71956,1.39581"
       id="path867"
       inkscape:connector-curvature="0"
       sodipodi:nodetypes="ccc" />
    <path
       style="fill:#50a000;stroke:none;stroke-width:0.9375px;stroke-linecap:butt;stroke-linejoin:miter;stroke-opacity:1;fill-opacity:1"
       d="M 96.800766,478.52809 C 79.182727,478.83894 61.357531,476.60917 51.5625,468.43363 l 44.086322,-28.31856 z"
       id="path871"
       inkscape:connector-curvature="0"
       sodipodi:nodetypes="cc" />
  </g>
</svg>
