<?xml version="1.0" encoding="UTF-8" standalone="no"?>
<!-- Created with Inkscape (http://www.inkscape.org/) -->

<svg
   xmlns:dc="http://purl.org/dc/elements/1.1/"
   xmlns:cc="http://creativecommons.org/ns#"
   xmlns:rdf="http://www.w3.org/1999/02/22-rdf-syntax-ns#"
   xmlns:svg="http://www.w3.org/2000/svg"
   xmlns="http://www.w3.org/2000/svg"
   xmlns:sodipodi="http://sodipodi.sourceforge.net/DTD/sodipodi-0.dtd"
   xmlns:inkscape="http://www.inkscape.org/namespaces/inkscape"
   width="210mm"
   height="297mm"
   viewBox="0 0 744.09448819 1052.3622047"
   id="svg2"
   version="1.1"
   inkscape:version="0.92.4 (5da689c313, 2019-01-14)"
   sodipodi:docname="kytka.svg">
  <defs
     id="defs4" />
  <sodipodi:namedview
     id="base"
     pagecolor="#ffffff"
     bordercolor="#666666"
     borderopacity="1.0"
     inkscape:pageopacity="0.0"
     inkscape:pageshadow="2"
     inkscape:zoom="0.98994949"
     inkscape:cx="241.8995"
     inkscape:cy="419.10777"
     inkscape:document-units="px"
     inkscape:current-layer="layer2"
     showgrid="false"
     inkscape:window-width="1920"
     inkscape:window-height="986"
     inkscape:window-x="-11"
     inkscape:window-y="-11"
     inkscape:window-maximized="1" />
  <metadata
     id="metadata7">
    <rdf:RDF>
      <cc:Work
         rdf:about="">
        <dc:format>image/svg+xml</dc:format>
        <dc:type
           rdf:resource="http://purl.org/dc/dcmitype/StillImage" />
        <dc:title></dc:title>
      </cc:Work>
    </rdf:RDF>
  </metadata>
  <g
     inkscape:groupmode="layer"
     id="layer2"
     inkscape:label="Vrstva 2"
     style="display:inline">
    <path
       style="fill:#008800;fill-rule:evenodd;stroke:#007800;stroke-width:1px;stroke-linecap:butt;stroke-linejoin:miter;stroke-opacity:1;fill-opacity:1"
       d="m 385.87827,668.50424 c -8.35745,35.66181 4.52272,60.70481 11.11168,88.89342 78.41475,83.58414 190.71785,-48.27327 180.81731,-114.14724 -126.26231,-13.50551 -179.60825,86.4603 -180.81731,114.14724 -83.98876,86.2947 -182.39764,-48.20661 -188.89853,-113.13708 55.90477,-2.9934 140.61793,3.83253 188.89853,113.13708"
       id="path4148"
       inkscape:connector-curvature="0"
       sodipodi:nodetypes="cccccc" />
    <path
       style="fill:#e90000;fill-rule:evenodd;stroke:#e90000;stroke-width:1px;stroke-linecap:butt;stroke-linejoin:miter;stroke-opacity:1;fill-opacity:1"
       d="m 360.11938,567.99406 c -18.75753,46.79021 -25.08002,92.32275 43.94164,105.56094 36.28777,4.63273 70.25494,-42.70125 40.91118,-107.58124 27.96652,58.47438 73.40607,57.01784 104.55078,24.74873 20.03106,-30.78833 12.01521,-79.14864 -52.52793,-95.9645 44.12854,13.26108 98.8743,-24.43955 80.30713,-73.23605 -31.10524,-49.04497 -70.33905,-40.02207 -102.53049,-11.11168 7.74675,-9.21246 46.70253,-68.14086 2.02031,-90.91373 -58.78251,-26.26713 -85.17973,27.87227 -79.80205,61.61931 -8.61004,-46.53847 -44.13293,-87.42497 -89.90358,-63.13454 -30.20475,18.31482 -36.06118,60.74767 12.62691,103.03556 -9.49715,-10.11748 -73.48548,-54.4963 -104.55079,21.21321 -11.13224,34.43879 24.11101,69.70583 92.42896,65.65992 -52.04241,-0.0857 -83.85597,50.42655 -49.49747,97.9848 38.293,37.43399 79.21662,17.60497 102.0254,-37.88073 z"
       id="path4150"
       inkscape:connector-curvature="0"
       sodipodi:nodetypes="ccccccccccccccc" />
    <circle
       style="opacity:1;fill:#ffc828;fill-opacity:1;stroke:#ffbe28;stroke-width:1;stroke-miterlimit:4.19999981;stroke-dasharray:none;stroke-opacity:1"
       id="path4154"
       cx="400.52548"
       cy="478.09048"
       r="98.489876" />
    <path
       style="fill:none;fill-rule:evenodd;stroke:#006400;stroke-width:1px;stroke-linecap:butt;stroke-linejoin:miter;stroke-opacity:1"
       d="M 395.9798,755.37736 C 340.2728,742.22383 283.47468,730.26061 256.57875,685.67683"
       id="path4156"
       inkscape:connector-curvature="0"
       sodipodi:nodetypes="cc" />
    <path
       style="fill:none;fill-rule:evenodd;stroke:#006400;stroke-width:1px;stroke-linecap:butt;stroke-linejoin:miter;stroke-opacity:1"
       d="m 394.96965,754.3672 c -47.70626,3.82338 -94.98757,6.97897 -124.24877,-18.18274"
       id="path4158"
       inkscape:connector-curvature="0"
       sodipodi:nodetypes="cc" />
    <path
       style="fill:none;fill-rule:evenodd;stroke:#006400;stroke-width:1px;stroke-linecap:butt;stroke-linejoin:miter;stroke-opacity:1"
       d="m 313.14729,689.71744 c 28.28427,45.27127 56.56854,46.98002 84.85281,65.65992"
       id="path4160"
       inkscape:connector-curvature="0"
       sodipodi:nodetypes="cc" />
    <path
       style="fill:none;fill-rule:evenodd;stroke:#006400;stroke-width:1px;stroke-linecap:butt;stroke-linejoin:miter;stroke-opacity:1"
       d="m 524.26917,681.63622 c -21.79272,34.4491 -78.36649,53.08863 -128.28937,74.75129 34.55382,-0.61135 68.01748,10.76896 105.05586,-17.17259"
       id="path4162"
       inkscape:connector-curvature="0"
       sodipodi:nodetypes="ccc" />
    <path
       style="fill:none;fill-rule:evenodd;stroke:#006400;stroke-width:1px;stroke-linecap:butt;stroke-linejoin:miter;stroke-opacity:1"
       d="m 402.04071,754.3672 c 22.72666,-20.66737 51.59634,-36.72747 64.64977,-64.64976"
       id="path4164"
       inkscape:connector-curvature="0"
       sodipodi:nodetypes="cc" />
  </g>
</svg>
