<?xml version="1.0" encoding="UTF-8" standalone="no"?>
<!-- Created with Inkscape (http://www.inkscape.org/) -->

<svg
   xmlns:dc="http://purl.org/dc/elements/1.1/"
   xmlns:cc="http://creativecommons.org/ns#"
   xmlns:rdf="http://www.w3.org/1999/02/22-rdf-syntax-ns#"
   xmlns:svg="http://www.w3.org/2000/svg"
   xmlns="http://www.w3.org/2000/svg"
   xmlns:sodipodi="http://sodipodi.sourceforge.net/DTD/sodipodi-0.dtd"
   xmlns:inkscape="http://www.inkscape.org/namespaces/inkscape"
   width="210mm"
   height="297mm"
   viewBox="0 0 744.09448819 1052.3622047"
   id="svg4151"
   version="1.1"
   inkscape:version="0.92.4 (5da689c313, 2019-01-14)"
   sodipodi:docname="strom2.svg"
   inkscape:export-filename="G:\obrázky\pozadí\strom2.png"
   inkscape:export-xdpi="90"
   inkscape:export-ydpi="90">
  <defs
     id="defs4153">
    <filter
       inkscape:collect="always"
       style="color-interpolation-filters:sRGB"
       id="filter4730"
       x="-0.024653975"
       width="1.049308"
       y="-0.0034156281"
       height="1.0068313">
      <feGaussianBlur
         inkscape:collect="always"
         stdDeviation="0.10943679"
         id="feGaussianBlur4732" />
    </filter>
  </defs>
  <sodipodi:namedview
     id="base"
     pagecolor="#ffffff"
     bordercolor="#666666"
     borderopacity="1.0"
     inkscape:pageopacity="0.0"
     inkscape:pageshadow="2"
     inkscape:zoom="1.979899"
     inkscape:cx="134.74649"
     inkscape:cy="777.4105"
     inkscape:document-units="px"
     inkscape:current-layer="layer1"
     showgrid="false"
     inkscape:window-width="1920"
     inkscape:window-height="986"
     inkscape:window-x="-11"
     inkscape:window-y="-11"
     inkscape:window-maximized="1" />
  <metadata
     id="metadata4156">
    <rdf:RDF>
      <cc:Work
         rdf:about="">
        <dc:format>image/svg+xml</dc:format>
        <dc:type
           rdf:resource="http://purl.org/dc/dcmitype/StillImage" />
        <dc:title></dc:title>
      </cc:Work>
    </rdf:RDF>
  </metadata>
  <g
     inkscape:label="Vrstva 1"
     inkscape:groupmode="layer"
     id="layer1">
    <path
       style="fill:#78b41e;fill-opacity:1;fill-rule:evenodd;stroke:#78aa1e;stroke-width:1px;stroke-linecap:butt;stroke-linejoin:miter;stroke-opacity:1"
       d="m 117.1777,224.03711 c -7.36704,-8.81137 -6.09567,-16.80285 2.0203,-25.50635 6.31688,-5.27586 13.17947,-6.1861 19.95051,-7.82868 -1.01296,-12.21495 1.17421,-17.79707 10.85914,-25.75889 5.91741,-4.31189 16.58641,-8.9964 25.75889,-6.81853 4.95976,-6.14466 10.24989,-12.11627 25.00128,-13.13198 17.29485,1.19329 26.64511,7.83429 27.27412,20.45559 7.0171,-0.38827 10.61522,1.88265 13.38452,4.79822 6.34344,6.68708 4.51988,9.08319 2.27284,12.87945 10.78897,2.25884 18.1962,7.89941 24.24366,14.89975 2.16414,3.11188 1.63175,7.3323 -0.25254,8.83883 3.97408,1.48875 8.21007,2.58466 10.35407,6.81853 1.76527,4.82045 2.43095,7.07521 2.77792,8.5863 8.03591,-0.49214 10.94528,3.88741 11.36421,8.08122 0.56683,8.13869 -2.96529,14.12385 -15.9099,16.66751 3.05235,8.60739 1.74008,14.29583 -4.04061,20.96067 -2.01741,2.10448 -5.61264,6.40642 -15.40483,6.31345 -12.99218,-2.09497 -15.11235,-7.81393 -16.92005,-13.63706 -4.1472,2.92899 -7.17345,6.76876 -18.63181,3.75744 -4.12301,1.80877 -6.67789,5.34776 -13.188,5.33394 -8.3894,0.54622 -17.86992,0.1195 -23.73858,-15.15229 -4.35348,4.08691 -9.06279,4.97131 -13.8896,4.79822 -3.87225,4.83917 -7.03021,9.48421 -11.61675,10.85914 -9.12478,1.26759 -17.93481,1.69587 -24.24366,-4.54568 -3.64846,-4.18825 -4.62004,-9.59326 -3.03046,-16.16244 -7.36869,2.80782 -14.31323,1.37425 -21.2132,-0.50508 -5.81095,-1.40669 -6.3325,-5.90955 -4.79823,-11.11168 2.321,-7.34456 5.46156,-10.93346 11.61676,-13.8896 z"
       id="path4712"
       inkscape:connector-curvature="0"
       sodipodi:nodetypes="cccccccccccccccccccccccccccc" />
    <path
       style="fill:#3c8c00;fill-opacity:1;fill-rule:evenodd;stroke:#3c8c00;stroke-width:1px;stroke-linecap:butt;stroke-linejoin:miter;stroke-opacity:1"
       d="m 132.45869,249.49019 c -3.42657,13.15989 1.18053,20.99627 17.5,21.07143 14.50719,1.55793 14.41833,-4.97211 20.52674,-11.54402 5.86542,0.945 9.67768,-1.87413 13.58041,-4.52741 l 9.28571,-14.28572 c 5.41667,-4.34524 8.90828,1.70482 16.25,-13.03571 -1.35549,-1.30904 -0.0769,-0.14246 1.16071,-7.14285 -4.38269,1.1256 -5.6461,-0.14311 -7.32142,-1.96429 -7.22855,5.83038 -17.21224,8.66776 -26.77226,9.00254 l 2.93297,8.31889 c -0.65455,4.00613 -0.54155,8.109 -10.89286,10.89285 -8.03849,3.33091 -13.13635,0.22045 -17.67857,-4.10714 l -12.5,3.21429 c -3.38879,-0.19094 -4.16116,2.60832 -6.07143,4.10714 z"
       id="path4722"
       inkscape:connector-curvature="0"
       sodipodi:nodetypes="cccccccccccccc" />
    <path
       style="fill:#50a000;fill-opacity:1;fill-rule:evenodd;stroke:#50a000;stroke-width:1px;stroke-linecap:butt;stroke-linejoin:miter;stroke-opacity:1"
       d="m 216.74441,225.56162 c -2.14286,-2.48609 -4.28571,-4.06556 -6.42857,-3.03572 -2.98134,5.64743 1.95113,10.56836 -16.96429,17.67857 l -8.57143,14.28572 c 2.47098,11.28174 19.28139,23.60739 35.71429,9.46428 9.00836,3.27205 14.82275,0.29503 20,-3.92857 1.83091,7.67682 6.74726,15.94073 21.96428,13.39286 13.75699,-3.15378 16.59137,-15.99565 14.64286,-26.96429 -6.49367,1.26912 -11.58659,-2.26435 -16.96429,-4.82142 l -10.53571,-1.78572 -6.25,-4.64286 c 2.04453,2.93199 -0.28937,4.63803 -2.32143,6.42858 -7.33303,-0.77061 -15.47791,1.8077 -21.60714,-3.92858 -2.07562,-3.65336 -5.38396,-6.89582 -2.67857,-12.14285 z"
       id="path4724"
       inkscape:connector-curvature="0"
       sodipodi:nodetypes="cccccccccccccc" />
    <path
       style="fill:#96dc46;fill-opacity:1;fill-rule:evenodd;stroke:#96dc46;stroke-width:1px;stroke-linecap:butt;stroke-linejoin:miter;stroke-opacity:1"
       d="m 117.45869,223.59733 c -8.62693,3.99953 -11.44009,11.08763 -12.5,19.10714 0.44801,8.00048 17.25681,10.33334 26.60715,6.60715 l 5,-3.92857 12.5,-3.39286 c 8.71451,6.47903 11.13716,6.21792 18.57143,3.75 10.27255,-3.62951 11.28746,-4.31089 11.96428,-10.71429 0.21631,-6.06619 -3.63691,-13.28226 -15,-13.39285 4.46583,-3.84655 5.94676,-11.63403 -1.25,-17.14286 -5.76126,-3.25504 -11.08915,-4.01807 -19.28571,-1.60714 -6.3543,1.87432 -5.92787,5.22272 -7.14286,8.21428 -12.37199,-0.83464 -16.48504,5.35081 -19.46429,12.5 z"
       id="path4716"
       inkscape:connector-curvature="0"
       sodipodi:nodetypes="cccccccccccc" />
    <path
       style="fill:#aadc46;fill-opacity:1;fill-rule:evenodd;stroke:#aadc46;stroke-width:1px;stroke-linecap:butt;stroke-linejoin:miter;stroke-opacity:1"
       d="m 211.54417,202.72614 c -2.85318,7.25641 -3.48622,13.70909 8.77167,17.47833 -8.09655,10.09885 -1.86963,14.22334 -1.07143,15.89286 2.3338,5.91113 18.78008,6.58065 21.96428,4.28572 1.11176,-1.23467 1.83185,0.2723 3.39286,-4.10715 1.31514,0.95238 2.8859,1.90477 5.53571,2.85715 2.60257,0.86466 2.42202,2.06514 10.17858,1.60714 3.56406,3.06047 7.33687,5.98177 15.35714,6.07143 8.75942,-1.3001 15.23038,-4.88866 16.60714,-13.57143 0.007,-7.00417 -2.95326,-11.44789 -11.51337,-11.0606 -2.73847,-5.66653 -1.36577,-12.8067 -13.48663,-15.1894 -2.4964,-0.43475 -5.04467,-0.97323 -6.39607,0.88203 -1.58211,-4.66609 -3.89948,-7.14564 -9.64286,-10.35715 -2.89178,-1.45189 -6.45349,-2.09305 -11.98781,-0.27234 -0.09,1.44169 -0.6779,2.75889 -1.43754,4.03317 -1.63413,1.17296 -12.08575,-0.69459 -18.21429,-1.07143 -2.52629,0.91371 -5.22996,3.41472 -8.05738,2.52167 z"
       id="path4720"
       inkscape:connector-curvature="0"
       sodipodi:nodetypes="ccccccccccccccccc" />
    <path
       style="fill:#b4f05a;fill-opacity:1;fill-rule:evenodd;stroke:#b4f05a;stroke-width:1px;stroke-linecap:butt;stroke-linejoin:miter;stroke-opacity:1"
       d="m 194.06584,192.5259 c -5.3643,0.4963 -9.31127,3.89808 -7.85715,8.39286 1.7547,3.93106 11.31465,9.94942 23.03572,0.71429 2.78439,1.71958 4.99299,1.24015 6.60714,0.35714 l 3.03571,-1.78572 c 4.87475,-0.17446 18.91836,2.57806 19.28572,0.71429 0.53442,-4.57585 4.80273,-9.7892 -7.67857,-12.14286 2.82368,-2.2619 2.77799,-4.52381 0.89285,-6.78571 -3.68163,-4.24051 -8.78032,-4.79111 -15.35714,-5 -3.0828,0.11511 -6.274,2.11359 -7.5,6.25 -3.86542,0.95966 -3.09779,0.82659 -7.32143,1.60714 -4.40234,1.19912 -6.58871,4.13538 -7.14285,7.67857 z"
       id="path4718"
       inkscape:connector-curvature="0"
       sodipodi:nodetypes="cccccccccccc" />
    <path
       style="fill:#784614;fill-opacity:1;fill-rule:evenodd;stroke:#784614;stroke-width:1px;stroke-linecap:butt;stroke-linejoin:miter;stroke-opacity:1"
       d="m 204.60155,366.63305 c -4.58814,3.70458 -12.32143,3.75 -12.32143,3.75 4.19698,-2.52969 6.26743,-6.10296 7.14286,-9.10715 2.06468,-13.33644 0.77381,-55.23809 -1.78571,-66.42857 -10.05965,-16.07139 -29.8234,-28.65554 -44.17214,-43.29722 l -11.28064,-5.00372 9.66452,2.06363 -2.64793,-8.50644 c 2.19394,2.01559 10.26421,15.46374 18.44144,20.9362 7.71318,6.09628 17.94138,15.3726 23.87101,16.64303 7.88912,0.73151 8.62034,-4.88028 8.35851,-8.57143 -1.48644,-16.13584 -10.58161,-20.07892 -18.88153,-42.22579 -1.17284,-3.67003 -8.30211,-18.26186 1.37518,-4.52928 5.73539,10.413 11.40012,25.14013 18.03309,34.65555 2.38859,-13.60952 1.32071,-24.25428 2.20599,-37.56314 2.46568,-9.18286 0.19964,-10.15949 4.76541,4.98576 -0.90183,20.49786 -4.75494,37.24404 -4.5364,55.8746 0.38136,2.12833 1.32773,2.82177 4.54534,-0.7852 11.53431,-12.36474 14.58725,-26.68673 21.86529,-40.03369 -2.264,12.5 -8.36195,24.24239 -12.41707,36.74239 0.39986,0.15306 -0.3658,0.62243 4.86886,-4.18844 l 9.39891,-7.51805 4.39776,-3.05213 c -5.47869,6.30354 -17.70615,19.55188 -21.58766,25.85543 -8.02244,21.84115 -1.29876,57.24939 1.05348,71.80366 1.7147,3.33333 4.0878,6.66666 9.10714,10 -4.46361,0.0848 -8.03693,-0.70675 -9.23527,-1.55484 0.21184,0.0847 1.12586,5.16268 1.91385,6.19769 -3.87249,-2.29338 -7.38757,-4.40807 -12.14286,-7.14285 z"
       id="path4710"
       inkscape:connector-curvature="0"
       sodipodi:nodetypes="ccccccccccccccccccccccccccccc" />
    <path
       style="fill:#a06428;fill-opacity:1;fill-rule:evenodd;stroke:#a0641e;stroke-width:1px;stroke-linecap:butt;stroke-linejoin:miter;stroke-opacity:1;filter:url(#filter4730)"
       d="m 209.95869,289.31162 c -1.99287,12.40246 -5.83808,24.25916 -5,38.83928 0.74992,13.54864 -0.0176,27.06488 8.30357,37.58929 1.30404,1.51135 1.87356,-0.83346 2.23215,-4.28572 -4.92185,-11.56531 -3.62561,-12.29349 -5.80357,-36.87499 z"
       id="path4714"
       inkscape:connector-curvature="0"
       sodipodi:nodetypes="cccccc" />
  </g>
</svg>
