<?xml version="1.0" encoding="UTF-8" standalone="no"?>
<!-- Created with Inkscape (http://www.inkscape.org/) -->

<svg
   xmlns:dc="http://purl.org/dc/elements/1.1/"
   xmlns:cc="http://creativecommons.org/ns#"
   xmlns:rdf="http://www.w3.org/1999/02/22-rdf-syntax-ns#"
   xmlns:svg="http://www.w3.org/2000/svg"
   xmlns="http://www.w3.org/2000/svg"
   xmlns:sodipodi="http://sodipodi.sourceforge.net/DTD/sodipodi-0.dtd"
   xmlns:inkscape="http://www.inkscape.org/namespaces/inkscape"
   width="210mm"
   height="297mm"
   viewBox="0 0 744.09448819 1052.3622047"
   id="svg2"
   version="1.1"
   inkscape:version="0.92.4 (5da689c313, 2019-01-14)"
   sodipodi:docname="strom.svg"
   inkscape:export-filename="G:\obrázky\pozadí\strom.png"
   inkscape:export-xdpi="90"
   inkscape:export-ydpi="90">
  <defs
     id="defs4" />
  <sodipodi:namedview
     id="base"
     pagecolor="#ffffff"
     bordercolor="#666666"
     borderopacity="1.0"
     inkscape:pageopacity="0.0"
     inkscape:pageshadow="2"
     inkscape:zoom="0.98994949"
     inkscape:cx="291.48572"
     inkscape:cy="532.31296"
     inkscape:document-units="px"
     inkscape:current-layer="layer1"
     showgrid="false"
     inkscape:window-width="1920"
     inkscape:window-height="986"
     inkscape:window-x="-11"
     inkscape:window-y="-11"
     inkscape:window-maximized="1" />
  <metadata
     id="metadata7">
    <rdf:RDF>
      <cc:Work
         rdf:about="">
        <dc:format>image/svg+xml</dc:format>
        <dc:type
           rdf:resource="http://purl.org/dc/dcmitype/StillImage" />
        <dc:title></dc:title>
      </cc:Work>
    </rdf:RDF>
  </metadata>
  <g
     inkscape:label="Vrstva 1"
     inkscape:groupmode="layer"
     id="layer1">
    <path
       style="fill:#009400;fill-opacity:1;fill-rule:evenodd;stroke:#009400;stroke-width:1px;stroke-linecap:butt;stroke-linejoin:miter;stroke-opacity:1"
       d="m 371.35732,540.97249 c 3.62232,0.87182 8.46128,3.0708 11.74303,1.38896 3.40528,-1.81782 6.26789,-3.71083 9.47018,-6.9448 2.39971,-3.283 1.23341,-6.56599 0.75761,-9.84899 5.26641,2.95564 9.95978,0.71292 11.86929,-1.76777 6.62332,-11.42825 0.82699,-13.54177 -1.26269,-18.43528 5.93104,-0.4242 9.6639,-5.14677 10.2278,-8.20749 0.59882,-8.63795 -1.71583,-14.36243 -9.84899,-14.2684 3.28504,-2.43916 6.5551,-5.39837 6.81853,-11.11168 0.26498,-4.85339 -2.43346,-14.09942 -14.89975,-10.73287 2.82122,-5.16487 2.26734,-9.73413 -0.63135,-13.8896 -3.41564,-4.78174 -10.90038,-6.46428 -16.66751,-0.50508 0.2934,-4.70823 0.44787,-10.17078 -7.95495,-13.00571 -5.52811,-0.74425 -11.9471,0.51781 -13.63706,9.34391 -1.773,-3.22198 -8.04175,-9.01456 -11.74303,-8.08122 -3.49331,0.3762 -10.96891,4.00678 -9.84898,14.14214 -4.36757,-1.87872 -8.69294,-3.33894 -13.38453,0 -3.02527,2.9943 -7.01325,4.59973 -2.52538,16.03617 -2.73583,-0.12604 -10.01735,-1.2216 -12.37437,9.21764 -1.22075,7.83582 2.81983,11.2872 7.57615,14.14213 -6.81408,2.43689 -9.78776,6.76369 -8.71257,13.13199 1.4889,8.07646 5.9846,9.88873 11.49049,9.59645 -3.12159,4.58486 -4.74522,9.22419 -1.51523,14.14213 1.68499,1.95916 4.44332,9.80755 14.89975,4.41942 0.32223,3.92883 -0.56318,9.06529 1.89403,10.85914 3.1266,2.32099 6.17178,4.69625 12.2481,5.05076 4.06479,-0.12001 7.00514,-2.48889 10.10153,-4.54568 z"
       id="path4149"
       inkscape:connector-curvature="0"
       sodipodi:nodetypes="cccccccccccccccccccccccccccc" />
    <path
       style="fill:#78461e;fill-opacity:1;fill-rule:evenodd;stroke:#78461e;stroke-width:1px;stroke-linecap:butt;stroke-linejoin:miter;stroke-opacity:1"
       d="m 337.64348,522.91601 c 6.06442,5.47868 13.35826,10.46559 17.93021,16.54125 2.18866,14.10005 -1.02011,42.55516 1.6415,43.05775 7.4503,1.4404 10.83792,-0.3113 13.63706,-2.52538 2.00662,-1.97563 -0.0923,-24.99437 0.12627,-39.39595 4.27862,-8.33376 8.48061,-16.66752 14.39467,-25.00128 l 6.18718,-2.52538 -4.79822,0.63135 4.41942,-7.82868 c -7.00544,8.34011 -13.7827,19.19025 -21.08694,24.24366 -1.56027,-0.10589 -2.64142,-0.78673 -2.52538,-2.90419 l 15.5311,-31.31473 -14.39468,20.96066 c -4.31869,-1.90491 -2.5271,-11.27793 -3.78807,-16.92005 l 3.78807,-9.84899 -4.29315,4.79823 0,-12.87945 c -3.23768,13.83079 -2.27302,24.15963 -3.40926,36.23922 -4.29965,-0.86438 -7.53632,-4.91768 -10.85914,-8.71256 l -2.02031,-19.44544 -0.3788,16.03617 -6.9448,-7.19733 10.48033,16.92005 c -1.46848,0.583 -4.44698,-1.35072 -6.81853,-2.27284 l 8.08122,5.93465 c 3.96758,2.76322 4.62594,6.76739 6.06092,10.48033 -2.21397,3.40553 -5.68353,0.87961 -5.68211,0.88388 -4.80806,-2.08206 -10.17147,-5.27483 -15.27856,-7.95495 z"
       id="path4147"
       inkscape:connector-curvature="0"
       sodipodi:nodetypes="cccccccccccccccccccccccccccc" />
  </g>
</svg>
