<?xml version="1.0" encoding="UTF-8" standalone="no"?>
<!-- Created with Inkscape (http://www.inkscape.org/) -->

<svg
   xmlns:dc="http://purl.org/dc/elements/1.1/"
   xmlns:cc="http://creativecommons.org/ns#"
   xmlns:rdf="http://www.w3.org/1999/02/22-rdf-syntax-ns#"
   xmlns:svg="http://www.w3.org/2000/svg"
   xmlns="http://www.w3.org/2000/svg"
   xmlns:sodipodi="http://sodipodi.sourceforge.net/DTD/sodipodi-0.dtd"
   xmlns:inkscape="http://www.inkscape.org/namespaces/inkscape"
   width="210mm"
   height="297mm"
   viewBox="0 0 744.09448819 1052.3622047"
   id="svg2"
   version="1.1"
   inkscape:version="0.92.4 (5da689c313, 2019-01-14)"
   sodipodi:docname="reproduktor.svg"
   inkscape:export-filename="F:\praktická_část\samotný program\obrázky\menu\zvuk4.png"
   inkscape:export-xdpi="90"
   inkscape:export-ydpi="90">
  <defs
     id="defs4" />
  <sodipodi:namedview
     id="base"
     pagecolor="#ffffff"
     bordercolor="#666666"
     borderopacity="1.0"
     inkscape:pageopacity="0.0"
     inkscape:pageshadow="2"
     inkscape:zoom="2.8"
     inkscape:cx="460.82629"
     inkscape:cy="571.18276"
     inkscape:document-units="px"
     inkscape:current-layer="layer1"
     showgrid="false"
     inkscape:window-width="1920"
     inkscape:window-height="986"
     inkscape:window-x="-11"
     inkscape:window-y="-11"
     inkscape:window-maximized="1" />
  <metadata
     id="metadata7">
    <rdf:RDF>
      <cc:Work
         rdf:about="">
        <dc:format>image/svg+xml</dc:format>
        <dc:type
           rdf:resource="http://purl.org/dc/dcmitype/StillImage" />
        <dc:title></dc:title>
      </cc:Work>
    </rdf:RDF>
  </metadata>
  <g
     inkscape:label="Vrstva 1"
     inkscape:groupmode="layer"
     id="layer1">
    <g
       id="g4788"
       transform="translate(18.253104,-163.59819)">
      <rect
         ry="1.6456413"
         y="680.78198"
         x="322.9826"
         height="16.214916"
         width="4.7023253"
         id="rect4179"
         style="opacity:1;fill:#000000;fill-opacity:1;stroke:#000000;stroke-width:0.90803522;stroke-miterlimit:4;stroke-dasharray:none;stroke-opacity:1" />
      <path
         sodipodi:nodetypes="ccccccccc"
         inkscape:connector-curvature="0"
         id="path4181"
         d="m 330.95058,681.20466 0.16549,15.84504 c 0.16225,1.01345 0.71482,1.36872 1.42731,2.0998 l 14.24234,11.42699 c 1.63702,1.13882 3.31216,-0.1794 3.39285,-1.96429 L 350,670.21935 c 0.2497,-3.24554 -1.03648,-3.47778 -2.5,-2.5 l -15.4452,11.45934 c -0.5209,0.49496 -1.09359,1.3535 -1.10422,2.02597 z"
         style="fill:#000000;fill-opacity:1;fill-rule:evenodd;stroke:#000000;stroke-width:1px;stroke-linecap:butt;stroke-linejoin:miter;stroke-opacity:1" />
      <path
         sodipodi:nodetypes="ccccc"
         inkscape:connector-curvature="0"
         id="path4185"
         d="m 353.92194,677.4101 c 6.33857,10.90107 2.84274,15.8056 0.1256,21.47942 -0.83334,2.05107 2.00822,3.94991 3.26587,2.76343 4.35512,-5.22937 8.12444,-15.95789 1.13051,-25.37335 -2.36642,-2.79875 -5.50035,-0.92169 -4.52198,1.1305 z"
         style="fill:#000000;fill-opacity:1;fill-rule:evenodd;stroke:#000000;stroke-width:1;stroke-linecap:butt;stroke-linejoin:miter;stroke-miterlimit:4;stroke-dasharray:none;stroke-opacity:1" />
      <path
         sodipodi:nodetypes="ccccc"
         inkscape:connector-curvature="0"
         id="path4185-8"
         d="m 364.53977,675.09088 c 6.86513,13.67148 3.0789,19.82244 0.13603,26.9382 -0.90256,2.57234 2.17506,4.95374 3.53719,3.46573 4.7169,-6.55836 8.79934,-20.01342 1.22442,-31.82172 -2.563,-3.51003 -5.95728,-1.15593 -4.89764,1.41779 z"
         style="fill:#000000;fill-opacity:1;fill-rule:evenodd;stroke:#000000;stroke-width:0.93117321;stroke-linecap:butt;stroke-linejoin:miter;stroke-miterlimit:4;stroke-dasharray:none;stroke-opacity:1" />
      <path
         sodipodi:nodetypes="ccccc"
         inkscape:connector-curvature="0"
         id="path4185-9"
         d="m 374.67341,670.94481 c 7.83768,18.6108 3.51507,26.98403 0.15533,36.67061 -1.03044,3.50169 2.48316,6.74348 4.03826,4.71786 5.38511,-8.9278 10.04589,-27.24401 1.39786,-43.3185 -2.92607,-4.77817 -6.8012,-1.57355 -5.59145,1.93003 z"
         style="fill:#000000;fill-opacity:1;fill-rule:evenodd;stroke:#000000;stroke-width:0;stroke-linecap:butt;stroke-linejoin:miter;stroke-miterlimit:4;stroke-dasharray:none;stroke-opacity:1" />
    </g>
    <path
       style="fill:none;fill-rule:evenodd;stroke:#ff0000;stroke-width:2.51369762;stroke-linecap:butt;stroke-linejoin:miter;stroke-miterlimit:4;stroke-dasharray:none;stroke-opacity:1"
       d="m 342.9052,556.1595 59.68216,-62.90812"
       id="path4786"
       inkscape:connector-curvature="0" />
  </g>
</svg>
