<?xml version="1.0" encoding="UTF-8" standalone="no"?>
<svg
   xmlns:dc="http://purl.org/dc/elements/1.1/"
   xmlns:cc="http://creativecommons.org/ns#"
   xmlns:rdf="http://www.w3.org/1999/02/22-rdf-syntax-ns#"
   xmlns:svg="http://www.w3.org/2000/svg"
   xmlns="http://www.w3.org/2000/svg"
   xmlns:sodipodi="http://sodipodi.sourceforge.net/DTD/sodipodi-0.dtd"
   xmlns:inkscape="http://www.inkscape.org/namespaces/inkscape"
   viewBox="0 0 376.65 365.82"
   version="1.1"
   id="svg993"
   sodipodi:docname="tlačítka.svg"
   inkscape:version="0.92.4 (5da689c313, 2019-01-14)">
  <metadata
     id="metadata997">
    <rdf:RDF>
      <cc:Work
         rdf:about="">
        <dc:format>image/svg+xml</dc:format>
        <dc:type
           rdf:resource="http://purl.org/dc/dcmitype/StillImage" />
        <dc:title></dc:title>
      </cc:Work>
    </rdf:RDF>
  </metadata>
  <sodipodi:namedview
     pagecolor="#ffffff"
     bordercolor="#666666"
     borderopacity="1"
     objecttolerance="10"
     gridtolerance="10"
     guidetolerance="10"
     inkscape:pageopacity="0"
     inkscape:pageshadow="2"
     inkscape:window-width="1920"
     inkscape:window-height="986"
     id="namedview995"
     showgrid="false"
     inkscape:zoom="2.0857252"
     inkscape:cx="188.325"
     inkscape:cy="190.86054"
     inkscape:window-x="-11"
     inkscape:window-y="-11"
     inkscape:window-maximized="1"
     inkscape:current-layer="svg993" />
  <defs
     id="defs929">
    <filter
       id="c"
       color-interpolation-filters="sRGB">
      <feGaussianBlur
         stdDeviation="0.785937"
         id="feGaussianBlur907" />
    </filter>
    <filter
       id="a"
       color-interpolation-filters="sRGB">
      <feGaussianBlur
         stdDeviation="0.814533"
         id="feGaussianBlur910" />
    </filter>
    <filter
       id="g"
       color-interpolation-filters="sRGB">
      <feGaussianBlur
         stdDeviation="1.317279"
         id="feGaussianBlur913" />
    </filter>
    <filter
       id="h"
       color-interpolation-filters="sRGB">
      <feGaussianBlur
         stdDeviation="0.812874"
         id="feGaussianBlur916" />
    </filter>
    <linearGradient
       id="i"
       x1=".62253"
       x2=".56705"
       y1="1.0557"
       y2=".78588">
      <stop
         stop-color="#803300"
         offset="0"
         id="stop919" />
      <stop
         stop-color="#d45500"
         stop-opacity="0"
         offset="1"
         id="stop921" />
    </linearGradient>
    <linearGradient
       id="b"
       x1=".60668"
       x2=".4442"
       y1=".95648"
       y2=".31376">
      <stop
         stop-color="#d45500"
         offset="0"
         id="stop924" />
      <stop
         stop-color="#d45500"
         stop-opacity="0"
         offset="1"
         id="stop926" />
    </linearGradient>
  </defs>
  <path
     d="m86.655 6.276c-22.677 0.47887-44.652 11.338-59.098 28.762-15.667 18.862-21.663 45.117-15.919 68.984 5.8613 24.742 24.403 46.042 48.102 55.235 25.482 10.043 56.225 5.94 77.624-11.271 20-15.461 32.035-40.976 30.472-66.345-1.068-21.625-11.219-42.759-27.908-56.601-14.728-12.368-33.974-19.436-53.274-18.764z"
     filter="url(#a)"
     id="path931" />
  <path
     d="m86.72 8.0959c-34.516 0.50516-66.493 26.488-73.509 60.309-6.6884 28.406 4.45 60.037 27.481 77.834 23.632 18.999 59.214 22.21 85.719 6.9067 25.951-14.428 42.81-44.962 39.388-74.992-2.7902-28.418-21.754-54.504-48.592-64.577-9.601-3.8625-20.076-5.8134-30.488-5.4798z"
     fill="#f60"
     filter="url(#a)"
     id="path933" />
  <path
     d="m86.72 8.0959c-34.516 0.50516-66.493 26.488-73.509 60.309-6.6884 28.406 4.45 60.037 27.481 77.834 23.632 18.999 59.214 22.21 85.719 6.9067 25.951-14.428 42.81-44.962 39.388-74.992-2.7902-28.418-21.754-54.504-48.592-64.577-9.601-3.8625-20.076-5.8134-30.488-5.4798z"
     fill="url(#b)"
     filter="url(#a)"
     id="path935"
     style="fill:#ffffff"
     inkscape:export-filename="C:\Users\zajic\Desktop\diplomka\DP_Zajicova_Zuzana\Assets\obrázky\menu\play.png"
     inkscape:export-xdpi="90"
     inkscape:export-ydpi="90" />
  <path
     d="m61.319 54.538c-0.30305 26.197-0.43471 52.396-0.27253 78.595 25.88-14.463 51.65-29.126 77.233-44.111-25.498-15.209-50.968-30.194-76.809-44.808-0.05048 3.4413-0.10085 6.8826-0.15133 10.324z"
     filter="url(#g)"
     stroke="#000"
     stroke-width="2.888"
     id="path937" />
  <path
     d="m61.246 132.82l-0.1276-40.606 0.5199-47.704 35.229 20.192 41.053 24.302-35.101 20.414-41.573 23.402z"
     fill="#803300"
     stroke="#ff7f2a"
     stroke-width="2.241"
     id="path939" />
  <path
     d="m289.29 8.276c-22.677 0.47888-44.652 11.338-59.098 28.762-15.667 18.862-21.663 45.117-15.919 68.984 5.8612 24.742 24.403 46.042 48.102 55.236 25.482 10.042 56.225 5.9389 77.624-11.272 19.999-15.462 32.035-40.976 30.473-66.345-1.0692-21.625-11.22-42.759-27.909-56.601-14.728-12.368-33.974-19.436-53.273-18.764z"
     filter="url(#a)"
     id="path943" />
  <path
     d="m289.36 10.096c-34.516 0.50516-66.493 26.488-73.509 60.309-6.6884 28.406 4.4501 60.037 27.481 77.833 23.632 19 59.214 22.21 85.719 6.9075 25.951-14.428 42.811-44.962 39.388-74.992-2.7899-28.418-21.754-54.504-48.592-64.577-9.6007-3.8625-20.075-5.8134-30.487-5.4798z"
     fill="#f60"
     filter="url(#a)"
     id="path945" />
  <path
     d="m289.36 10.096c-34.516 0.50516-66.493 26.488-73.509 60.309-6.6884 28.406 4.4501 60.037 27.481 77.833 23.632 19 59.214 22.21 85.719 6.9075 25.951-14.428 42.811-44.962 39.388-74.992-2.7899-28.418-21.754-54.504-48.592-64.577-9.6007-3.8625-20.075-5.8134-30.487-5.4798z"
     fill="url(#b)"
     filter="url(#a)"
     id="path947"
     style="fill:#ffffff"
     inkscape:export-filename="C:\Users\zajic\Desktop\diplomka\DP_Zajicova_Zuzana\Assets\obrázky\menu\stop.png"
     inkscape:export-xdpi="90"
     inkscape:export-ydpi="90" />
  <g
     stroke-width="2.888"
     id="g953">
    <path
       d="m265.77 51.252h51.77c5.9008 0 10.651 4.7505 10.651 10.651v57.91c0 5.9008-4.7505 10.651-10.651 10.651h-51.77c-5.9008 0-10.651-4.7505-10.651-10.651v-57.91c0-5.9008 4.7505-10.651 10.651-10.651z"
       filter="url(#c)"
       stroke="#000"
       id="path949" />
    <path
       d="m265.77 51.252h51.77c5.9008 0 10.651 4.7505 10.651 10.651v57.91c0 5.9008-4.7505 10.651-10.651 10.651h-51.77c-5.9008 0-10.651-4.7505-10.651-10.651v-57.91c0-5.9008 4.7505-10.651 10.651-10.651z"
       fill="#803300"
       stroke="#f60"
       id="path951" />
  </g>
  <g
     transform="matrix(.96881 0 0 .96881 17.033 11.086)"
     filter="url(#h)"
     stroke="#000"
     stroke-width="2.888"
     id="g961">
    <path
       d="m64.165 241.75c3.687 0 6.6551 2.9682 6.6551 6.6551v60.213c0 3.687-2.9681 6.6551-6.6551 6.6551s-6.6551-2.9682-6.6551-6.6551v-60.213c0-3.6869 2.9681-6.6551 6.6551-6.6551z"
       id="path957" />
    <path
       d="m85.715 241.75c3.687 0 6.6551 2.9682 6.6551 6.6551v60.213c0 3.687-2.9681 6.6551-6.6551 6.6551s-6.6551-2.9682-6.6551-6.6551v-60.213c0-3.6869 2.9681-6.6551 6.6551-6.6551z"
       id="path959" />
  </g>
  <path
     d="m87.27 198.63c-22.677 0.47888-44.652 11.338-59.098 28.762-15.667 18.862-21.663 45.117-15.919 68.984 5.8613 24.742 24.403 46.042 48.102 55.236 25.482 10.042 56.225 5.9389 77.624-11.272 19.999-15.462 32.035-40.976 30.473-66.345-1.0692-21.625-11.22-42.759-27.909-56.601-14.728-12.368-33.974-19.436-53.273-18.764z"
     filter="url(#a)"
     id="path963" />
  <path
     d="m87.334 200.45c-34.516 0.50516-66.493 26.488-73.509 60.309-6.6884 28.406 4.45 60.037 27.481 77.833 23.632 19 59.214 22.21 85.719 6.9075 25.951-14.428 42.811-44.962 39.388-74.992-2.7899-28.418-21.754-54.504-48.592-64.578-9.6007-3.8625-20.075-5.8134-30.487-5.4798z"
     fill="#f60"
     filter="url(#a)"
     id="path965" />
  <path
     d="m87.334 200.45c-34.516 0.50516-66.493 26.488-73.509 60.309-6.6884 28.406 4.45 60.037 27.481 77.833 23.632 19 59.214 22.21 85.719 6.9075 25.951-14.428 42.811-44.962 39.388-74.992-2.7899-28.418-21.754-54.504-48.592-64.578-9.6007-3.8625-20.075-5.8134-30.487-5.4798z"
     fill="url(#b)"
     filter="url(#a)"
     id="path967" />
  <path
     d="m85.638 205.33c-33.694 1.4615-64.288 29.008-68.15 62.731 15.732 13.015 37.96 13.352 57.251 9.9303 14.529-2.5451 27.711-9.0568 40.854-15.492 11.445-5.3514 24.031-7.044 36.512-7.9068 2.8587-0.329 7.4999 0.34802 4.4719-3.6587-10.81-28.094-40.58-47.51-70.938-45.603z"
     fill="#f95"
     opacity=".33"
     id="path969" />
  <path
     d="m87.334 200.45c-34.516 0.50516-66.493 26.488-73.509 60.309-6.6884 28.406 4.45 60.037 27.481 77.833 23.632 19 59.214 22.21 85.719 6.9075 25.951-14.428 42.811-44.962 39.388-74.992-2.7899-28.418-21.754-54.504-48.592-64.578-9.6007-3.8625-20.075-5.8134-30.487-5.4798z"
     fill="url(#i)"
     filter="url(#a)"
     id="path971"
     style="fill:#ffffff"
     inkscape:export-filename="C:\Users\zajic\Desktop\diplomka\DP_Zajicova_Zuzana\Assets\obrázky\menu\pause.png"
     inkscape:export-xdpi="90"
     inkscape:export-ydpi="90" />
  <g
     transform="matrix(.96881 0 0 .96881 17.033 11.086)"
     fill="#803300"
     stroke="#f60"
     stroke-width="2.888"
     id="g977">
    <path
       d="m64.165 241.75c3.687 0 6.6551 2.9682 6.6551 6.6551v60.213c0 3.687-2.9681 6.6551-6.6551 6.6551s-6.6551-2.9682-6.6551-6.6551v-60.213c0-3.6869 2.9681-6.6551 6.6551-6.6551z"
       id="path973" />
    <path
       d="m85.715 241.75c3.687 0 6.6551 2.9682 6.6551 6.6551v60.213c0 3.687-2.9681 6.6551-6.6551 6.6551s-6.6551-2.9682-6.6551-6.6551v-60.213c0-3.6869 2.9681-6.6551 6.6551-6.6551z"
       id="path975" />
  </g>
</svg>
