<?xml version="1.0" encoding="UTF-8" standalone="no"?>
<!-- Created with Sodipodi ("http://www.sodipodi.com/") -->

<svg
   xmlns:dc="http://purl.org/dc/elements/1.1/"
   xmlns:cc="http://creativecommons.org/ns#"
   xmlns:rdf="http://www.w3.org/1999/02/22-rdf-syntax-ns#"
   xmlns:svg="http://www.w3.org/2000/svg"
   xmlns="http://www.w3.org/2000/svg"
   xmlns:sodipodi="http://sodipodi.sourceforge.net/DTD/sodipodi-0.dtd"
   xmlns:inkscape="http://www.inkscape.org/namespaces/inkscape"
   xml:space="preserve"
   width="257mm"
   height="95mm"
   style="shape-rendering:geometricPrecision; text-rendering:geometricPrecision; image-rendering:optimizeQuality; fill-rule:evenodd"
   viewBox="0 0 8268 11692"
   id="svg2"
   sodipodi:version="0.34"
   inkscape:version="0.92.4 (5da689c313, 2019-01-14)"
   sodipodi:docname="hodnoty_2.svg"
   version="1.1"><metadata
     id="metadata34"><rdf:RDF><cc:Work
         rdf:about=""><dc:format>image/svg+xml</dc:format><dc:type
           rdf:resource="http://purl.org/dc/dcmitype/StillImage" /><dc:title></dc:title></cc:Work></rdf:RDF></metadata><sodipodi:namedview
     inkscape:window-height="986"
     inkscape:window-width="1920"
     inkscape:pageshadow="2"
     inkscape:pageopacity="0.0"
     borderopacity="1.0"
     bordercolor="#666666"
     pagecolor="#ffffff"
     id="base"
     inkscape:zoom="0.71078274"
     inkscape:cx="299.53795"
     inkscape:cy="233.3069"
     inkscape:window-x="-11"
     inkscape:window-y="-11"
     inkscape:current-layer="layer5"
     showgrid="false"
     inkscape:window-maximized="1" /><defs
     id="defs4"><style
       type="text/css"
       id="style6">
   
    .str1 {stroke:#131516;stroke-width:3}
    .str0 {stroke:#131516;stroke-width:42}
    .fil0 {fill:none}
    .fil1 {fill:#131516}
   
  </style></defs><g
     inkscape:groupmode="layer"
     id="layer8"
     inkscape:label="osnova"
     style="display:inline"><g
       style="fill-rule:evenodd;image-rendering:optimizeQuality;shape-rendering:geometricPrecision;text-rendering:geometricPrecision"
       id="Layer 1"
       transform="matrix(1.5473254,0,0,3.1566879,-860.09805,-12541.71)"><path
         class="fil0 str0"
         d="M -1503,5277 H 8195"
         id="path9"
         style="fill:none;stroke:#131516;stroke-width:42"
         inkscape:connector-curvature="0" /><path
         class="fil0 str0"
         d="M -1503,6931 H 8195"
         id="path11"
         style="fill:none;stroke:#131516;stroke-width:42"
         inkscape:connector-curvature="0" /><path
         class="fil0 str0"
         d="M -1503,6379 H 8195"
         id="path13"
         style="fill:none;stroke:#131516;stroke-width:42"
         inkscape:connector-curvature="0" /><path
         class="fil0 str0"
         d="M -1503,5828 H 8195"
         id="path15"
         style="fill:none;stroke:#131516;stroke-width:42"
         inkscape:connector-curvature="0" /><path
         class="fil0 str0"
         d="M -1503,7482 H 8195"
         id="path17"
         style="fill:none;stroke:#131516;stroke-width:42"
         inkscape:connector-curvature="0" /></g></g><g
     inkscape:groupmode="layer"
     id="layer1"
     inkscape:label="1"
     style="display:inline"><path
       class="fil1 str1"
       d="m 3116.7336,8291.6022 c 12.5383,233.5949 81.4992,429.3095 206.8826,580.8306 125.3834,151.521 275.8435,227.2815 451.3802,227.2815 134.7872,-15.7835 228.8247,-59.9771 282.1127,-135.7376 50.1533,-75.7605 75.23,-208.3414 75.23,-394.586 -18.8075,-239.9083 -87.7684,-435.6229 -213.1518,-583.9872 -125.3834,-148.3644 -275.8434,-224.1249 -457.6494,-224.1249 -125.3833,22.0968 -213.1517,66.2905 -266.4397,138.8943 -53.2879,69.4471 -78.3646,202.028 -78.3646,391.4293 z m -783.6462,132.5809 c 0,-192.558 68.9609,-347.2357 210.0172,-464.0331 141.0563,-119.9542 310.3239,-202.0281 507.8027,-252.5351 194.3443,-47.3503 376.1502,-72.6038 542.2832,-72.6038 181.8059,0 373.0156,25.2535 570.4945,72.6038 200.6134,47.3503 373.0156,132.5809 520.3411,249.3784 147.3254,116.7974 225.6901,274.6318 231.9592,467.1898 0,192.5579 -68.9608,350.3923 -210.0171,470.3465 -141.0564,119.9541 -310.324,205.1847 -504.6682,255.6917 -197.4789,50.507 -382.4194,75.7605 -557.9561,75.7605 -188.0751,0 -379.2848,-25.2535 -579.8982,-72.6038 -197.4789,-50.507 -366.7465,-132.5809 -510.9374,-252.5351 -141.0563,-119.9541 -216.2863,-277.7885 -219.4209,-476.6598 z"
       id="path21"
       style="fill:#131516;fill-rule:evenodd;stroke:#131516;stroke-width:9.43685055;image-rendering:optimizeQuality;shape-rendering:geometricPrecision;text-rendering:geometricPrecision"
       inkscape:connector-curvature="0" /></g><g
     inkscape:groupmode="layer"
     id="layer2"
     inkscape:label="2"
     style="display:inline"><path
       class="fil1 str1"
       d="M 4601.0532,7717.9129 V 2907.1206 h 150.4601 V 8273.49 c -3.1346,170.4612 -68.9609,331.4522 -197.4788,486.1299 -128.518,154.6778 -282.1127,280.9453 -467.0532,375.6459 -181.8059,91.544 -354.2081,142.051 -514.0719,148.3643 -166.133,0 -297.7856,-22.0968 -398.0923,-63.1337 -97.1721,-41.037 -169.2676,-110.4841 -216.2864,-211.4981 -43.8842,-101.014 -68.9608,-243.065 -68.9608,-422.9962 6.2691,-192.5579 72.0954,-366.1758 200.6134,-520.8535 131.6526,-151.521 294.651,-271.4751 488.9952,-359.8624 194.3443,-85.2306 385.554,-126.2675 570.4945,-126.2675 178.6713,0 329.1314,44.1936 451.3802,138.8942 z m -1122.1814,580.8306 c -65.8263,41.037 -150.46,123.1108 -253.9013,246.2217 -103.4413,123.1108 -159.8639,227.2815 -166.133,315.6688 12.5383,88.3872 68.9608,142.0509 162.9984,164.1477 94.0375,0 216.2863,-31.5668 366.7464,-94.7006 147.3255,-59.9771 291.5164,-145.2076 429.4381,-252.535 90.903,-59.9771 206.8826,-167.3045 344.8044,-318.8255 137.9217,-151.521 206.8826,-274.6319 206.8826,-369.3325 0,-88.3873 -43.8842,-142.051 -137.9218,-164.1478 -228.8247,0 -545.4177,157.8344 -952.9138,473.5032 z"
       id="path19"
       style="fill:#131516;fill-rule:evenodd;stroke:#131516;stroke-width:9.43685055;image-rendering:optimizeQuality;shape-rendering:geometricPrecision;text-rendering:geometricPrecision"
       inkscape:connector-curvature="0" /></g><g
     inkscape:groupmode="layer"
     id="layer3"
     inkscape:label="3"
     style="display:inline"><path
       class="fil1 str1"
       d="M 4582.2457,2945.0008 V 8222.983 c 0,195.7147 -62.6917,372.4892 -188.0751,527.1669 -125.3834,157.8344 -285.2472,280.9452 -476.4569,366.1758 -194.3442,85.2306 -382.4193,129.4242 -567.3598,129.4242 -175.5368,0 -322.8623,-47.3503 -441.9765,-138.8943 -119.1142,-94.7006 -184.9405,-224.1248 -197.4789,-391.4293 6.2692,-183.0879 75.2301,-356.7057 203.748,-517.6968 128.518,-160.9911 291.5164,-290.4153 482.7261,-385.1159 191.2097,-97.8573 379.2848,-145.2077 561.0907,-145.2077 184.9405,0 344.8044,53.6637 473.3223,157.8344 V 2945.0008 Z"
       id="path23"
       style="fill:#131516;fill-rule:evenodd;stroke:#131516;stroke-width:9.43685055;image-rendering:optimizeQuality;shape-rendering:geometricPrecision;text-rendering:geometricPrecision"
       inkscape:connector-curvature="0" /></g><g
     inkscape:groupmode="layer"
     id="layer4"
     inkscape:label="4"
     style="display:inline"><path
       transform="matrix(3.1345849,0,0,3.1566879,-6354.321,-12541.71)"
       class="fil1 str1"
       d="m 3441,4906 h 48 c 12,76 27,140 47,192 19,51 42,95 67,132 26,37 65,84 117,142 52,58 93,107 125,148 96,123 144,252 144,386 0,138 -58,306 -176,504 h -32 c 15,-35 33,-75 53,-120 19,-46 36,-87 50,-124 13,-37 24,-74 32,-111 7,-37 11,-73 11,-109 0,-57 -11,-114 -34,-171 -23,-58 -56,-111 -97,-160 -42,-49 -89,-88 -142,-119 -53,-30 -108,-47 -165,-50 v 1132 c 0,64 -19,122 -59,172 -39,50 -90,89 -152,116 -61,27 -122,40 -183,40 -58,0 -107,-15 -146,-44 -38,-29 -58,-72 -58,-128 0,-59 20,-114 59,-165 39,-50 89,-90 149,-119 60,-29 118,-44 174,-44 78,0 134,15 168,46 V 5430 Z"
       id="path25"
       style="fill:#131516;fill-rule:evenodd;stroke:#131516;stroke-width:3;image-rendering:optimizeQuality;shape-rendering:geometricPrecision;text-rendering:geometricPrecision"
       inkscape:connector-curvature="0" /></g><g
     inkscape:groupmode="layer"
     id="layer5"
     inkscape:label="5"
     style="display:inline"><path
       class="fil1 str1"
       d="M 4601.0532,7815.0974 V 2934.8579 h 162.9984 c 21.9421,243.065 75.2301,432.4662 162.9984,561.8905 84.6338,129.4242 225.6901,284.1019 426.3036,457.7197 197.4788,176.7745 351.0735,337.7656 463.9185,482.9732 162.9985,205.1848 285.2473,404.0561 373.0156,593.4574 84.6338,189.4012 128.518,407.2127 128.518,656.5911 0,192.5579 -28.2112,391.4293 -87.7684,599.7707 109.7105,148.3643 162.9985,381.9592 162.9985,694.4713 0,202.028 -25.0767,400.8994 -78.3647,599.7707 -56.4225,198.8713 -134.7871,372.4892 -238.2284,517.6968 h -103.4413 c 197.4788,-385.1159 294.651,-722.8815 294.651,-1010.1401 0,-549.2637 -316.5931,-984.8866 -952.9138,-1306.8688 -47.0188,-25.2535 -112.8451,-66.2905 -197.4789,-126.2675 -87.7684,-56.8204 -156.7292,-104.1707 -200.6134,-132.5809 -47.0188,-28.4102 -97.1722,-56.8204 -153.5947,-75.7605 v 2777.8853 c 0,189.4013 -62.6917,363.0191 -184.9405,517.6968 -125.3834,154.6777 -282.1126,274.6319 -473.3223,363.0192 -191.2097,85.2305 -379.2848,129.4242 -564.2253,129.4242 -178.6713,0 -325.9968,-41.037 -441.9765,-123.1109 -119.1142,-82.0739 -184.9405,-205.1847 -197.4788,-369.3325 0,-186.2445 62.6917,-363.0191 191.2097,-530.3235 128.5179,-167.3045 291.5164,-299.8854 485.8606,-397.7427 197.4789,-97.8573 385.554,-145.2076 570.4945,-145.2076 191.2097,0 341.6697,47.3503 451.3802,145.2076 z m 200.6134,-3705.9516 c 0,277.7885 72.0955,517.6968 216.2864,719.7248 147.3255,202.0281 354.2081,432.4663 626.917,694.4714 269.5743,262.0051 438.8419,457.7197 507.8027,590.3006 15.673,-82.0739 21.9421,-170.4611 21.9421,-265.1618 0,-208.3414 -40.7496,-404.056 -125.3834,-580.8305 -84.6338,-179.9312 -194.3442,-340.9223 -325.9968,-479.8166 -131.6526,-138.8943 -275.8435,-262.0051 -429.4381,-372.4892 -156.7293,-110.484 -319.7277,-211.4981 -492.1299,-306.1987 z"
       id="path27"
       style="fill:#131516;fill-rule:evenodd;stroke:#131516;stroke-width:9.43685055;image-rendering:optimizeQuality;shape-rendering:geometricPrecision;text-rendering:geometricPrecision"
       inkscape:connector-curvature="0" /></g><g
     inkscape:groupmode="layer"
     id="layer6"
     inkscape:label="6"
     style="display:inline"><path
       class="fil1 str1"
       d="m 4431.7856,7825.2403 v -5795.679 h 153.5947 c 18.8075,211.4981 59.5571,378.8026 122.2488,495.6 62.6917,116.7975 153.5947,236.7516 282.1127,356.7058 125.3833,119.9541 304.0547,287.2586 532.8794,505.07 410.6306,397.7427 614.3786,864.9325 614.3786,1407.8828 0,186.2446 -25.0767,369.3325 -75.23,555.5771 50.1533,157.8344 75.23,328.2956 75.23,505.0701 0,138.8942 -18.8075,299.8853 -62.6917,479.8165 100.3067,129.4242 150.4601,334.609 150.4601,618.7109 0,195.7146 -25.0767,397.7426 -81.4992,599.7707 -53.2879,202.028 -131.6526,381.9592 -238.2285,542.9503 h -100.3067 c 188.0751,-394.586 282.1127,-735.5083 282.1127,-1022.7669 0,-183.0879 -34.4805,-350.3923 -106.5759,-498.7567 -72.0955,-151.521 -172.4022,-287.2586 -300.9202,-410.3694 -128.5179,-119.9541 -266.4397,-233.5949 -416.8998,-337.7656 -150.46,-101.014 -376.1501,-249.3784 -677.0703,-438.7796 v 2847.3325 c 0,186.2445 -62.6917,356.7057 -188.0751,511.3834 -125.3834,154.6777 -282.1126,277.7885 -473.3223,366.1758 -191.2097,88.3873 -379.2848,132.5809 -564.2253,132.5809 -188.0751,0 -341.6697,-47.3503 -460.784,-138.8943 -119.1142,-94.7006 -178.6713,-233.5949 -178.6713,-416.6828 0,-179.9312 65.8263,-347.2357 194.3442,-501.9134 125.3834,-154.6777 288.3819,-277.7885 482.7261,-372.4891 194.3443,-91.544 376.1502,-135.7376 548.5524,-135.7376 203.748,0 366.7464,47.3503 485.8606,145.2076 z m 175.5368,-4646.6446 c 0,186.2446 43.8842,347.2357 125.3834,476.6599 81.4992,132.5809 225.6901,293.572 429.4381,482.9733 203.748,189.4012 363.6119,344.0789 479.5915,470.3465 115.9797,126.2675 225.6901,296.7286 325.9968,508.2267 12.5384,-75.7605 18.8076,-148.3643 18.8076,-214.6548 0,-258.8484 -68.9609,-492.4433 -210.0172,-703.9414 -141.0564,-214.6547 -297.7856,-388.2726 -476.4569,-527.1668 -175.5368,-138.8943 -407.4961,-303.0421 -692.7433,-492.4434 z m -12.5383,1098.5274 c 12.5383,198.8714 68.9608,375.6459 169.2675,533.4803 100.3068,157.8344 225.6902,309.3554 379.2848,457.7197 153.5947,145.2077 313.4585,293.572 476.4569,448.2497 162.9984,154.6777 278.9781,296.7287 347.9389,422.9962 6.2692,-34.7236 6.2692,-85.2306 6.2692,-151.521 0,-637.651 -457.6494,-1209.0115 -1379.2173,-1710.9249 z"
       id="path29"
       style="fill:#131516;fill-rule:evenodd;stroke:#131516;stroke-width:9.43685055;image-rendering:optimizeQuality;shape-rendering:geometricPrecision;text-rendering:geometricPrecision"
       inkscape:connector-curvature="0" /></g><g
     inkscape:groupmode="layer"
     id="layer7"
     inkscape:label="7"
     style="display:inline"><path
       class="fil1 str1"
       d="M 4568.6584,7782.7026 V 1570.3408 598.08092 h 150.4601 c 0,246.22166 56.4225,448.24968 172.4021,602.92738 115.9797,151.521 300.9202,350.3924 561.0907,593.4574 260.1706,243.0649 457.6494,476.6598 589.302,700.7847 131.6526,227.2815 197.4789,514.5401 197.4789,861.7758 0,167.3044 -21.9421,366.1758 -62.6917,593.4573 75.23,145.2076 112.845,331.4522 112.845,555.5771 0,214.6547 -37.615,416.6828 -112.845,606.084 81.4992,189.4013 125.3833,391.4293 125.3833,599.7707 0,205.1848 -43.8841,391.4293 -125.3833,555.5771 97.1721,148.3643 147.3254,359.8624 147.3254,631.3376 0,385.1159 -94.0375,776.5452 -282.1126,1180.6013 h -112.8451 c 172.4022,-492.4433 257.036,-874.4026 257.036,-1142.7211 0,-205.1847 -37.615,-369.3324 -112.845,-498.7566 -78.3647,-129.4242 -166.133,-230.4383 -263.3052,-299.8854 -97.1721,-69.4471 -266.4397,-176.7745 -507.8027,-321.9822 -241.3631,-145.2076 -429.4382,-274.6318 -570.4945,-388.2726 l -12.5383,2765.2586 c 0,208.3414 -62.6917,391.4293 -184.9405,552.4204 -125.3834,160.9911 -282.1127,280.9452 -473.3224,366.1758 -191.2096,85.2306 -379.2847,129.4242 -564.2252,129.4242 -188.0751,0 -341.6698,-44.1936 -467.0532,-135.7376 -122.2488,-91.5439 -184.9405,-220.9681 -184.9405,-394.586 0,-183.0879 65.8263,-356.7057 197.4789,-514.5401 128.5179,-160.9911 297.7855,-287.2586 498.399,-381.9592 200.6134,-94.7007 398.0922,-138.8943 589.3019,-138.8943 184.9405,0 329.1314,34.7236 438.8419,107.3274 z m 162.9984,-4854.986 c 0,217.8115 43.8842,397.7427 128.518,542.9503 84.6338,145.2077 231.9593,309.3554 438.8419,495.6 206.8826,186.2446 369.881,337.7656 485.8606,460.8765 115.9797,123.1108 222.5556,287.2586 319.7277,495.6 18.8075,-78.9172 25.0767,-164.1478 25.0767,-258.8484 0,-243.065 -65.8263,-473.5032 -203.748,-691.3147 -134.7872,-220.9681 -307.1894,-416.6828 -520.3411,-587.1439 -210.0172,-173.6179 -435.7073,-325.1389 -673.9358,-457.7198 z m -12.5383,1161.6612 c 0,211.498 53.2879,410.3694 156.7292,590.3006 103.4413,179.9312 241.3631,356.7057 410.6306,530.3236 172.4022,170.4611 335.4006,334.6089 492.1299,486.1299 153.5946,154.6777 260.1705,293.572 313.4585,413.5261 21.9421,-104.1707 31.3458,-195.7146 31.3458,-271.4751 0,-372.4892 -141.0563,-710.2548 -426.3035,-1016.4536 -285.2473,-303.042 -611.2441,-546.107 -977.9905,-732.3515 z m 12.5383,-2335.9491 c 0,208.3414 40.7496,385.1159 119.1142,527.1669 78.3647,142.0509 222.5556,309.3554 426.3036,501.9134 206.8826,192.5579 363.6118,347.2356 476.4569,464.0331 109.7105,116.7974 222.5555,287.2586 338.5352,508.2267 12.5383,-82.0738 18.8075,-157.8344 18.8075,-233.5949 0,-293.5719 -72.0955,-549.2637 -216.2864,-770.2318 -144.1909,-224.1249 -310.3239,-404.0561 -492.1298,-542.9503 -181.8059,-138.8943 -404.3615,-290.4153 -670.8012,-454.5631 z"
       id="path31"
       style="fill:#131516;fill-rule:evenodd;stroke:#131516;stroke-width:9.43685055;image-rendering:optimizeQuality;shape-rendering:geometricPrecision;text-rendering:geometricPrecision"
       inkscape:connector-curvature="0" /></g></svg>