<?xml version="1.0" encoding="UTF-8" standalone="no"?>
<!-- Created with Inkscape (http://www.inkscape.org/) -->

<svg
   xmlns:dc="http://purl.org/dc/elements/1.1/"
   xmlns:cc="http://creativecommons.org/ns#"
   xmlns:rdf="http://www.w3.org/1999/02/22-rdf-syntax-ns#"
   xmlns:svg="http://www.w3.org/2000/svg"
   xmlns="http://www.w3.org/2000/svg"
   xmlns:sodipodi="http://sodipodi.sourceforge.net/DTD/sodipodi-0.dtd"
   xmlns:inkscape="http://www.inkscape.org/namespaces/inkscape"
   width="210mm"
   height="297mm"
   viewBox="0 0 744.09448819 1052.3622047"
   id="svg2"
   version="1.1"
   inkscape:version="0.92.4 (5da689c313, 2019-01-14)"
   sodipodi:docname="hod2.svg"
   inkscape:export-filename="F:\obrázky\postava\holka\hod2.png"
   inkscape:export-xdpi="90"
   inkscape:export-ydpi="90">
  <defs
     id="defs4">
    <pattern
       y="0"
       x="0"
       height="6"
       width="6"
       patternUnits="userSpaceOnUse"
       id="EMFhbasepattern" />
    <filter
       inkscape:collect="always"
       style="color-interpolation-filters:sRGB"
       id="filter4261"
       x="-0.108"
       width="1.216"
       y="-0.108"
       height="1.216">
      <feGaussianBlur
         inkscape:collect="always"
         stdDeviation="1.5068982"
         id="feGaussianBlur4263" />
    </filter>
    <filter
       inkscape:collect="always"
       style="color-interpolation-filters:sRGB"
       id="filter4362"
       x="-0.23379847"
       width="1.4675969"
       y="-0.37491707"
       height="1.7498341">
      <feGaussianBlur
         inkscape:collect="always"
         stdDeviation="1.4785542"
         id="feGaussianBlur4364" />
    </filter>
    <filter
       inkscape:collect="always"
       style="color-interpolation-filters:sRGB"
       id="filter4362-4"
       x="-0.23379847"
       width="1.4675969"
       y="-0.37491706"
       height="1.7498341">
      <feGaussianBlur
         inkscape:collect="always"
         stdDeviation="1.4785542"
         id="feGaussianBlur4364-7" />
    </filter>
    <filter
       inkscape:collect="always"
       style="color-interpolation-filters:sRGB"
       id="filter4261-0"
       x="-0.108"
       width="1.216"
       y="-0.108"
       height="1.216">
      <feGaussianBlur
         inkscape:collect="always"
         stdDeviation="1.5068982"
         id="feGaussianBlur4263-9" />
    </filter>
  </defs>
  <sodipodi:namedview
     id="base"
     pagecolor="#ffffff"
     bordercolor="#666666"
     borderopacity="1.0"
     inkscape:pageopacity="0.0"
     inkscape:pageshadow="2"
     inkscape:zoom="0.49497475"
     inkscape:cx="-439.18207"
     inkscape:cy="413.89577"
     inkscape:document-units="px"
     inkscape:current-layer="layer1"
     showgrid="false"
     inkscape:window-width="1920"
     inkscape:window-height="986"
     inkscape:window-x="-11"
     inkscape:window-y="-11"
     inkscape:window-maximized="1" />
  <metadata
     id="metadata7">
    <rdf:RDF>
      <cc:Work
         rdf:about="">
        <dc:format>image/svg+xml</dc:format>
        <dc:type
           rdf:resource="http://purl.org/dc/dcmitype/StillImage" />
        <dc:title></dc:title>
      </cc:Work>
    </rdf:RDF>
  </metadata>
  <g
     inkscape:label="Vrstva 1"
     inkscape:groupmode="layer"
     id="layer1">
    <g
       id="g4161"
       transform="translate(-5.0507653,-2.0102186e-6)">
      <path
         sodipodi:nodetypes="cccccc"
         style="fill:#784421;stroke:#000000;stroke-width:2.43561602px;stroke-linecap:butt;stroke-linejoin:miter;stroke-miterlimit:4;stroke-dasharray:none;stroke-opacity:1"
         d="m 318.57896,130.28871 c -152.00054,3.42791 -158.85642,161.02128 -157.32289,202.96832 -1.80415,39.5102 3.69859,93.72559 38.87971,210.72506 l 263.8377,5.50275 c 21.20936,-79.36647 28.86641,-73.97931 40.72355,-224.62366 -0.20418,-97.85219 -27.6474,-206.69317 -186.11807,-194.57247 z"
         id="path3341"
         inkscape:connector-curvature="0" />
      <path
         style="fill:none;stroke:#000000;stroke-width:5;stroke-linecap:butt;stroke-linejoin:miter;stroke-miterlimit:4;stroke-dasharray:none;stroke-opacity:1"
         d="m 279.699,728.72825 c 16.05714,77.39903 36.26388,127.73547 57.10209,173.10927 l 0,0 0,0"
         id="path3343"
         inkscape:connector-curvature="0" />
      <path
         style="fill:none;stroke:#000000;stroke-width:5;stroke-linecap:butt;stroke-linejoin:miter;stroke-miterlimit:4;stroke-dasharray:none;stroke-opacity:1"
         d="m 361.06725,734.14077 c 0,103.46935 -11.3663,132.69577 -20.65781,176.17635"
         id="path3345"
         inkscape:connector-curvature="0" />
      <path
         style="fill:#241c1c;stroke:#000000;stroke-width:2.43561602px;stroke-linecap:butt;stroke-linejoin:miter;stroke-miterlimit:4;stroke-dasharray:none;stroke-opacity:1"
         d="m 341.04092,908.51295 c -5.05172,17.5907 16.50818,17.7711 53.49253,7.93838 10.64459,-3.51815 16.23755,-10.19361 9.11105,-24.98782 -9.02087,-11.00545 -44.38146,-3.96916 -62.60358,17.04944 z"
         id="path3347"
         inkscape:connector-curvature="0" />
      <path
         style="fill:#241c1c;stroke:#000000;stroke-width:2.43561602px;stroke-linecap:butt;stroke-linejoin:miter;stroke-miterlimit:4;stroke-dasharray:none;stroke-opacity:1"
         d="m 336.16964,900.57457 c 4.14957,24.08572 -32.65556,19.48508 -33.37721,18.85364 -16.68861,-1.53358 -34.27929,-1.35312 -32.2045,-12.08799 1.35314,-24.71714 67.6565,-16.59836 65.58171,-6.76565 z"
         id="path3349"
         inkscape:connector-curvature="0" />
      <path
         style="fill:#e9c6af;stroke:#000000;stroke-width:2.43561602px;stroke-linecap:butt;stroke-linejoin:miter;stroke-miterlimit:4;stroke-dasharray:none;stroke-opacity:1"
         d="m 241.45102,626.34262 c 0,8.84044 -12.80951,16.05715 -28.59594,16.05715 -15.78639,0 -28.50569,-7.21671 -28.50569,-16.05715 0,-8.93066 12.7193,-16.14734 28.50569,-16.14734 15.78642,0 28.59594,7.21668 28.59594,16.14734 z"
         id="path3351"
         inkscape:connector-curvature="0" />
      <path
         sodipodi:nodetypes="cc"
         style="fill:none;stroke:#000000;stroke-width:4.5;stroke-linecap:butt;stroke-linejoin:miter;stroke-miterlimit:4;stroke-dasharray:none;stroke-opacity:1"
         d="m 368.4669,475.47557 c 36.69389,91.47034 41.838,109.10691 173.98502,100.09463"
         id="path3367"
         inkscape:connector-curvature="0" />
      <path
         style="fill:#e9c6af;stroke:#000000;stroke-width:2.43561602px;stroke-linecap:butt;stroke-linejoin:miter;stroke-miterlimit:4;stroke-dasharray:none;stroke-opacity:1"
         d="m 600.87446,574.42576 c 0,9.38169 -13.17045,17.04944 -29.40802,17.04944 -16.32778,0 -29.49823,-7.66775 -29.49823,-17.04944 0,-9.38168 13.17046,-16.95922 29.49823,-16.95922 16.23757,0 29.40802,7.57754 29.40802,16.95922 z"
         id="path3353"
         inkscape:connector-curvature="0" />
      <path
         style="fill:#ff0000;stroke:#000000;stroke-width:2.43561602px;stroke-linecap:butt;stroke-linejoin:miter;stroke-miterlimit:4;stroke-dasharray:none;stroke-opacity:1"
         d="m 285.74298,460.17945 c 10.37401,108.0688 -66.66363,201.97604 -109.9634,286.13948 6.40481,-3.60832 28.32526,-37.88764 49.88502,-18.8536 26.88194,38.97016 38.33846,15.33546 46.72749,6.13418 10.37401,-6.76564 23.27384,-17.13961 38.3387,1.17272 26.70176,22.55219 27.24302,17.04946 46.09661,2.43565 21.83053,-18.04172 35.27042,-12.80966 42.57733,-0.63148 13.71169,18.31239 33.64779,16.77882 47.35954,-0.63144 28.23529,-23.9053 40.14284,-1.44334 57.73353,12.80962 C 428.72251,662.06526 371.4412,556.97215 368.37415,459.00672"
         id="path3359"
         inkscape:connector-curvature="0" />
      <path
         style="fill:none;stroke:#000000;stroke-width:4.5;stroke-linecap:butt;stroke-linejoin:miter;stroke-miterlimit:4;stroke-dasharray:none;stroke-opacity:1"
         d="M 287.0059,475.3345 C 113.44585,497.88663 123.81973,540.19333 239.6468,619.93782"
         id="path3365"
         inkscape:connector-curvature="0" />
      <path
         sodipodi:nodetypes="ccccc"
         inkscape:connector-curvature="0"
         id="path4167"
         d="M 176.14456,315.50827 C 176.24745,444.51332 246.69858,459.50571 323.62683,464.0007 424.61543,453.61161 517.05979,412.16778 478.18017,256.91942 452.96658,216.53136 357.8826,268.26718 307.46439,187.2189 292.22604,238.49015 177.94762,278.82706 176.14456,315.50827 Z"
         style="fill:#e9c6af;fill-rule:evenodd;stroke:#000000;stroke-width:2.5;stroke-linecap:butt;stroke-linejoin:miter;stroke-miterlimit:4;stroke-dasharray:none;stroke-opacity:1" />
      <circle
         r="22.5"
         cy="301.22058"
         cx="262.23553"
         id="path4182"
         style="fill:#1a1a1a;fill-opacity:1;stroke:#000000;stroke-width:1.10000002;stroke-miterlimit:4;stroke-dasharray:none;stroke-opacity:1" />
      <path
         sodipodi:nodetypes="cc"
         inkscape:connector-curvature="0"
         id="path4178"
         d="m 240.08216,387.62376 c 55.18349,32.29795 114.22384,46.16864 186.42857,-2.85714"
         style="fill:none;fill-rule:evenodd;stroke:#000000;stroke-width:4;stroke-linecap:butt;stroke-linejoin:miter;stroke-miterlimit:4;stroke-dasharray:none;stroke-opacity:1" />
      <circle
         r="16.743313"
         cy="304.16699"
         cx="260.18201"
         id="path4184"
         style="fill:#333333;fill-opacity:1;stroke:none;stroke-width:1.00623226;stroke-miterlimit:4;stroke-dasharray:none;stroke-opacity:1;filter:url(#filter4261)" />
      <path
         transform="matrix(1.1697312,0.22920797,-0.2297222,1.1723554,14.233499,-107.63173)"
         inkscape:connector-curvature="0"
         id="path4186"
         d="m 272.32227,279.86133 a 3.9285715,3.9285715 0 0 0 -2.13672,0.63281 3.9285715,3.9285715 0 0 0 -1.43555,-0.27539 3.9285715,3.9285715 0 0 0 -3.92773,3.92969 3.9285715,3.9285715 0 0 0 3.92773,3.92773 3.9285715,3.9285715 0 0 0 2.13477,-0.63281 3.9285715,3.9285715 0 0 0 1.4375,0.27539 3.9285715,3.9285715 0 0 0 0.55468,-0.043 3.9285715,3.9285715 0 0 0 3.19532,1.65039 3.9285715,3.9285715 0 0 0 3.92773,-3.92773 3.9285715,3.9285715 0 0 0 -3.92773,-3.92969 3.9285715,3.9285715 0 0 0 -0.55665,0.0449 3.9285715,3.9285715 0 0 0 -3.19335,-1.65234 z"
         style="fill:#ffffff;fill-opacity:1;stroke:none;stroke-width:1.10000002;stroke-miterlimit:4;stroke-dasharray:none;stroke-opacity:1;filter:url(#filter4362)" />
      <circle
         r="22.5"
         cy="299.84744"
         cx="397.52612"
         id="path4182-5"
         style="fill:#1a1a1a;fill-opacity:1;stroke:#000000;stroke-width:1.10000002;stroke-miterlimit:4;stroke-dasharray:none;stroke-opacity:1" />
      <circle
         r="16.743313"
         cy="302.79385"
         cx="395.4726"
         id="path4184-9"
         style="fill:#333333;fill-opacity:1;stroke:none;stroke-width:1.00623226;stroke-miterlimit:4;stroke-dasharray:none;stroke-opacity:1;filter:url(#filter4261-0)" />
      <path
         transform="matrix(1.1697312,0.22920797,-0.2297222,1.1723554,149.52412,-109.00487)"
         inkscape:connector-curvature="0"
         id="path4186-5"
         d="m 272.32227,279.86133 a 3.9285715,3.9285715 0 0 0 -2.13672,0.63281 3.9285715,3.9285715 0 0 0 -1.43555,-0.27539 3.9285715,3.9285715 0 0 0 -3.92773,3.92969 3.9285715,3.9285715 0 0 0 3.92773,3.92773 3.9285715,3.9285715 0 0 0 2.13477,-0.63281 3.9285715,3.9285715 0 0 0 1.4375,0.27539 3.9285715,3.9285715 0 0 0 0.55468,-0.043 3.9285715,3.9285715 0 0 0 3.19532,1.65039 3.9285715,3.9285715 0 0 0 3.92773,-3.92773 3.9285715,3.9285715 0 0 0 -3.92773,-3.92969 3.9285715,3.9285715 0 0 0 -0.55665,0.0449 3.9285715,3.9285715 0 0 0 -3.19335,-1.65234 z"
         style="fill:#ffffff;fill-opacity:1;stroke:none;stroke-width:1.10000002;stroke-miterlimit:4;stroke-dasharray:none;stroke-opacity:1;filter:url(#filter4362-4)" />
      <path
         sodipodi:nodetypes="cc"
         inkscape:connector-curvature="0"
         id="path4399"
         d="m 313.55206,359.50049 c 11.90477,-8.57143 22.85715,-8.57143 32.85715,0"
         style="fill:none;fill-rule:evenodd;stroke:#000000;stroke-width:2;stroke-linecap:butt;stroke-linejoin:miter;stroke-miterlimit:4;stroke-dasharray:none;stroke-opacity:1" />
    </g>
  </g>
</svg>
