<?xml version="1.0" encoding="UTF-8" standalone="no"?>
<!-- Created with Inkscape (http://www.inkscape.org/) -->

<svg
   xmlns:dc="http://purl.org/dc/elements/1.1/"
   xmlns:cc="http://creativecommons.org/ns#"
   xmlns:rdf="http://www.w3.org/1999/02/22-rdf-syntax-ns#"
   xmlns:svg="http://www.w3.org/2000/svg"
   xmlns="http://www.w3.org/2000/svg"
   xmlns:sodipodi="http://sodipodi.sourceforge.net/DTD/sodipodi-0.dtd"
   xmlns:inkscape="http://www.inkscape.org/namespaces/inkscape"
   width="210mm"
   height="297mm"
   viewBox="0 0 744.09448819 1052.3622047"
   id="svg2"
   version="1.1"
   inkscape:version="0.92.4 (5da689c313, 2019-01-14)"
   sodipodi:docname="stand_h1.svg"
   inkscape:export-filename="F:\praktická_část\zdrojový kód\obrázky\postava\holka\stand_h1.png"
   inkscape:export-xdpi="90"
   inkscape:export-ydpi="90">
  <defs
     id="defs4">
    <pattern
       y="0"
       x="0"
       height="6"
       width="6"
       patternUnits="userSpaceOnUse"
       id="EMFhbasepattern" />
    <filter
       inkscape:collect="always"
       style="color-interpolation-filters:sRGB"
       id="filter4261"
       x="-0.108"
       width="1.216"
       y="-0.108"
       height="1.216">
      <feGaussianBlur
         inkscape:collect="always"
         stdDeviation="1.5068982"
         id="feGaussianBlur4263" />
    </filter>
    <filter
       inkscape:collect="always"
       style="color-interpolation-filters:sRGB"
       id="filter4362"
       x="-0.23379847"
       width="1.4675969"
       y="-0.37491707"
       height="1.7498341">
      <feGaussianBlur
         inkscape:collect="always"
         stdDeviation="1.4785542"
         id="feGaussianBlur4364" />
    </filter>
    <filter
       inkscape:collect="always"
       style="color-interpolation-filters:sRGB"
       id="filter4362-4"
       x="-0.23379847"
       width="1.4675969"
       y="-0.37491706"
       height="1.7498341">
      <feGaussianBlur
         inkscape:collect="always"
         stdDeviation="1.4785542"
         id="feGaussianBlur4364-7" />
    </filter>
    <filter
       inkscape:collect="always"
       style="color-interpolation-filters:sRGB"
       id="filter4261-0"
       x="-0.108"
       width="1.216"
       y="-0.108"
       height="1.216">
      <feGaussianBlur
         inkscape:collect="always"
         stdDeviation="1.5068982"
         id="feGaussianBlur4263-9" />
    </filter>
  </defs>
  <sodipodi:namedview
     id="base"
     pagecolor="#ffffff"
     bordercolor="#666666"
     borderopacity="1.0"
     inkscape:pageopacity="0.0"
     inkscape:pageshadow="2"
     inkscape:zoom="0.49497475"
     inkscape:cx="-36.246061"
     inkscape:cy="560.77297"
     inkscape:document-units="px"
     inkscape:current-layer="g4173"
     showgrid="false"
     inkscape:window-width="1920"
     inkscape:window-height="986"
     inkscape:window-x="-11"
     inkscape:window-y="-11"
     inkscape:window-maximized="1" />
  <metadata
     id="metadata7">
    <rdf:RDF>
      <cc:Work
         rdf:about="">
        <dc:format>image/svg+xml</dc:format>
        <dc:type
           rdf:resource="http://purl.org/dc/dcmitype/StillImage" />
        <dc:title></dc:title>
      </cc:Work>
    </rdf:RDF>
  </metadata>
  <g
     inkscape:label="Vrstva 1"
     inkscape:groupmode="layer"
     id="layer1">
    <g
       id="g4181"
       transform="translate(-43.0379,-2.0102186e-6)">
      <path
         sodipodi:nodetypes="cccccc"
         style="fill:#784421;stroke:#000000;stroke-width:2.43561602px;stroke-linecap:butt;stroke-linejoin:miter;stroke-miterlimit:4;stroke-dasharray:none;stroke-opacity:1"
         d="m 361.61686,130.28871 c -152.00054,3.42791 -158.85642,161.02128 -157.32289,202.96832 -1.80415,39.5102 3.69859,93.72559 38.87971,210.72506 l 263.8377,5.50275 c 21.20936,-79.36647 28.86641,-73.97931 40.72355,-224.62366 -0.20418,-97.85219 -27.6474,-206.69317 -186.11807,-194.57247 z"
         id="path3341"
         inkscape:connector-curvature="0" />
      <path
         style="fill:none;stroke:#000000;stroke-width:5;stroke-linecap:butt;stroke-linejoin:miter;stroke-miterlimit:4;stroke-dasharray:none;stroke-opacity:1"
         d="m 322.7369,728.72825 c 16.05714,77.39903 36.26388,127.73547 57.10209,173.10927 l 0,0 0,0"
         id="path3343"
         inkscape:connector-curvature="0" />
      <path
         style="fill:none;stroke:#000000;stroke-width:5;stroke-linecap:butt;stroke-linejoin:miter;stroke-miterlimit:4;stroke-dasharray:none;stroke-opacity:1"
         d="m 404.10515,734.14077 c 0,103.46935 -11.3663,132.69577 -20.65781,176.17635"
         id="path3345"
         inkscape:connector-curvature="0" />
      <path
         style="fill:#241c1c;stroke:#000000;stroke-width:2.43561602px;stroke-linecap:butt;stroke-linejoin:miter;stroke-miterlimit:4;stroke-dasharray:none;stroke-opacity:1"
         d="m 384.07882,908.51295 c -5.05172,17.5907 16.50818,17.7711 53.49253,7.93838 10.64459,-3.51815 16.23755,-10.19361 9.11105,-24.98782 -9.02087,-11.00545 -44.38146,-3.96916 -62.60358,17.04944 z"
         id="path3347"
         inkscape:connector-curvature="0" />
      <path
         style="fill:#241c1c;stroke:#000000;stroke-width:2.43561602px;stroke-linecap:butt;stroke-linejoin:miter;stroke-miterlimit:4;stroke-dasharray:none;stroke-opacity:1"
         d="m 379.20754,900.57457 c 4.14957,24.08572 -32.65556,19.48508 -33.37721,18.85364 -16.68861,-1.53358 -34.27929,-1.35312 -32.2045,-12.08799 1.35314,-24.71714 67.6565,-16.59836 65.58171,-6.76565 z"
         id="path3349"
         inkscape:connector-curvature="0" />
      <path
         style="fill:#e9c6af;stroke:#000000;stroke-width:2.43561602px;stroke-linecap:butt;stroke-linejoin:miter;stroke-miterlimit:4;stroke-dasharray:none;stroke-opacity:1"
         d="m 284.48892,626.34262 c 0,8.84044 -12.80951,16.05715 -28.59594,16.05715 -15.78639,0 -28.50569,-7.21671 -28.50569,-16.05715 0,-8.93066 12.7193,-16.14734 28.50569,-16.14734 15.78642,0 28.59594,7.21668 28.59594,16.14734 z"
         id="path3351"
         inkscape:connector-curvature="0" />
      <path
         sodipodi:nodetypes="cc"
         style="fill:none;stroke:#000000;stroke-width:4.5;stroke-linecap:butt;stroke-linejoin:miter;stroke-miterlimit:4;stroke-dasharray:none;stroke-opacity:1"
         d="M 578.21699,620.85316 C 448.18403,597.55056 452.52182,571.23579 411.5048,475.47557"
         id="path3367"
         inkscape:connector-curvature="0" />
      <path
         style="fill:#e9c6af;stroke:#000000;stroke-width:2.43561602px;stroke-linecap:butt;stroke-linejoin:miter;stroke-miterlimit:4;stroke-dasharray:none;stroke-opacity:1"
         d="m 633.81083,622.91308 c 0,9.38169 -13.17045,17.04944 -29.40802,17.04944 -16.32778,0 -29.49823,-7.66775 -29.49823,-17.04944 0,-9.38168 13.17046,-16.95922 29.49823,-16.95922 16.23757,0 29.40802,7.57754 29.40802,16.95922 z"
         id="path3353"
         inkscape:connector-curvature="0" />
      <path
         style="fill:#ff0000;stroke:#000000;stroke-width:2.43561602px;stroke-linecap:butt;stroke-linejoin:miter;stroke-miterlimit:4;stroke-dasharray:none;stroke-opacity:1"
         d="m 328.78088,460.17945 c 10.37401,108.0688 -66.66363,201.97604 -109.9634,286.13948 6.40481,-3.60832 28.32526,-37.88764 49.88502,-18.8536 26.88194,38.97016 38.33846,15.33546 46.72749,6.13418 10.37401,-6.76564 23.27384,-17.13961 38.3387,1.17272 26.70176,22.55219 27.24302,17.04946 46.09661,2.43565 21.83053,-18.04172 35.27042,-12.80966 42.57733,-0.63148 13.71169,18.31239 33.64779,16.77882 47.35954,-0.63144 28.23529,-23.9053 40.14284,-1.44334 57.73353,12.80962 C 471.76041,662.06526 414.4791,556.97215 411.41205,459.00672"
         id="path3359"
         inkscape:connector-curvature="0" />
      <path
         style="fill:none;stroke:#000000;stroke-width:4.5;stroke-linecap:butt;stroke-linejoin:miter;stroke-miterlimit:4;stroke-dasharray:none;stroke-opacity:1"
         d="M 330.0438,475.3345 C 156.48375,497.88663 166.85763,540.19333 282.6847,619.93782"
         id="path3365"
         inkscape:connector-curvature="0" />
      <path
         sodipodi:nodetypes="ccccc"
         inkscape:connector-curvature="0"
         id="path4167"
         d="M 219.18246,315.50827 C 219.28535,444.51332 289.73648,459.50571 366.66473,464.0007 467.65333,453.61161 560.09769,412.16778 521.21807,256.91942 496.00448,216.53136 400.9205,268.26718 350.50229,187.2189 335.26394,238.49015 220.98552,278.82706 219.18246,315.50827 Z"
         style="fill:#e9c6af;fill-rule:evenodd;stroke:#000000;stroke-width:2.5;stroke-linecap:butt;stroke-linejoin:miter;stroke-miterlimit:4;stroke-dasharray:none;stroke-opacity:1" />
      <circle
         r="22.5"
         cy="301.22058"
         cx="305.27344"
         id="path4182"
         style="fill:#1a1a1a;fill-opacity:1;stroke:#000000;stroke-width:1.10000002;stroke-miterlimit:4;stroke-dasharray:none;stroke-opacity:1" />
      <path
         sodipodi:nodetypes="cc"
         inkscape:connector-curvature="0"
         id="path4178"
         d="m 283.12006,387.62376 c 55.18349,32.29795 114.22384,46.16864 186.42857,-2.85714"
         style="fill:none;fill-rule:evenodd;stroke:#000000;stroke-width:4;stroke-linecap:butt;stroke-linejoin:miter;stroke-miterlimit:4;stroke-dasharray:none;stroke-opacity:1" />
      <circle
         r="16.743313"
         cy="304.16699"
         cx="303.21991"
         id="path4184"
         style="fill:#333333;fill-opacity:1;stroke:none;stroke-width:1.00623226;stroke-miterlimit:4;stroke-dasharray:none;stroke-opacity:1;filter:url(#filter4261)" />
      <path
         transform="matrix(1.1697312,0.22920797,-0.2297222,1.1723554,57.271399,-107.63173)"
         inkscape:connector-curvature="0"
         id="path4186"
         d="m 272.32227,279.86133 a 3.9285715,3.9285715 0 0 0 -2.13672,0.63281 3.9285715,3.9285715 0 0 0 -1.43555,-0.27539 3.9285715,3.9285715 0 0 0 -3.92773,3.92969 3.9285715,3.9285715 0 0 0 3.92773,3.92773 3.9285715,3.9285715 0 0 0 2.13477,-0.63281 3.9285715,3.9285715 0 0 0 1.4375,0.27539 3.9285715,3.9285715 0 0 0 0.55468,-0.043 3.9285715,3.9285715 0 0 0 3.19532,1.65039 3.9285715,3.9285715 0 0 0 3.92773,-3.92773 3.9285715,3.9285715 0 0 0 -3.92773,-3.92969 3.9285715,3.9285715 0 0 0 -0.55665,0.0449 3.9285715,3.9285715 0 0 0 -3.19335,-1.65234 z"
         style="fill:#ffffff;fill-opacity:1;stroke:none;stroke-width:1.10000002;stroke-miterlimit:4;stroke-dasharray:none;stroke-opacity:1;filter:url(#filter4362)" />
      <circle
         r="22.5"
         cy="299.84744"
         cx="440.56403"
         id="path4182-5"
         style="fill:#1a1a1a;fill-opacity:1;stroke:#000000;stroke-width:1.10000002;stroke-miterlimit:4;stroke-dasharray:none;stroke-opacity:1" />
      <circle
         r="16.743313"
         cy="302.79385"
         cx="438.5105"
         id="path4184-9"
         style="fill:#333333;fill-opacity:1;stroke:none;stroke-width:1.00623226;stroke-miterlimit:4;stroke-dasharray:none;stroke-opacity:1;filter:url(#filter4261-0)" />
      <path
         transform="matrix(1.1697312,0.22920797,-0.2297222,1.1723554,192.56202,-109.00487)"
         inkscape:connector-curvature="0"
         id="path4186-5"
         d="m 272.32227,279.86133 a 3.9285715,3.9285715 0 0 0 -2.13672,0.63281 3.9285715,3.9285715 0 0 0 -1.43555,-0.27539 3.9285715,3.9285715 0 0 0 -3.92773,3.92969 3.9285715,3.9285715 0 0 0 3.92773,3.92773 3.9285715,3.9285715 0 0 0 2.13477,-0.63281 3.9285715,3.9285715 0 0 0 1.4375,0.27539 3.9285715,3.9285715 0 0 0 0.55468,-0.043 3.9285715,3.9285715 0 0 0 3.19532,1.65039 3.9285715,3.9285715 0 0 0 3.92773,-3.92773 3.9285715,3.9285715 0 0 0 -3.92773,-3.92969 3.9285715,3.9285715 0 0 0 -0.55665,0.0449 3.9285715,3.9285715 0 0 0 -3.19335,-1.65234 z"
         style="fill:#ffffff;fill-opacity:1;stroke:none;stroke-width:1.10000002;stroke-miterlimit:4;stroke-dasharray:none;stroke-opacity:1;filter:url(#filter4362-4)" />
      <path
         sodipodi:nodetypes="cc"
         inkscape:connector-curvature="0"
         id="path4399"
         d="m 356.58996,359.50049 c 11.90477,-8.57143 22.85715,-8.57143 32.85715,0"
         style="fill:none;fill-rule:evenodd;stroke:#000000;stroke-width:2;stroke-linecap:butt;stroke-linejoin:miter;stroke-miterlimit:4;stroke-dasharray:none;stroke-opacity:1" />
    </g>
    <g
       id="g4173">
      <g
         id="g4174"
         transform="matrix(1.4330462,0,0,1.1181819,-234.26332,-74.652809)">
        <rect
           style="opacity:1;fill:#808080;fill-opacity:1;stroke:none;stroke-width:5;stroke-miterlimit:4;stroke-dasharray:none;stroke-opacity:1"
           id="rect4162"
           width="70.38253"
           height="78.571426"
           x="527.77051"
           y="534.9743"
           ry="1.81231" />
        <text
           xml:space="preserve"
           style="font-style:normal;font-weight:normal;line-height:0%;font-family:sans-serif;letter-spacing:0px;word-spacing:0px;fill:#ffffff;fill-opacity:1;stroke:none;stroke-width:1px;stroke-linecap:butt;stroke-linejoin:miter;stroke-opacity:1"
           x="541.9502"
           y="586.28339"
           id="text4164"><tspan
             sodipodi:role="line"
             x="541.9502"
             y="586.28339"
             id="tspan4169"
             style="font-size:34.30287933px;line-height:1.25">I/Y</tspan></text>
      </g>
    </g>
  </g>
</svg>
