<?xml version="1.0" encoding="UTF-8" standalone="no"?>
<!-- Created with Inkscape (http://www.inkscape.org/) -->

<svg
   xmlns:dc="http://purl.org/dc/elements/1.1/"
   xmlns:cc="http://creativecommons.org/ns#"
   xmlns:rdf="http://www.w3.org/1999/02/22-rdf-syntax-ns#"
   xmlns:svg="http://www.w3.org/2000/svg"
   xmlns="http://www.w3.org/2000/svg"
   xmlns:sodipodi="http://sodipodi.sourceforge.net/DTD/sodipodi-0.dtd"
   xmlns:inkscape="http://www.inkscape.org/namespaces/inkscape"
   width="297mm"
   height="210mm"
   viewBox="0 0 1052.3622 744.09448"
   id="svg2"
   version="1.1"
   inkscape:version="0.92.4 (5da689c313, 2019-01-14)"
   sodipodi:docname="kniha_otevrena.svg"
   inkscape:export-filename="G:\obrázky\předměty\otevrenakniha.png"
   inkscape:export-xdpi="90"
   inkscape:export-ydpi="90">
  <defs
     id="defs4" />
  <sodipodi:namedview
     id="base"
     pagecolor="#ffffff"
     bordercolor="#666666"
     borderopacity="1.0"
     inkscape:pageopacity="0.0"
     inkscape:pageshadow="2"
     inkscape:zoom="0.49497475"
     inkscape:cx="366.72484"
     inkscape:cy="498.53992"
     inkscape:document-units="px"
     inkscape:current-layer="layer2"
     showgrid="false"
     inkscape:window-width="1920"
     inkscape:window-height="986"
     inkscape:window-x="-11"
     inkscape:window-y="-11"
     inkscape:window-maximized="1" />
  <metadata
     id="metadata7">
    <rdf:RDF>
      <cc:Work
         rdf:about="">
        <dc:format>image/svg+xml</dc:format>
        <dc:type
           rdf:resource="http://purl.org/dc/dcmitype/StillImage" />
        <dc:title></dc:title>
      </cc:Work>
    </rdf:RDF>
  </metadata>
  <g
     inkscape:groupmode="layer"
     id="layer2"
     inkscape:label="Vrstva 2"
     transform="translate(0,-308.26772)"
     style="display:inline">
    <g
       id="g4155"
       transform="translate(26.153479,41.893947)">
      <path
         sodipodi:nodetypes="ccccc"
         inkscape:connector-curvature="0"
         id="path4164"
         d="m 831.78572,493.43363 14.82142,29.46428 8.30357,279.82144 -23.48214,-42.14286 c -4.06354,-86.72396 -0.58766,-208.26148 0.35715,-267.14286 z"
         style="fill:#ffffff;fill-opacity:1;fill-rule:evenodd;stroke:#000000;stroke-width:1px;stroke-linecap:butt;stroke-linejoin:miter;stroke-opacity:1" />
      <path
         sodipodi:nodetypes="ccccc"
         inkscape:connector-curvature="0"
         id="path4182"
         d="m 470.9758,814.53569 c 7.70087,6.76556 -14.41218,28.35933 66.37999,14.53826 l -15.43112,-13.41452 -39.08919,-7.9311 z"
         style="fill:#ffffff;fill-opacity:1;fill-rule:evenodd;stroke:#000000;stroke-width:1px;stroke-linecap:butt;stroke-linejoin:miter;stroke-opacity:1" />
      <path
         sodipodi:nodetypes="ccccccccccc"
         inkscape:connector-curvature="0"
         id="path8090"
         d="m 161.23662,777.42478 -23.61231,33.47662 c 20.30442,5.77396 128.67455,12.77741 179.17581,-7.44988 73.87532,-20.87682 135.09679,-16.37178 186.38211,10.13588 72.89392,-37.18746 134.40398,-37.74782 171.85221,-22.60216 49.86503,25.14253 102.99715,43.6881 179.40668,11.09635 L 831.35554,760.4894 C 781.9636,785.25482 721.77628,769.07258 685.3885,746.28599 615.45456,708.50456 547.57794,720.20636 499.2679,762.95351 469.68746,700.83192 349.08425,746.88842 315.16759,754.36721 264.72461,765.52245 214.6028,777.96237 161.23662,777.42478 Z"
         style="fill:#ffffff;fill-opacity:1;fill-rule:evenodd;stroke:#000000;stroke-width:1px;stroke-linecap:butt;stroke-linejoin:miter;stroke-opacity:1" />
      <path
         sodipodi:nodetypes="ccccc"
         inkscape:connector-curvature="0"
         id="path8088"
         d="m 144.50892,537.04971 c 8.77586,-7.24956 16.16902,-14.5774 24.35017,-23.46813 4.34385,13.87982 24.72284,182.44335 -6.35909,261.99491 l -24.28571,34.28572 c 6.14416,-84.43783 12.87571,-180.39749 6.29463,-272.8125 z"
         style="fill:#ffffff;fill-opacity:1;fill-rule:evenodd;stroke:#000000;stroke-width:1px;stroke-linecap:butt;stroke-linejoin:miter;stroke-opacity:1" />
      <path
         sodipodi:nodetypes="ccccccccccc"
         inkscape:connector-curvature="0"
         id="path4148"
         d="m 496.99505,513.9509 c -29.89349,-27.27371 -47.50214,-65.60377 -102.0254,-70.71068 -73.53821,2.49888 -98.77753,62.52624 -225.26402,69.70052 6.72672,86.87421 21.10554,172.65526 -8.08122,264.65997 72.12957,-0.18867 156.86937,-24.14998 197.9899,-35.35534 84.04204,-20.20084 120.03536,-12.64642 139.82382,20.69761 32.71336,-31.97663 109.49785,-64.17628 194.95944,-11.11167 46.11998,22.62788 94.23226,29.88485 136.95797,8.59681 -4.3586,-86.71412 -0.4325,-177.5706 0,-266.68027 C 793.67152,491.7795 767.48476,502.30317 715.188,473.54479 605.05937,414.80315 565.71235,465.61895 496.99505,513.9509 Z"
         style="opacity:1;fill:#ffffff;fill-opacity:1;fill-rule:evenodd;stroke:#000000;stroke-width:1;stroke-linecap:butt;stroke-linejoin:miter;stroke-miterlimit:4.19999981;stroke-dasharray:none;stroke-opacity:1" />
      <path
         sodipodi:nodetypes="cc"
         inkscape:connector-curvature="0"
         id="path4184"
         d="m 150.49108,531.51398 5.93749,40.13394"
         style="fill:none;fill-rule:evenodd;stroke:#000000;stroke-width:1px;stroke-linecap:butt;stroke-linejoin:miter;stroke-opacity:1" />
      <path
         sodipodi:nodetypes="cc"
         inkscape:connector-curvature="0"
         id="path4158"
         d="m 503.21428,811.55863 -4.10713,-36.60714"
         style="fill:none;fill-rule:evenodd;stroke:#000000;stroke-width:1px;stroke-linecap:butt;stroke-linejoin:miter;stroke-opacity:1" />
      <path
         sodipodi:nodetypes="cccccccccccccccccc"
         inkscape:connector-curvature="0"
         id="path4151"
         d="m 154.55334,528.09303 -26.26397,0 c 7.15758,97.31136 -0.73306,194.62273 -2.0203,291.93409 136.78441,11.73028 216.82715,14.36471 341.43156,-3.03046 l 15.44815,-8.25454 c 5.52635,16.48877 22.98889,17.38163 37.67152,7.78536 l 15.5707,12.59101 c 116.27725,-12.20049 243.26059,1.15344 337.39095,-14.14214 l -7.07107,-293.95439 -20.20305,1.96955 8.25454,279.32204 c -32.48649,16.19053 -100.79356,18.29302 -119.37132,9.63235 -129.01276,-67.03383 -192.66282,-13.29026 -232.47866,-0.46918 -36.33087,-20.82784 -69.88596,-43.73854 -212.99861,-2.56128 -21.51131,5.80891 -79.8139,10.51709 -152.53303,1.01015 6.4059,-85.48887 14.08409,-170.61423 7.61204,-259.78252 l -0.43945,-13.01994 z"
         style="display:inline;opacity:1;fill:#333333;fill-opacity:1;fill-rule:evenodd;stroke:#4d4d4d;stroke-width:1px;stroke-linecap:butt;stroke-linejoin:miter;stroke-opacity:1" />
      <path
         sodipodi:nodetypes="cc"
         inkscape:connector-curvature="0"
         id="path4166"
         d="M 499.91072,784.41578 533.57143,757.3622"
         style="fill:none;fill-rule:evenodd;stroke:#000000;stroke-width:1px;stroke-linecap:butt;stroke-linejoin:miter;stroke-opacity:1" />
      <path
         sodipodi:nodetypes="ccc"
         inkscape:connector-curvature="0"
         id="path4168"
         d="m 551.42857,763.07649 -50,34.82143 c -25.20269,-13.58498 -35.99964,-39.1851 -94.28571,-28.39286"
         style="fill:none;fill-rule:evenodd;stroke:#000000;stroke-width:1px;stroke-linecap:butt;stroke-linejoin:miter;stroke-opacity:1" />
      <path
         sodipodi:nodetypes="cc"
         inkscape:connector-curvature="0"
         id="path4170"
         d="M 500,784.50506 C 473.76302,770.26585 466.0174,737.53528 410.71429,752.3622"
         style="fill:none;fill-rule:evenodd;stroke:#000000;stroke-width:1px;stroke-linecap:butt;stroke-linejoin:miter;stroke-opacity:1" />
      <path
         inkscape:connector-curvature="0"
         id="path4172"
         d="m 581.42857,766.64792 25,-2.85715"
         style="fill:none;fill-rule:evenodd;stroke:#000000;stroke-width:1px;stroke-linecap:butt;stroke-linejoin:miter;stroke-opacity:1" />
      <path
         sodipodi:nodetypes="cc"
         inkscape:connector-curvature="0"
         id="path4174"
         d="m 773.57143,790.21935 c 24.01615,-1.30656 51.26158,-3.33967 64.10715,-17.67857"
         style="fill:none;fill-rule:evenodd;stroke:#000000;stroke-width:1px;stroke-linecap:butt;stroke-linejoin:miter;stroke-opacity:1" />
      <path
         sodipodi:nodetypes="cc"
         inkscape:connector-curvature="0"
         id="path4176"
         d="m 791.42857,803.79077 c 27.4505,4.54253 42.64658,-4.70116 55,-17.14285"
         style="fill:none;fill-rule:evenodd;stroke:#000000;stroke-width:1px;stroke-linecap:butt;stroke-linejoin:miter;stroke-opacity:1" />
      <path
         sodipodi:nodetypes="cc"
         inkscape:connector-curvature="0"
         id="path4178"
         d="m 153.21428,788.34434 c 17.38095,7.89715 32.9762,2.01919 50.35715,1.16072"
         style="fill:none;fill-rule:evenodd;stroke:#000000;stroke-width:1px;stroke-linecap:butt;stroke-linejoin:miter;stroke-opacity:1" />
      <path
         inkscape:connector-curvature="0"
         id="path4180"
         d="m 145,800.21935 44.28571,2.14285"
         style="fill:none;fill-rule:evenodd;stroke:#000000;stroke-width:1px;stroke-linecap:butt;stroke-linejoin:miter;stroke-opacity:1" />
      <path
         sodipodi:nodetypes="cc"
         inkscape:connector-curvature="0"
         id="path4186"
         d="m 159.46428,523.61221 6.96429,62.32142"
         style="fill:none;fill-rule:evenodd;stroke:#000000;stroke-width:1px;stroke-linecap:butt;stroke-linejoin:miter;stroke-opacity:1" />
    </g>
  </g>
</svg>
